Dark_City_Stage_Header:
	smpsHeaderStartSong 1
	smpsHeaderVoice     Dark_City_Stage_Voices
	smpsHeaderChan      $06, $03
	smpsHeaderTempo     $01, $00

	smpsHeaderDAC       Dark_City_Stage_DAC
	smpsHeaderFM        Dark_City_Stage_FM1,	$00, $00
	smpsHeaderFM        Dark_City_Stage_FM2,	$00, $00
	smpsHeaderFM        Dark_City_Stage_FM3,	$00, $00
	smpsHeaderFM        Dark_City_Stage_FM4,	$00, $00
	smpsHeaderFM        Dark_City_Stage_FM5,	$00, $00
	smpsHeaderPSG       Dark_City_Stage_PSG1,	$00, $00, $00, $00
	smpsHeaderPSG       Dark_City_Stage_PSG2,	$00, $00, $00, $00
	smpsHeaderPSG       Dark_City_Stage_PSG3,	$00, $00, $00, $00

; PSG1 Data
Dark_City_Stage_PSG1:
; PSG2 Data
Dark_City_Stage_PSG2:
	smpsStop

; FM1 Data
Dark_City_Stage_FM1:
	smpsSetvoice        $00
	smpsAlterVol        $10
	smpsPan             panCenter, $00
	dc.b	nFs4, $13, smpsNoAttack
	smpsAlterNote       $ED
	dc.b	nFs4, $01, smpsNoAttack
	smpsAlterNote       $13
	dc.b	nF4, smpsNoAttack
	smpsAlterNote       $00
	dc.b	nF4, $01, smpsNoAttack
	smpsAlterNote       $EE
	dc.b	nF4, $01, smpsNoAttack
	smpsAlterNote       $06
	dc.b	nE4, smpsNoAttack
	smpsAlterNote       $00
	dc.b	nE4, $05, smpsNoAttack
	smpsAlterNote       $12
	dc.b	nE4, $01, smpsNoAttack
	smpsAlterNote       $FA
	dc.b	nF4, smpsNoAttack
	smpsAlterNote       $0C
	dc.b	nF4, $01, smpsNoAttack
	smpsAlterNote       $E6
	dc.b	nFs4, smpsNoAttack
	smpsAlterNote       $FA
	dc.b	nFs4, $01, smpsNoAttack
	smpsAlterNote       $00
	dc.b	nFs4, $05, nE4, $01

Dark_City_Stage_Jump05:
	dc.b	smpsNoAttack, nE4, $12, nCs4, $0A, nD4, $14
	smpsAlterVol        $05
	dc.b	nCs4, $04
	smpsAlterVol        $02
	dc.b	smpsNoAttack, nCs4, $05
	smpsAlterVol        $01
	dc.b	nD4, $14
	smpsAlterVol        $F8
	dc.b	nFs3, $0A, nA3, $09, nFs3, $0A, nA3, nB3, nCs4, smpsNoAttack
	smpsAlterNote       $02
	dc.b	nCs4, $01, smpsNoAttack
	smpsAlterNote       $03
	dc.b	nCs4, $01, smpsNoAttack
	smpsAlterNote       $04
	dc.b	nCs4, $03, smpsNoAttack
	smpsAlterNote       $02
	dc.b	nCs4, $01, smpsNoAttack
	smpsAlterNote       $00
	dc.b	nCs4, $01, smpsNoAttack
	smpsAlterNote       $FE
	dc.b	nCs4, $01, smpsNoAttack
	smpsAlterNote       $FC
	dc.b	nCs4, $02, smpsNoAttack
	smpsAlterNote       $FB
	dc.b	nCs4, $01, smpsNoAttack
	smpsAlterNote       $FC
	dc.b	nCs4, $02, smpsNoAttack
	smpsAlterNote       $FE
	dc.b	nCs4, $01, smpsNoAttack
	smpsAlterNote       $00
	dc.b	nCs4, $01, smpsNoAttack
	smpsAlterNote       $02
	dc.b	nCs4, $01, smpsNoAttack
	smpsAlterNote       $03
	dc.b	nCs4, $01, smpsNoAttack
	smpsAlterNote       $04
	dc.b	nCs4, $02, nRst, $05
	smpsAlterNote       $00
	dc.b	nFs4, $14, smpsNoAttack
	smpsAlterNote       $ED
	dc.b	nFs4, $01, smpsNoAttack
	smpsAlterNote       $13
	dc.b	nF4, smpsNoAttack
	smpsAlterNote       $00
	dc.b	nF4, $01, smpsNoAttack
	smpsAlterNote       $EE
	dc.b	nF4, $01, smpsNoAttack
	smpsAlterNote       $06
	dc.b	nE4, smpsNoAttack
	smpsAlterNote       $00
	dc.b	nE4, $04, smpsNoAttack
	smpsAlterNote       $12
	dc.b	nE4, $01, smpsNoAttack
	smpsAlterNote       $FA
	dc.b	nF4, smpsNoAttack
	smpsAlterNote       $0C
	dc.b	nF4, $01, smpsNoAttack
	smpsAlterNote       $E6
	dc.b	nFs4, smpsNoAttack
	smpsAlterNote       $FA
	dc.b	nFs4, $01, smpsNoAttack
	smpsAlterNote       $00
	dc.b	nFs4, $05, nE4, $14, nCs4, $0A, nD4, $13
	smpsAlterVol        $05
	dc.b	nCs4, $05
	smpsAlterVol        $02
	dc.b	smpsNoAttack, nCs4
	smpsAlterVol        $01
	dc.b	nD4, $13
	smpsAlterVol        $F8
	dc.b	nFs3, $0A, nA3, nFs3, nA3, nB3, $09, nCs4, $0A, smpsNoAttack
	smpsAlterNote       $02
	dc.b	nCs4, $01, smpsNoAttack
	smpsAlterNote       $03
	dc.b	nCs4, $01, smpsNoAttack
	smpsAlterNote       $04
	dc.b	nCs4, $03, smpsNoAttack
	smpsAlterNote       $03
	dc.b	nCs4, $01, smpsNoAttack
	smpsAlterNote       $02
	dc.b	nCs4, $01, smpsNoAttack
	smpsAlterNote       $00
	dc.b	nCs4, $01, smpsNoAttack
	smpsAlterNote       $FE
	dc.b	nCs4, $01, smpsNoAttack
	smpsAlterNote       $FC
	dc.b	nCs4, $02, smpsNoAttack
	smpsAlterNote       $FB
	dc.b	nCs4, $01, smpsNoAttack
	smpsAlterNote       $FC
	dc.b	nCs4, $02, smpsNoAttack
	smpsAlterNote       $FE
	dc.b	nCs4, $01, smpsNoAttack
	smpsAlterNote       $00
	dc.b	nCs4, $01, smpsNoAttack
	smpsAlterNote       $02
	dc.b	nCs4, $01, smpsNoAttack
	smpsAlterNote       $03
	dc.b	nCs4, $01, smpsNoAttack
	smpsAlterNote       $04
	dc.b	nCs4, $02, nRst, $05
	smpsAlterNote       $00
	dc.b	nB4, $27, nFs4, $13, nA4, $0A, nFs4, nA4, $13, nB4, $0A, nCs5
	dc.b	nE5, $14, nCs5, $09, nB4, $0A, nCs5, $1E, nFs4, $27, nB4, $13
	dc.b	nA4, $0A, nFs4, nA4, $13, nB4, $0A, nCs5, nE5, $14, nCs5, $09
	dc.b	nB4, $0A, nCs5, nE5, nFs5, $09, nE5, $14, nFs5, nE5, $09, nFs5
	dc.b	$0A, nCs5, nCs5, nE5, nA5, $61, nA5, $1E, nE5, $09, nFs5, $0A
	dc.b	nE5, nFs5, nCs5, $1D, nE5, $14, nFs5, $13, nE5, $14, nFs5, $0A
	dc.b	nFs5, $09, nCs5, $0A, nCs5, nE5, $31, nE5, $0A, nE5, nCs5, $13
	dc.b	nCs5, $0A, nFs4, $13, smpsNoAttack
	smpsAlterNote       $ED
	dc.b	nFs4, $01, smpsNoAttack
	smpsAlterNote       $13
	dc.b	nF4, smpsNoAttack
	smpsAlterNote       $00
	dc.b	nF4, $01, smpsNoAttack
	smpsAlterNote       $EE
	dc.b	nF4, $01, smpsNoAttack
	smpsAlterNote       $06
	dc.b	nE4, smpsNoAttack
	smpsAlterNote       $00
	dc.b	nE4, $05, smpsNoAttack
	smpsAlterNote       $12
	dc.b	nE4, $01, smpsNoAttack
	smpsAlterNote       $FA
	dc.b	nF4, smpsNoAttack
	smpsAlterNote       $0C
	dc.b	nF4, $01, smpsNoAttack
	smpsAlterNote       $E6
	dc.b	nFs4, smpsNoAttack
	smpsAlterNote       $FA
	dc.b	nFs4, $01, smpsNoAttack
	smpsAlterNote       $00
	dc.b	nFs4, $05, nE4, $01
	smpsPan             panCenter, $00
	smpsJump            Dark_City_Stage_Jump05

; FM2 Data
Dark_City_Stage_FM2:
	smpsSetvoice        $01
	smpsAlterVol        $15
	smpsPan             panCenter, $00
	dc.b	nFs3, $27, nE3, $01

Dark_City_Stage_Jump04:
	dc.b	smpsNoAttack, nE3, $12, nCs3, $0A, nD3, $1D, nFs3, $0A, nFs2, nA3, nFs3
	dc.b	$09, nA3, $0A, nB2, $14, nCs3, $1D, nRst, $05, nFs3, $27, nE3
	dc.b	$14, nCs3, $0A, nD3, $1D, nFs3, $0A, nFs2, $09, nA3, $0A, nFs3
	dc.b	nA3, nB2, $13, nCs3, $1E, nRst, $05, nFs2, $09, nFs2, $0A, nFs3
	dc.b	nFs2, nB3, nA3, $09, nA2, $14, nB3, $0A, nA3, $09, nE3, $0A
	dc.b	nE2, nE3, nFs3, nFs2, $13, nB3, $0A, nB2, nB3, nA3, $09, nA2
	dc.b	$0A
	smpsAlterNote       $FF
	dc.b	nG3
	smpsAlterNote       $00
	dc.b	nG2, nFs3, $09, nFs2, $0A, nB3, nB2, nA3, nA2, $13, nA3, $0A
	dc.b	nA2, $14, nB3, $09, nB2, $0A, nFs2, nFs2, nA2, $09, nA2, $0A
	dc.b	nB2, nB2, nCs3, nCs3, $09, nA2, $0A, nA2, nCs3, nCs3, nD3, $1D
	dc.b	nD3, $0A, nD3, $13, nE3, $0A, nE3, nE3, nE3, $09, nCs3, $0A
	dc.b	nCs3, nA2, nA2, $13, nB2, $14, nCs3, $13, nE3, $0A, nCs3, nE3
	dc.b	nB2, nCs3, $09, nA2, $14, nB2, $1D, nB2, $0A, nB2, nB2, nA2
	dc.b	$09, nA2, $0A, nA2, nFs2, nFs2, nFs2, $09, nE2, $0A, nE2, nFs3
	dc.b	$27, nE3, $01
	smpsPan             panCenter, $00
	smpsJump            Dark_City_Stage_Jump04

; FM3 Data
Dark_City_Stage_FM3:
	smpsSetvoice        $02
	smpsAlterVol        $10
	smpsPan             panCenter, $00
	dc.b	nFs5, $27, nCs5, $01

Dark_City_Stage_Jump03:
	dc.b	smpsNoAttack, nCs5, $12, nE5, $0A, nD5, $14, nE5, $09, nD5, $0A, nA4
	dc.b	nB4, nFs4, $09, nA5, $0A, nB5, nA5, nCs6, $22, nFs5, $27, nCs5
	dc.b	$14, nE5, $0A, nD5, $13, nE5, $0A, nD5, nA4, $09, nB4, $0A
	dc.b	nFs4, nA5, nB5, nA5, $09, nCs6, $23, nFs4, $1D, smpsNoAttack
	smpsAlterNote       $1C
	dc.b	nF4, $01, smpsNoAttack
	smpsAlterNote       $00
	dc.b	nF4, $01, smpsNoAttack
	smpsAlterNote       $0F
	dc.b	nE4, smpsNoAttack
	smpsAlterNote       $F4
	dc.b	nE4, $01, smpsNoAttack
	smpsAlterNote       $00
	dc.b	nEb4, smpsNoAttack
	smpsAlterNote       $E7
	dc.b	nEb4, $01, smpsNoAttack
	smpsAlterNote       $03
	dc.b	nD4, smpsNoAttack
	smpsAlterNote       $14
	dc.b	nCs4, smpsNoAttack
	smpsAlterNote       $FD
	dc.b	nCs4, $01, smpsNoAttack
	smpsAlterNote       $00
	dc.b	nC4, nB4, $13, nA4, $0A, nFs4, nA4, $13, nB4, $14, nA4, $0A
	dc.b	nFs4, nA4, $09, nE4, $0A, nFs4, nFs4, nCs4, nCs4, $27, nA4, $13
	dc.b	nFs4, $0A, nE4, nFs4, $13, nCs4, $0A, nCs4, nE4, $14, nA4, $1D
	dc.b	nB4, $13, nB4, $14, nCs4, nFs4, $13, nA4, $14, nB4, $3A, nE5
	dc.b	$0A, nCs5, nE5, nCs5, nE5, $09, nE5, $1E, nD5, $09, nCs5, $14
	dc.b	nA4, $0A, nA5, nB5, $13, nE5, $0A, nFs5, nA5, $13, nE5, $0A
	dc.b	nE5, nFs5, nA5, $09, nE5, $0A, nFs5, nFs5, $31, nFs4, $0A, nE4
	dc.b	nCs4, $09, nB3, $0A, nRst, nFs5, $27, nCs5, $01
	smpsPan             panCenter, $00
	smpsJump            Dark_City_Stage_Jump03

; FM4 Data
Dark_City_Stage_FM4:
	smpsSetvoice        $02
	smpsAlterVol        $0F
	smpsPan             panCenter, $00
	dc.b	nB5, $27, nFs5, $01

Dark_City_Stage_Jump02:
	dc.b	smpsNoAttack, nFs5, $12, nB5, $0A, nA5, $14, nB5, $09, nA5, $0A, nE5
	dc.b	nFs5, nB4, $09, nE4, $0A, nFs4, nE4, nAb4, $22, nB5, $27, nFs5
	dc.b	$14, nB5, $0A, nA5, $13, nB5, $0A, nA5, nE5, $09, nFs5, $0A
	dc.b	nB4, nE4, nFs4, nE4, $09, nAb4, $23, nCs5, $1D, smpsNoAttack
	smpsAlterNote       $02
	dc.b	nC5, $01, smpsNoAttack
	smpsAlterNote       $00
	dc.b	nC5, $01, smpsNoAttack
	smpsAlterNote       $16
	dc.b	nB4, smpsNoAttack
	smpsAlterNote       $EF
	dc.b	nB4, $01, smpsNoAttack
	smpsAlterNote       $00
	dc.b	nBb4, smpsNoAttack
	smpsAlterNote       $DA
	dc.b	nBb4, $01, smpsNoAttack
	smpsAlterNote       $04
	dc.b	nA4, smpsNoAttack
	smpsAlterNote       $1E
	dc.b	nAb4, smpsNoAttack
	smpsAlterNote       $FC
	dc.b	nAb4, $01, smpsNoAttack
	smpsAlterNote       $15
	dc.b	nG4
	smpsAlterNote       $00
	dc.b	nFs5, $13, nE5, $0A, nCs5, nE5, $13, nFs5, $14, nE5, $0A, nCs5
	dc.b	nE5, $09, nB4, $0A, nCs5, nCs5, nAb4, nAb4, $27, nE5, $13, nCs5
	dc.b	$0A, nB4, nCs5, $13, nAb4, $0A, nAb4, nB4, $14, nE5, $1D, nFs5
	dc.b	$13, nFs5, $14, nAb4, nCs5, $13, nE5, $14, nFs5, $3A, nB5, $0A
	dc.b	nAb5, nB5, nAb5, nB5, $09, nB5, $1E, nA5, $09, nAb5, $14, nE5
	dc.b	$0A, nE6, nFs6, $13, nB5, $0A, nCs6, nE6, $13, nB5, $0A, nB5
	dc.b	nCs6, nE6, $09, nB5, $0A, nCs6, nCs6, $31, nCs5, $0A, nB4, nAb4
	dc.b	$09, nFs4, $0A, nRst, nB5, $27, nFs5, $01
	smpsPan             panCenter, $00
	smpsJump            Dark_City_Stage_Jump02

; FM5 Data
Dark_City_Stage_FM5:
	smpsSetvoice        $03
	smpsAlterVol        $10
	smpsPan             panCenter, $00
	dc.b	nFs3, $27, nCs3, $01

Dark_City_Stage_Jump01:
	dc.b	smpsNoAttack, nCs3, $12, nE3, $0A, nD3, $14, nE3, $09, nD3, $0A, nA2
	dc.b	nB2, nFs2, $09, nA3, $0A, nB3, nA3, nCs4, $22, nFs3, $27, nCs3
	dc.b	$14, nE3, $0A, nD3, $13, nE3, $0A, nD3, nA2, $09, nB2, $0A
	dc.b	nFs2, nA3, nB3, nA3, $09, nCs4, $23, nB3, $27, nFs3, $13, nA3
	dc.b	$0A, nFs3, nA3, $13, nB3, $0A, nCs4, nE4, $14, nCs4, $09, nB3
	dc.b	$0A, nCs4, $1E, nFs3, $27, nB3, $13, nA3, $0A, nFs3, nA3, $13
	dc.b	nB3, $0A, nCs4, nE4, $14, nCs4, $09, nB3, $0A, nCs4, nE4, nFs4
	dc.b	$09, nE4, $14, nFs4, nE4, $09, nFs4, $0A, nCs4, nCs4, nE4, nA4
	dc.b	$61, nA4, $1E, nE4, $09, nFs4, $0A, nE4, nFs4, nA3, nB3, $13
	dc.b	nE3, $0A, nFs3, nA3, $13, nE3, $0A, nE3, nFs3, nA3, $09, nE3
	dc.b	$0A, nFs3, nFs3, $31, nFs2, $0A, nE2, nCs2, $09, nB1, $0A, nRst
	dc.b	nFs3, $27, nCs3, $01
	smpsPan             panCenter, $00
	smpsJump            Dark_City_Stage_Jump01

; PSG3 Data
Dark_City_Stage_PSG3:
	smpsPSGAlterVol     $03
	smpsPSGform         $E7
	smpsAlterNote       $FF
	dc.b	nAb5, $01
	smpsPSGAlterVol     $02
	smpsAlterNote       $FF
	dc.b	nAb5
	smpsPSGAlterVol     $04
	smpsAlterNote       $FF
	dc.b	nAb5
	smpsPSGAlterVol     $03
	smpsAlterNote       $FF
	dc.b	nAb5
	smpsPSGAlterVol     $F5
	smpsAlterNote       $FF
	dc.b	nAb5
	smpsPSGAlterVol     $02
	smpsAlterNote       $FF
	dc.b	nAb5
	smpsPSGAlterVol     $02
	smpsAlterNote       $FF
	dc.b	nAb5
	smpsPSGAlterVol     $04
	smpsAlterNote       $FF
	dc.b	nAb5
	smpsPSGAlterVol     $03
	smpsAlterNote       $FF
	dc.b	nAb5
	smpsPSGAlterVol     $F5
	smpsAlterNote       $FF
	dc.b	nAb5
	smpsPSGAlterVol     $02
	smpsAlterNote       $FF
	dc.b	nAb5
	smpsPSGAlterVol     $02
	smpsAlterNote       $FF
	dc.b	nAb5
	smpsPSGAlterVol     $04
	smpsAlterNote       $FF
	dc.b	nAb5
	smpsPSGAlterVol     $03
	smpsAlterNote       $FF
	dc.b	nAb5
	smpsPSGAlterVol     $F5
	smpsAlterNote       $04
	dc.b	nMaxPSG
	smpsPSGAlterVol     $02
	smpsAlterNote       $04
	dc.b	nMaxPSG
	smpsPSGAlterVol     $02
	smpsAlterNote       $04
	dc.b	nMaxPSG
	smpsPSGAlterVol     $04
	smpsAlterNote       $04
	dc.b	nMaxPSG
	smpsPSGAlterVol     $03
	smpsAlterNote       $04
	dc.b	nMaxPSG
	smpsPSGAlterVol     $F5
	smpsAlterNote       $FF
	dc.b	nAb5
	smpsPSGAlterVol     $02
	smpsAlterNote       $FF
	dc.b	nAb5
	smpsPSGAlterVol     $02
	smpsAlterNote       $FF
	dc.b	nAb5
	smpsPSGAlterVol     $04
	smpsAlterNote       $FF
	dc.b	nAb5
	smpsPSGAlterVol     $03
	smpsAlterNote       $FF
	dc.b	nAb5
	smpsPSGAlterVol     $F5
	smpsAlterNote       $02
	dc.b	nMaxPSG
	smpsPSGAlterVol     $02
	smpsAlterNote       $02
	dc.b	nMaxPSG
	smpsPSGAlterVol     $02
	smpsAlterNote       $02
	dc.b	nMaxPSG
	smpsPSGAlterVol     $04
	smpsAlterNote       $02
	dc.b	nMaxPSG
	smpsPSGAlterVol     $03
	smpsAlterNote       $02
	dc.b	nMaxPSG
	smpsPSGAlterVol     $F5
	smpsAlterNote       $FD
	dc.b	nAb5
	smpsPSGAlterVol     $02
	smpsAlterNote       $FD
	dc.b	nAb5
	smpsPSGAlterVol     $02
	smpsAlterNote       $FD
	dc.b	nAb5
	smpsPSGAlterVol     $04
	smpsAlterNote       $FD
	dc.b	nAb5
	smpsPSGAlterVol     $03
	smpsAlterNote       $FD
	dc.b	nAb5
	smpsPSGAlterVol     $F5
	smpsAlterNote       $FD
	dc.b	nAb5
	smpsPSGAlterVol     $02
	smpsAlterNote       $FD
	dc.b	nAb5
	smpsPSGAlterVol     $02
	smpsAlterNote       $FD
	dc.b	nAb5
	smpsPSGAlterVol     $04
	smpsAlterNote       $FD
	dc.b	nAb5
	smpsPSGAlterVol     $03
	smpsAlterNote       $FD
	dc.b	nAb5
	smpsPSGAlterVol     $F5
	smpsAlterNote       $04
	dc.b	nMaxPSG

Dark_City_Stage_Jump06:
	smpsPSGAlterVol     $02
	smpsAlterNote       $04
	dc.b	nMaxPSG
	smpsPSGAlterVol     $02
	smpsAlterNote       $04
	dc.b	nMaxPSG
	smpsPSGAlterVol     $04
	smpsAlterNote       $04
	dc.b	nMaxPSG
	smpsPSGAlterVol     $03
	smpsAlterNote       $04
	dc.b	nMaxPSG
	smpsPSGAlterVol     $F5
	smpsAlterNote       $FF
	dc.b	nAb5
	smpsPSGAlterVol     $04
	smpsAlterNote       $FF
	dc.b	nAb5
	smpsPSGAlterVol     $04
	smpsAlterNote       $FF
	dc.b	nAb5
	smpsPSGAlterVol     $03
	smpsAlterNote       $FF
	dc.b	nAb5
	smpsPSGAlterVol     $F5
	smpsAlterNote       $FF
	dc.b	nAb5
	smpsPSGAlterVol     $02
	smpsAlterNote       $FF
	dc.b	nAb5
	smpsPSGAlterVol     $02
	smpsAlterNote       $FF
	dc.b	nAb5
	smpsPSGAlterVol     $04
	smpsAlterNote       $FF
	dc.b	nAb5
	smpsPSGAlterVol     $03
	smpsAlterNote       $FF
	dc.b	nAb5
	smpsPSGAlterVol     $F5
	smpsAlterNote       $04
	dc.b	nMaxPSG
	smpsPSGAlterVol     $02
	smpsAlterNote       $04
	dc.b	nMaxPSG
	smpsPSGAlterVol     $02
	smpsAlterNote       $04
	dc.b	nMaxPSG
	smpsPSGAlterVol     $04
	smpsAlterNote       $04
	dc.b	nMaxPSG
	smpsPSGAlterVol     $03
	smpsAlterNote       $04
	dc.b	nMaxPSG
	smpsPSGAlterVol     $F5
	smpsAlterNote       $FF
	dc.b	nAb5
	smpsPSGAlterVol     $02
	smpsAlterNote       $FF
	dc.b	nAb5
	smpsPSGAlterVol     $02
	smpsAlterNote       $FF
	dc.b	nAb5
	smpsPSGAlterVol     $04
	smpsAlterNote       $FF
	dc.b	nAb5
	smpsPSGAlterVol     $03
	smpsAlterNote       $FF
	dc.b	nAb5
	smpsPSGAlterVol     $F5
	smpsAlterNote       $FF
	dc.b	nAb5
	smpsPSGAlterVol     $02
	smpsAlterNote       $FF
	dc.b	nAb5
	smpsPSGAlterVol     $02
	smpsAlterNote       $FF
	dc.b	nAb5
	smpsPSGAlterVol     $04
	smpsAlterNote       $FF
	dc.b	nAb5
	smpsPSGAlterVol     $03
	smpsAlterNote       $FF
	dc.b	nAb5
	smpsPSGAlterVol     $F5
	smpsAlterNote       $00
	dc.b	nMaxPSG
	smpsPSGAlterVol     $02
	smpsAlterNote       $00
	dc.b	nMaxPSG
	smpsPSGAlterVol     $02
	smpsAlterNote       $00
	dc.b	nMaxPSG
	smpsPSGAlterVol     $04
	smpsAlterNote       $00
	dc.b	nMaxPSG
	smpsPSGAlterVol     $03
	smpsAlterNote       $00
	dc.b	nMaxPSG
	smpsPSGAlterVol     $F5
	smpsAlterNote       $04
	dc.b	nMaxPSG
	smpsPSGAlterVol     $02
	smpsAlterNote       $04
	dc.b	nMaxPSG
	smpsPSGAlterVol     $02
	smpsAlterNote       $04
	dc.b	nMaxPSG
	smpsPSGAlterVol     $04
	smpsAlterNote       $04
	dc.b	nMaxPSG
	smpsPSGAlterVol     $03
	smpsAlterNote       $04
	dc.b	nMaxPSG
	smpsPSGAlterVol     $F5
	smpsAlterNote       $04
	dc.b	nMaxPSG
	smpsPSGAlterVol     $02
	smpsAlterNote       $04
	dc.b	nMaxPSG
	smpsPSGAlterVol     $02
	smpsAlterNote       $04
	dc.b	nMaxPSG
	smpsPSGAlterVol     $04
	smpsAlterNote       $04
	dc.b	nMaxPSG
	smpsPSGAlterVol     $03
	smpsAlterNote       $04
	dc.b	nMaxPSG
	smpsPSGAlterVol     $F5
	smpsAlterNote       $04
	dc.b	nMaxPSG
	smpsPSGAlterVol     $02
	smpsAlterNote       $04
	dc.b	nMaxPSG
	smpsPSGAlterVol     $02
	smpsAlterNote       $04
	dc.b	nMaxPSG
	smpsPSGAlterVol     $04
	smpsAlterNote       $04
	dc.b	nMaxPSG
	smpsPSGAlterVol     $03
	smpsAlterNote       $04
	dc.b	nMaxPSG
	smpsPSGAlterVol     $F5
	smpsAlterNote       $00
	dc.b	nMaxPSG
	smpsPSGAlterVol     $02
	smpsAlterNote       $00
	dc.b	nMaxPSG
	smpsPSGAlterVol     $06
	smpsAlterNote       $00
	dc.b	nMaxPSG
	smpsPSGAlterVol     $03
	smpsAlterNote       $00
	dc.b	nMaxPSG
	smpsPSGAlterVol     $F5
	smpsAlterNote       $04
	dc.b	nMaxPSG
	smpsPSGAlterVol     $02
	smpsAlterNote       $04
	dc.b	nMaxPSG
	smpsPSGAlterVol     $02
	smpsAlterNote       $04
	dc.b	nMaxPSG
	smpsPSGAlterVol     $04
	smpsAlterNote       $04
	dc.b	nMaxPSG
	smpsPSGAlterVol     $03
	smpsAlterNote       $04
	dc.b	nMaxPSG
	smpsPSGAlterVol     $F5
	smpsAlterNote       $04
	dc.b	nMaxPSG
	smpsPSGAlterVol     $02
	smpsAlterNote       $04
	dc.b	nMaxPSG
	smpsPSGAlterVol     $02
	smpsAlterNote       $04
	dc.b	nMaxPSG
	smpsPSGAlterVol     $04
	smpsAlterNote       $04
	dc.b	nMaxPSG
	smpsPSGAlterVol     $03
	smpsAlterNote       $04
	dc.b	nMaxPSG
	smpsPSGAlterVol     $F5
	smpsAlterNote       $00
	dc.b	nMaxPSG
	smpsPSGAlterVol     $02
	smpsAlterNote       $00
	dc.b	nMaxPSG
	smpsPSGAlterVol     $02
	smpsAlterNote       $00
	dc.b	nMaxPSG
	smpsPSGAlterVol     $04
	smpsAlterNote       $00
	dc.b	nMaxPSG
	smpsPSGAlterVol     $03
	smpsAlterNote       $00
	dc.b	nMaxPSG
	smpsPSGAlterVol     $F5
	smpsAlterNote       $04
	dc.b	nMaxPSG
	smpsPSGAlterVol     $02
	smpsAlterNote       $04
	dc.b	nMaxPSG
	smpsPSGAlterVol     $02
	smpsAlterNote       $04
	dc.b	nMaxPSG
	smpsPSGAlterVol     $04
	smpsAlterNote       $04
	dc.b	nMaxPSG
	smpsPSGAlterVol     $03
	smpsAlterNote       $04
	dc.b	nMaxPSG
	smpsPSGAlterVol     $F5
	smpsAlterNote       $04
	dc.b	nMaxPSG
	smpsPSGAlterVol     $02
	smpsAlterNote       $04
	dc.b	nMaxPSG
	smpsPSGAlterVol     $02
	smpsAlterNote       $04
	dc.b	nMaxPSG
	smpsPSGAlterVol     $04
	smpsAlterNote       $04
	dc.b	nMaxPSG
	smpsPSGAlterVol     $03
	smpsAlterNote       $04
	dc.b	nMaxPSG
	smpsPSGAlterVol     $F5
	smpsAlterNote       $04
	dc.b	nMaxPSG
	smpsPSGAlterVol     $02
	smpsAlterNote       $04
	dc.b	nMaxPSG
	smpsPSGAlterVol     $02
	smpsAlterNote       $04
	dc.b	nMaxPSG
	smpsPSGAlterVol     $04
	smpsAlterNote       $04
	dc.b	nMaxPSG
	smpsPSGAlterVol     $03
	smpsAlterNote       $04
	dc.b	nMaxPSG
	smpsPSGAlterVol     $F5
	smpsAlterNote       $00
	dc.b	nMaxPSG
	smpsPSGAlterVol     $02
	smpsAlterNote       $00
	dc.b	nMaxPSG
	smpsPSGAlterVol     $02
	smpsAlterNote       $00
	dc.b	nMaxPSG
	smpsPSGAlterVol     $04
	smpsAlterNote       $00
	dc.b	nMaxPSG
	smpsPSGAlterVol     $03
	smpsAlterNote       $00
	dc.b	nMaxPSG
	smpsPSGAlterVol     $F5
	smpsAlterNote       $04
	dc.b	nMaxPSG
	smpsPSGAlterVol     $02
	smpsAlterNote       $04
	dc.b	nMaxPSG
	smpsPSGAlterVol     $02
	smpsAlterNote       $04
	dc.b	nMaxPSG
	smpsPSGAlterVol     $04
	smpsAlterNote       $04
	dc.b	nMaxPSG
	smpsPSGAlterVol     $03
	smpsAlterNote       $04
	dc.b	nMaxPSG
	smpsPSGAlterVol     $F5
	smpsAlterNote       $04
	dc.b	nMaxPSG
	smpsPSGAlterVol     $02
	smpsAlterNote       $04
	dc.b	nMaxPSG
	smpsPSGAlterVol     $02
	smpsAlterNote       $04
	dc.b	nMaxPSG
	smpsPSGAlterVol     $07
	smpsAlterNote       $04
	dc.b	nMaxPSG
	smpsPSGAlterVol     $F5
	smpsAlterNote       $04
	dc.b	nMaxPSG
	smpsPSGAlterVol     $02
	smpsAlterNote       $04
	dc.b	nMaxPSG
	smpsPSGAlterVol     $02
	smpsAlterNote       $04
	dc.b	nMaxPSG
	smpsPSGAlterVol     $04
	smpsAlterNote       $04
	dc.b	nMaxPSG
	smpsPSGAlterVol     $03
	smpsAlterNote       $04
	dc.b	nMaxPSG
	smpsPSGAlterVol     $F5
	smpsAlterNote       $00
	dc.b	nMaxPSG
	smpsPSGAlterVol     $02
	smpsAlterNote       $00
	dc.b	nMaxPSG
	smpsPSGAlterVol     $02
	smpsAlterNote       $00
	dc.b	nMaxPSG
	smpsPSGAlterVol     $04
	smpsAlterNote       $00
	dc.b	nMaxPSG
	smpsPSGAlterVol     $03
	smpsAlterNote       $00
	dc.b	nMaxPSG
	smpsPSGAlterVol     $F5
	smpsAlterNote       $04
	dc.b	nMaxPSG
	smpsPSGAlterVol     $02
	smpsAlterNote       $04
	dc.b	nMaxPSG
	smpsPSGAlterVol     $02
	smpsAlterNote       $04
	dc.b	nMaxPSG
	smpsPSGAlterVol     $04
	smpsAlterNote       $04
	dc.b	nMaxPSG
	smpsPSGAlterVol     $03
	smpsAlterNote       $04
	dc.b	nMaxPSG
	smpsPSGAlterVol     $F5
	smpsAlterNote       $04
	dc.b	nMaxPSG
	smpsPSGAlterVol     $02
	smpsAlterNote       $04
	dc.b	nMaxPSG
	smpsPSGAlterVol     $02
	smpsAlterNote       $04
	dc.b	nMaxPSG
	smpsPSGAlterVol     $04
	smpsAlterNote       $04
	dc.b	nMaxPSG
	smpsPSGAlterVol     $03
	smpsAlterNote       $04
	dc.b	nMaxPSG
	smpsPSGAlterVol     $F5
	smpsAlterNote       $00
	dc.b	nMaxPSG
	smpsPSGAlterVol     $02
	smpsAlterNote       $00
	dc.b	nMaxPSG
	smpsPSGAlterVol     $02
	smpsAlterNote       $00
	dc.b	nMaxPSG
	smpsPSGAlterVol     $04
	smpsAlterNote       $00
	dc.b	nMaxPSG
	smpsPSGAlterVol     $03
	smpsAlterNote       $00
	dc.b	nMaxPSG
	smpsPSGAlterVol     $F5
	smpsAlterNote       $04
	dc.b	nMaxPSG
	smpsPSGAlterVol     $02
	smpsAlterNote       $04
	dc.b	nMaxPSG
	smpsPSGAlterVol     $02
	smpsAlterNote       $04
	dc.b	nMaxPSG
	smpsPSGAlterVol     $04
	smpsAlterNote       $04
	dc.b	nMaxPSG
	smpsPSGAlterVol     $03
	smpsAlterNote       $04
	dc.b	nMaxPSG
	smpsPSGAlterVol     $F5
	smpsAlterNote       $04
	dc.b	nMaxPSG
	smpsPSGAlterVol     $02
	smpsAlterNote       $04
	dc.b	nMaxPSG
	smpsPSGAlterVol     $02
	smpsAlterNote       $04
	dc.b	nMaxPSG
	smpsPSGAlterVol     $04
	smpsAlterNote       $04
	dc.b	nMaxPSG
	smpsPSGAlterVol     $03
	smpsAlterNote       $04
	dc.b	nMaxPSG
	smpsPSGAlterVol     $F5
	smpsAlterNote       $00
	dc.b	nMaxPSG
	smpsPSGAlterVol     $02
	smpsAlterNote       $00
	dc.b	nMaxPSG
	smpsPSGAlterVol     $02
	smpsAlterNote       $00
	dc.b	nMaxPSG
	smpsPSGAlterVol     $04
	smpsAlterNote       $00
	dc.b	nMaxPSG
	smpsPSGAlterVol     $03
	smpsAlterNote       $00
	dc.b	nMaxPSG
	smpsPSGAlterVol     $F5
	smpsAlterNote       $04
	dc.b	nMaxPSG
	smpsPSGAlterVol     $02
	smpsAlterNote       $04
	dc.b	nMaxPSG
	smpsPSGAlterVol     $02
	smpsAlterNote       $04
	dc.b	nMaxPSG
	smpsPSGAlterVol     $04
	smpsAlterNote       $04
	dc.b	nMaxPSG
	smpsPSGAlterVol     $03
	smpsAlterNote       $04
	dc.b	nMaxPSG
	smpsPSGAlterVol     $F7
	smpsAlterNote       $00
	dc.b	nMaxPSG
	smpsPSGAlterVol     $02
	smpsAlterNote       $00
	dc.b	nMaxPSG
	smpsPSGAlterVol     $04
	smpsAlterNote       $00
	dc.b	nMaxPSG
	smpsPSGAlterVol     $03
	smpsAlterNote       $00
	dc.b	nMaxPSG
	smpsPSGAlterVol     $F5
	smpsAlterNote       $00
	dc.b	nMaxPSG
	smpsPSGAlterVol     $02
	smpsAlterNote       $00
	dc.b	nMaxPSG
	smpsPSGAlterVol     $02
	smpsAlterNote       $00
	dc.b	nMaxPSG
	smpsPSGAlterVol     $04
	smpsAlterNote       $00
	dc.b	nMaxPSG
	smpsPSGAlterVol     $03
	smpsAlterNote       $00
	dc.b	nMaxPSG
	smpsPSGAlterVol     $F5
	smpsAlterNote       $00
	dc.b	nMaxPSG
	smpsPSGAlterVol     $02
	smpsAlterNote       $00
	dc.b	nMaxPSG
	smpsPSGAlterVol     $02
	smpsAlterNote       $00
	dc.b	nMaxPSG
	smpsPSGAlterVol     $04
	smpsAlterNote       $00
	dc.b	nMaxPSG
	smpsPSGAlterVol     $03
	smpsAlterNote       $00
	dc.b	nMaxPSG, nRst, $05
	smpsPSGAlterVol     $F5
	smpsAlterNote       $FF
	dc.b	nAb5, $01
	smpsPSGAlterVol     $02
	smpsAlterNote       $FF
	dc.b	nAb5
	smpsPSGAlterVol     $02
	smpsAlterNote       $FF
	dc.b	nAb5
	smpsPSGAlterVol     $04
	smpsAlterNote       $FF
	dc.b	nAb5
	smpsPSGAlterVol     $03
	smpsAlterNote       $FF
	dc.b	nAb5
	smpsPSGAlterVol     $F5
	smpsAlterNote       $FF
	dc.b	nAb5
	smpsPSGAlterVol     $02
	smpsAlterNote       $FF
	dc.b	nAb5
	smpsPSGAlterVol     $02
	smpsAlterNote       $FF
	dc.b	nAb5
	smpsPSGAlterVol     $04
	smpsAlterNote       $FF
	dc.b	nAb5
	smpsPSGAlterVol     $03
	smpsAlterNote       $FF
	dc.b	nAb5
	smpsPSGAlterVol     $F5
	smpsAlterNote       $FF
	dc.b	nAb5
	smpsPSGAlterVol     $02
	smpsAlterNote       $FF
	dc.b	nAb5
	smpsPSGAlterVol     $02
	smpsAlterNote       $FF
	dc.b	nAb5
	smpsPSGAlterVol     $04
	smpsAlterNote       $FF
	dc.b	nAb5
	smpsPSGAlterVol     $03
	smpsAlterNote       $FF
	dc.b	nAb5
	smpsPSGAlterVol     $F5
	smpsAlterNote       $04
	dc.b	nMaxPSG
	smpsPSGAlterVol     $02
	smpsAlterNote       $04
	dc.b	nMaxPSG
	smpsPSGAlterVol     $02
	smpsAlterNote       $04
	dc.b	nMaxPSG
	smpsPSGAlterVol     $04
	smpsAlterNote       $04
	dc.b	nMaxPSG
	smpsPSGAlterVol     $03
	smpsAlterNote       $04
	dc.b	nMaxPSG
	smpsPSGAlterVol     $F5
	smpsAlterNote       $FF
	dc.b	nAb5
	smpsPSGAlterVol     $02
	smpsAlterNote       $FF
	dc.b	nAb5
	smpsPSGAlterVol     $02
	smpsAlterNote       $FF
	dc.b	nAb5
	smpsPSGAlterVol     $04
	smpsAlterNote       $FF
	dc.b	nAb5
	smpsPSGAlterVol     $03
	smpsAlterNote       $FF
	dc.b	nAb5
	smpsPSGAlterVol     $F5
	smpsAlterNote       $02
	dc.b	nMaxPSG
	smpsPSGAlterVol     $04
	smpsAlterNote       $02
	dc.b	nMaxPSG
	smpsPSGAlterVol     $04
	smpsAlterNote       $02
	dc.b	nMaxPSG
	smpsPSGAlterVol     $03
	smpsAlterNote       $02
	dc.b	nMaxPSG
	smpsPSGAlterVol     $F5
	smpsAlterNote       $FD
	dc.b	nAb5
	smpsPSGAlterVol     $02
	smpsAlterNote       $FD
	dc.b	nAb5
	smpsPSGAlterVol     $02
	smpsAlterNote       $FD
	dc.b	nAb5
	smpsPSGAlterVol     $04
	smpsAlterNote       $FD
	dc.b	nAb5
	smpsPSGAlterVol     $03
	smpsAlterNote       $FD
	dc.b	nAb5
	smpsPSGAlterVol     $F5
	smpsAlterNote       $FD
	dc.b	nAb5
	smpsPSGAlterVol     $02
	smpsAlterNote       $FD
	dc.b	nAb5
	smpsPSGAlterVol     $02
	smpsAlterNote       $FD
	dc.b	nAb5
	smpsPSGAlterVol     $04
	smpsAlterNote       $FD
	dc.b	nAb5
	smpsPSGAlterVol     $03
	smpsAlterNote       $FD
	dc.b	nAb5
	smpsPSGAlterVol     $F5
	smpsAlterNote       $04
	dc.b	nMaxPSG
	smpsPSGAlterVol     $02
	smpsAlterNote       $04
	dc.b	nMaxPSG
	smpsPSGAlterVol     $02
	smpsAlterNote       $04
	dc.b	nMaxPSG
	smpsPSGAlterVol     $04
	smpsAlterNote       $04
	dc.b	nMaxPSG
	smpsPSGAlterVol     $03
	smpsAlterNote       $04
	dc.b	nMaxPSG
	smpsPSGAlterVol     $F5
	smpsAlterNote       $FF
	dc.b	nAb5
	smpsPSGAlterVol     $02
	smpsAlterNote       $FF
	dc.b	nAb5
	smpsPSGAlterVol     $02
	smpsAlterNote       $FF
	dc.b	nAb5
	smpsPSGAlterVol     $04
	smpsAlterNote       $FF
	dc.b	nAb5
	smpsPSGAlterVol     $03
	smpsAlterNote       $FF
	dc.b	nAb5
	smpsPSGAlterVol     $F5
	smpsAlterNote       $FF
	dc.b	nAb5
	smpsPSGAlterVol     $02
	smpsAlterNote       $FF
	dc.b	nAb5
	smpsPSGAlterVol     $02
	smpsAlterNote       $FF
	dc.b	nAb5
	smpsPSGAlterVol     $04
	smpsAlterNote       $FF
	dc.b	nAb5
	smpsPSGAlterVol     $03
	smpsAlterNote       $FF
	dc.b	nAb5
	smpsPSGAlterVol     $F5
	smpsAlterNote       $04
	dc.b	nMaxPSG
	smpsPSGAlterVol     $02
	smpsAlterNote       $04
	dc.b	nMaxPSG
	smpsPSGAlterVol     $02
	smpsAlterNote       $04
	dc.b	nMaxPSG
	smpsPSGAlterVol     $04
	smpsAlterNote       $04
	dc.b	nMaxPSG
	smpsPSGAlterVol     $03
	smpsAlterNote       $04
	dc.b	nMaxPSG
	smpsPSGAlterVol     $F5
	smpsAlterNote       $FF
	dc.b	nAb5
	smpsPSGAlterVol     $02
	smpsAlterNote       $FF
	dc.b	nAb5
	smpsPSGAlterVol     $02
	smpsAlterNote       $FF
	dc.b	nAb5
	smpsPSGAlterVol     $04
	smpsAlterNote       $FF
	dc.b	nAb5
	smpsPSGAlterVol     $03
	smpsAlterNote       $FF
	dc.b	nAb5
	smpsPSGAlterVol     $F5
	smpsAlterNote       $FF
	dc.b	nAb5
	smpsPSGAlterVol     $02
	smpsAlterNote       $FF
	dc.b	nAb5
	smpsPSGAlterVol     $02
	smpsAlterNote       $FF
	dc.b	nAb5
	smpsPSGAlterVol     $04
	smpsAlterNote       $FF
	dc.b	nAb5
	smpsPSGAlterVol     $03
	smpsAlterNote       $FF
	dc.b	nAb5
	smpsPSGAlterVol     $F5
	smpsAlterNote       $00
	dc.b	nMaxPSG
	smpsPSGAlterVol     $02
	smpsAlterNote       $00
	dc.b	nMaxPSG
	smpsPSGAlterVol     $06
	smpsAlterNote       $00
	dc.b	nMaxPSG
	smpsPSGAlterVol     $03
	smpsAlterNote       $00
	dc.b	nMaxPSG
	smpsPSGAlterVol     $F5
	smpsAlterNote       $04
	dc.b	nMaxPSG
	smpsPSGAlterVol     $02
	smpsAlterNote       $04
	dc.b	nMaxPSG
	smpsPSGAlterVol     $02
	smpsAlterNote       $04
	dc.b	nMaxPSG
	smpsPSGAlterVol     $04
	smpsAlterNote       $04
	dc.b	nMaxPSG
	smpsPSGAlterVol     $03
	smpsAlterNote       $04
	dc.b	nMaxPSG
	smpsPSGAlterVol     $F5
	smpsAlterNote       $04
	dc.b	nMaxPSG
	smpsPSGAlterVol     $02
	smpsAlterNote       $04
	dc.b	nMaxPSG
	smpsPSGAlterVol     $02
	smpsAlterNote       $04
	dc.b	nMaxPSG
	smpsPSGAlterVol     $04
	smpsAlterNote       $04
	dc.b	nMaxPSG
	smpsPSGAlterVol     $03
	smpsAlterNote       $04
	dc.b	nMaxPSG
	smpsPSGAlterVol     $F5
	smpsAlterNote       $04
	dc.b	nMaxPSG
	smpsPSGAlterVol     $02
	smpsAlterNote       $04
	dc.b	nMaxPSG
	smpsPSGAlterVol     $02
	smpsAlterNote       $04
	dc.b	nMaxPSG
	smpsPSGAlterVol     $04
	smpsAlterNote       $04
	dc.b	nMaxPSG
	smpsPSGAlterVol     $03
	smpsAlterNote       $04
	dc.b	nMaxPSG
	smpsPSGAlterVol     $F5
	smpsAlterNote       $00
	dc.b	nMaxPSG
	smpsPSGAlterVol     $02
	smpsAlterNote       $00
	dc.b	nMaxPSG
	smpsPSGAlterVol     $02
	smpsAlterNote       $00
	dc.b	nMaxPSG
	smpsPSGAlterVol     $04
	smpsAlterNote       $00
	dc.b	nMaxPSG
	smpsPSGAlterVol     $03
	smpsAlterNote       $00
	dc.b	nMaxPSG
	smpsPSGAlterVol     $F5
	smpsAlterNote       $04
	dc.b	nMaxPSG
	smpsPSGAlterVol     $02
	smpsAlterNote       $04
	dc.b	nMaxPSG
	smpsPSGAlterVol     $02
	smpsAlterNote       $04
	dc.b	nMaxPSG
	smpsPSGAlterVol     $04
	smpsAlterNote       $04
	dc.b	nMaxPSG
	smpsPSGAlterVol     $03
	smpsAlterNote       $04
	dc.b	nMaxPSG
	smpsPSGAlterVol     $F5
	smpsAlterNote       $04
	dc.b	nMaxPSG
	smpsPSGAlterVol     $02
	smpsAlterNote       $04
	dc.b	nMaxPSG
	smpsPSGAlterVol     $02
	smpsAlterNote       $04
	dc.b	nMaxPSG
	smpsPSGAlterVol     $04
	smpsAlterNote       $04
	dc.b	nMaxPSG
	smpsPSGAlterVol     $03
	smpsAlterNote       $04
	dc.b	nMaxPSG
	smpsPSGAlterVol     $F5
	smpsAlterNote       $00
	dc.b	nMaxPSG
	smpsPSGAlterVol     $02
	smpsAlterNote       $00
	dc.b	nMaxPSG
	smpsPSGAlterVol     $02
	smpsAlterNote       $00
	dc.b	nMaxPSG
	smpsPSGAlterVol     $04
	smpsAlterNote       $00
	dc.b	nMaxPSG
	smpsPSGAlterVol     $03
	smpsAlterNote       $00
	dc.b	nMaxPSG
	smpsPSGAlterVol     $F5
	smpsAlterNote       $04
	dc.b	nMaxPSG
	smpsPSGAlterVol     $02
	smpsAlterNote       $04
	dc.b	nMaxPSG
	smpsPSGAlterVol     $02
	smpsAlterNote       $04
	dc.b	nMaxPSG
	smpsPSGAlterVol     $04
	smpsAlterNote       $04
	dc.b	nMaxPSG
	smpsPSGAlterVol     $03
	smpsAlterNote       $04
	dc.b	nMaxPSG
	smpsPSGAlterVol     $F5
	smpsAlterNote       $04
	dc.b	nMaxPSG
	smpsPSGAlterVol     $02
	smpsAlterNote       $04
	dc.b	nMaxPSG
	smpsPSGAlterVol     $02
	smpsAlterNote       $04
	dc.b	nMaxPSG
	smpsPSGAlterVol     $04
	smpsAlterNote       $04
	dc.b	nMaxPSG
	smpsPSGAlterVol     $F8
	smpsAlterNote       $04
	dc.b	nMaxPSG
	smpsPSGAlterVol     $02
	smpsAlterNote       $04
	dc.b	nMaxPSG
	smpsPSGAlterVol     $02
	smpsAlterNote       $04
	dc.b	nMaxPSG
	smpsPSGAlterVol     $04
	smpsAlterNote       $04
	dc.b	nMaxPSG
	smpsPSGAlterVol     $03
	smpsAlterNote       $04
	dc.b	nMaxPSG
	smpsPSGAlterVol     $F5
	smpsAlterNote       $00
	dc.b	nMaxPSG
	smpsPSGAlterVol     $02
	smpsAlterNote       $00
	dc.b	nMaxPSG
	smpsPSGAlterVol     $02
	smpsAlterNote       $00
	dc.b	nMaxPSG
	smpsPSGAlterVol     $04
	smpsAlterNote       $00
	dc.b	nMaxPSG
	smpsPSGAlterVol     $03
	smpsAlterNote       $00
	dc.b	nMaxPSG
	smpsPSGAlterVol     $F5
	smpsAlterNote       $04
	dc.b	nMaxPSG
	smpsPSGAlterVol     $02
	smpsAlterNote       $04
	dc.b	nMaxPSG
	smpsPSGAlterVol     $02
	smpsAlterNote       $04
	dc.b	nMaxPSG
	smpsPSGAlterVol     $04
	smpsAlterNote       $04
	dc.b	nMaxPSG
	smpsPSGAlterVol     $03
	smpsAlterNote       $04
	dc.b	nMaxPSG
	smpsPSGAlterVol     $F5
	smpsAlterNote       $04
	dc.b	nMaxPSG
	smpsPSGAlterVol     $02
	smpsAlterNote       $04
	dc.b	nMaxPSG
	smpsPSGAlterVol     $02
	smpsAlterNote       $04
	dc.b	nMaxPSG
	smpsPSGAlterVol     $04
	smpsAlterNote       $04
	dc.b	nMaxPSG
	smpsPSGAlterVol     $03
	smpsAlterNote       $04
	dc.b	nMaxPSG
	smpsPSGAlterVol     $F5
	smpsAlterNote       $04
	dc.b	nMaxPSG
	smpsPSGAlterVol     $02
	smpsAlterNote       $04
	dc.b	nMaxPSG
	smpsPSGAlterVol     $02
	smpsAlterNote       $04
	dc.b	nMaxPSG
	smpsPSGAlterVol     $04
	smpsAlterNote       $04
	dc.b	nMaxPSG
	smpsPSGAlterVol     $03
	smpsAlterNote       $04
	dc.b	nMaxPSG
	smpsPSGAlterVol     $F5
	smpsAlterNote       $00
	dc.b	nMaxPSG
	smpsPSGAlterVol     $02
	smpsAlterNote       $00
	dc.b	nMaxPSG
	smpsPSGAlterVol     $02
	smpsAlterNote       $00
	dc.b	nMaxPSG
	smpsPSGAlterVol     $04
	smpsAlterNote       $00
	dc.b	nMaxPSG
	smpsPSGAlterVol     $03
	smpsAlterNote       $00
	dc.b	nMaxPSG
	smpsPSGAlterVol     $F5
	smpsAlterNote       $04
	dc.b	nMaxPSG
	smpsPSGAlterVol     $02
	smpsAlterNote       $04
	dc.b	nMaxPSG
	smpsPSGAlterVol     $02
	smpsAlterNote       $04
	dc.b	nMaxPSG
	smpsPSGAlterVol     $04
	smpsAlterNote       $04
	dc.b	nMaxPSG
	smpsPSGAlterVol     $03
	smpsAlterNote       $04
	dc.b	nMaxPSG
	smpsPSGAlterVol     $F5
	smpsAlterNote       $04
	dc.b	nMaxPSG
	smpsPSGAlterVol     $02
	smpsAlterNote       $04
	dc.b	nMaxPSG
	smpsPSGAlterVol     $02
	smpsAlterNote       $04
	dc.b	nMaxPSG
	smpsPSGAlterVol     $04
	smpsAlterNote       $04
	dc.b	nMaxPSG
	smpsPSGAlterVol     $03
	smpsAlterNote       $04
	dc.b	nMaxPSG
	smpsPSGAlterVol     $F5
	smpsAlterNote       $00
	dc.b	nMaxPSG
	smpsPSGAlterVol     $02
	smpsAlterNote       $00
	dc.b	nMaxPSG
	smpsPSGAlterVol     $02
	smpsAlterNote       $00
	dc.b	nMaxPSG
	smpsPSGAlterVol     $04
	smpsAlterNote       $00
	dc.b	nMaxPSG
	smpsPSGAlterVol     $03
	smpsAlterNote       $00
	dc.b	nMaxPSG
	smpsPSGAlterVol     $F7
	smpsAlterNote       $04
	dc.b	nMaxPSG
	smpsPSGAlterVol     $02
	smpsAlterNote       $04
	dc.b	nMaxPSG
	smpsPSGAlterVol     $04
	smpsAlterNote       $04
	dc.b	nMaxPSG
	smpsPSGAlterVol     $03
	smpsAlterNote       $04
	dc.b	nMaxPSG
	smpsPSGAlterVol     $F5
	smpsAlterNote       $04
	dc.b	nMaxPSG
	smpsPSGAlterVol     $02
	smpsAlterNote       $04
	dc.b	nMaxPSG
	smpsPSGAlterVol     $02
	smpsAlterNote       $04
	dc.b	nMaxPSG
	smpsPSGAlterVol     $04
	smpsAlterNote       $04
	dc.b	nMaxPSG
	smpsPSGAlterVol     $03
	smpsAlterNote       $04
	dc.b	nMaxPSG
	smpsPSGAlterVol     $F5
	smpsAlterNote       $00
	dc.b	nMaxPSG
	smpsPSGAlterVol     $02
	smpsAlterNote       $00
	dc.b	nMaxPSG
	smpsPSGAlterVol     $02
	smpsAlterNote       $00
	dc.b	nMaxPSG
	smpsPSGAlterVol     $04
	smpsAlterNote       $00
	dc.b	nMaxPSG
	smpsPSGAlterVol     $03
	smpsAlterNote       $00
	dc.b	nMaxPSG
	smpsPSGAlterVol     $F5
	smpsAlterNote       $04
	dc.b	nMaxPSG
	smpsPSGAlterVol     $02
	smpsAlterNote       $04
	dc.b	nMaxPSG
	smpsPSGAlterVol     $02
	smpsAlterNote       $04
	dc.b	nMaxPSG
	smpsPSGAlterVol     $04
	smpsAlterNote       $04
	dc.b	nMaxPSG
	smpsPSGAlterVol     $03
	smpsAlterNote       $04
	dc.b	nMaxPSG
	smpsPSGAlterVol     $F5
	smpsAlterNote       $00
	dc.b	nMaxPSG
	smpsPSGAlterVol     $02
	smpsAlterNote       $00
	dc.b	nMaxPSG
	smpsPSGAlterVol     $02
	smpsAlterNote       $00
	dc.b	nMaxPSG
	smpsPSGAlterVol     $04
	smpsAlterNote       $00
	dc.b	nMaxPSG
	smpsPSGAlterVol     $03
	smpsAlterNote       $00
	dc.b	nMaxPSG
	smpsPSGAlterVol     $F5
	smpsAlterNote       $00
	dc.b	nMaxPSG
	smpsPSGAlterVol     $02
	smpsAlterNote       $00
	dc.b	nMaxPSG
	smpsPSGAlterVol     $02
	smpsAlterNote       $00
	dc.b	nMaxPSG
	smpsPSGAlterVol     $04
	smpsAlterNote       $00
	dc.b	nMaxPSG
	smpsPSGAlterVol     $03
	smpsAlterNote       $00
	dc.b	nMaxPSG
	smpsPSGAlterVol     $F5
	smpsAlterNote       $00
	dc.b	nMaxPSG
	smpsPSGAlterVol     $02
	smpsAlterNote       $00
	dc.b	nMaxPSG
	smpsPSGAlterVol     $02
	smpsAlterNote       $00
	dc.b	nMaxPSG
	smpsPSGAlterVol     $04
	smpsAlterNote       $00
	dc.b	nMaxPSG
	smpsPSGAlterVol     $03
	smpsAlterNote       $00
	dc.b	nMaxPSG, nRst, $05
	smpsPSGAlterVol     $F5
	smpsAlterNote       $00
	dc.b	nMaxPSG, $01
	smpsPSGAlterVol     $02
	smpsAlterNote       $00
	dc.b	nMaxPSG
	smpsPSGAlterVol     $02
	smpsAlterNote       $00
	dc.b	nMaxPSG
	smpsPSGAlterVol     $04
	smpsAlterNote       $00
	dc.b	nMaxPSG
	smpsPSGAlterVol     $03
	smpsAlterNote       $00
	dc.b	nMaxPSG
	smpsPSGAlterVol     $F5
	smpsAlterNote       $04
	dc.b	nMaxPSG
	smpsPSGAlterVol     $04
	smpsAlterNote       $04
	dc.b	nMaxPSG
	smpsPSGAlterVol     $04
	smpsAlterNote       $04
	dc.b	nMaxPSG
	smpsPSGAlterVol     $03
	smpsAlterNote       $04
	dc.b	nMaxPSG
	smpsPSGAlterVol     $F5
	smpsAlterNote       $04
	dc.b	nMaxPSG
	smpsPSGAlterVol     $02
	smpsAlterNote       $04
	dc.b	nMaxPSG
	smpsPSGAlterVol     $02
	smpsAlterNote       $04
	dc.b	nMaxPSG
	smpsPSGAlterVol     $04
	smpsAlterNote       $04
	dc.b	nMaxPSG
	smpsPSGAlterVol     $03
	smpsAlterNote       $04
	dc.b	nMaxPSG
	smpsPSGAlterVol     $F5
	smpsAlterNote       $00
	dc.b	nMaxPSG
	smpsPSGAlterVol     $02
	smpsAlterNote       $00
	dc.b	nMaxPSG
	smpsPSGAlterVol     $02
	smpsAlterNote       $00
	dc.b	nMaxPSG
	smpsPSGAlterVol     $04
	smpsAlterNote       $00
	dc.b	nMaxPSG
	smpsPSGAlterVol     $03
	smpsAlterNote       $00
	dc.b	nMaxPSG
	smpsPSGAlterVol     $F5
	smpsAlterNote       $04
	dc.b	nMaxPSG
	smpsPSGAlterVol     $02
	smpsAlterNote       $04
	dc.b	nMaxPSG
	smpsPSGAlterVol     $02
	smpsAlterNote       $04
	dc.b	nMaxPSG
	smpsPSGAlterVol     $04
	smpsAlterNote       $04
	dc.b	nMaxPSG
	smpsPSGAlterVol     $03
	smpsAlterNote       $04
	dc.b	nMaxPSG
	smpsPSGAlterVol     $F5
	smpsAlterNote       $04
	dc.b	nMaxPSG
	smpsPSGAlterVol     $02
	smpsAlterNote       $04
	dc.b	nMaxPSG
	smpsPSGAlterVol     $02
	smpsAlterNote       $04
	dc.b	nMaxPSG
	smpsPSGAlterVol     $04
	smpsAlterNote       $04
	dc.b	nMaxPSG
	smpsPSGAlterVol     $03
	smpsAlterNote       $04
	dc.b	nMaxPSG
	smpsPSGAlterVol     $F5
	smpsAlterNote       $00
	dc.b	nMaxPSG
	smpsPSGAlterVol     $02
	smpsAlterNote       $00
	dc.b	nMaxPSG
	smpsPSGAlterVol     $02
	smpsAlterNote       $00
	dc.b	nMaxPSG
	smpsPSGAlterVol     $04
	smpsAlterNote       $00
	dc.b	nMaxPSG
	smpsPSGAlterVol     $03
	smpsAlterNote       $00
	dc.b	nMaxPSG
	smpsPSGAlterVol     $F5
	smpsAlterNote       $04
	dc.b	nMaxPSG
	smpsPSGAlterVol     $02
	smpsAlterNote       $04
	dc.b	nMaxPSG
	smpsPSGAlterVol     $02
	smpsAlterNote       $04
	dc.b	nMaxPSG
	smpsPSGAlterVol     $04
	smpsAlterNote       $04
	dc.b	nMaxPSG
	smpsPSGAlterVol     $03
	smpsAlterNote       $04
	dc.b	nMaxPSG
	smpsPSGAlterVol     $F5
	smpsAlterNote       $04
	dc.b	nMaxPSG
	smpsPSGAlterVol     $02
	smpsAlterNote       $04
	dc.b	nMaxPSG
	smpsPSGAlterVol     $02
	smpsAlterNote       $04
	dc.b	nMaxPSG
	smpsPSGAlterVol     $04
	smpsAlterNote       $04
	dc.b	nMaxPSG
	smpsPSGAlterVol     $03
	smpsAlterNote       $04
	dc.b	nMaxPSG
	smpsPSGAlterVol     $F5
	smpsAlterNote       $00
	dc.b	nMaxPSG
	smpsPSGAlterVol     $02
	smpsAlterNote       $00
	dc.b	nMaxPSG
	smpsPSGAlterVol     $02
	smpsAlterNote       $00
	dc.b	nMaxPSG
	smpsPSGAlterVol     $04
	smpsAlterNote       $00
	dc.b	nMaxPSG
	smpsPSGAlterVol     $03
	smpsAlterNote       $00
	dc.b	nMaxPSG
	smpsPSGAlterVol     $F5
	smpsAlterNote       $04
	dc.b	nMaxPSG
	smpsPSGAlterVol     $02
	smpsAlterNote       $04
	dc.b	nMaxPSG
	smpsPSGAlterVol     $02
	smpsAlterNote       $04
	dc.b	nMaxPSG
	smpsPSGAlterVol     $07
	smpsAlterNote       $04
	dc.b	nMaxPSG
	smpsPSGAlterVol     $F5
	smpsAlterNote       $04
	dc.b	nMaxPSG
	smpsPSGAlterVol     $02
	smpsAlterNote       $04
	dc.b	nMaxPSG
	smpsPSGAlterVol     $02
	smpsAlterNote       $04
	dc.b	nMaxPSG
	smpsPSGAlterVol     $04
	smpsAlterNote       $04
	dc.b	nMaxPSG
	smpsPSGAlterVol     $03
	smpsAlterNote       $04
	dc.b	nMaxPSG
	smpsPSGAlterVol     $F5
	smpsAlterNote       $04
	dc.b	nMaxPSG
	smpsPSGAlterVol     $02
	smpsAlterNote       $04
	dc.b	nMaxPSG
	smpsPSGAlterVol     $02
	smpsAlterNote       $04
	dc.b	nMaxPSG
	smpsPSGAlterVol     $04
	smpsAlterNote       $04
	dc.b	nMaxPSG
	smpsPSGAlterVol     $03
	smpsAlterNote       $04
	dc.b	nMaxPSG
	smpsPSGAlterVol     $F5
	smpsAlterNote       $04
	dc.b	nMaxPSG
	smpsPSGAlterVol     $02
	smpsAlterNote       $04
	dc.b	nMaxPSG
	smpsPSGAlterVol     $02
	smpsAlterNote       $04
	dc.b	nMaxPSG
	smpsPSGAlterVol     $04
	smpsAlterNote       $04
	dc.b	nMaxPSG
	smpsPSGAlterVol     $03
	smpsAlterNote       $04
	dc.b	nMaxPSG
	smpsPSGAlterVol     $F5
	smpsAlterNote       $00
	dc.b	nMaxPSG
	smpsPSGAlterVol     $02
	smpsAlterNote       $00
	dc.b	nMaxPSG
	smpsPSGAlterVol     $02
	smpsAlterNote       $00
	dc.b	nMaxPSG
	smpsPSGAlterVol     $04
	smpsAlterNote       $00
	dc.b	nMaxPSG
	smpsPSGAlterVol     $03
	smpsAlterNote       $00
	dc.b	nMaxPSG
	smpsPSGAlterVol     $F5
	smpsAlterNote       $00
	dc.b	nMaxPSG
	smpsPSGAlterVol     $02
	smpsAlterNote       $00
	dc.b	nMaxPSG
	smpsPSGAlterVol     $02
	smpsAlterNote       $00
	dc.b	nMaxPSG
	smpsPSGAlterVol     $04
	smpsAlterNote       $00
	dc.b	nMaxPSG
	smpsPSGAlterVol     $03
	smpsAlterNote       $00
	dc.b	nMaxPSG
	smpsPSGAlterVol     $F5
	smpsAlterNote       $00
	dc.b	nMaxPSG
	smpsPSGAlterVol     $02
	smpsAlterNote       $00
	dc.b	nMaxPSG
	smpsPSGAlterVol     $02
	smpsAlterNote       $00
	dc.b	nMaxPSG
	smpsPSGAlterVol     $04
	smpsAlterNote       $00
	dc.b	nMaxPSG
	smpsPSGAlterVol     $03
	smpsAlterNote       $00
	dc.b	nMaxPSG
	smpsPSGAlterVol     $F5
	smpsAlterNote       $04
	dc.b	nMaxPSG
	smpsPSGAlterVol     $02
	smpsAlterNote       $04
	dc.b	nMaxPSG
	smpsPSGAlterVol     $02
	smpsAlterNote       $04
	dc.b	nMaxPSG
	smpsPSGAlterVol     $04
	smpsAlterNote       $04
	dc.b	nMaxPSG
	smpsPSGAlterVol     $03
	smpsAlterNote       $04
	dc.b	nMaxPSG
	smpsPSGAlterVol     $F5
	smpsAlterNote       $00
	dc.b	nMaxPSG
	smpsPSGAlterVol     $02
	smpsAlterNote       $00
	dc.b	nMaxPSG
	smpsPSGAlterVol     $02
	smpsAlterNote       $00
	dc.b	nMaxPSG
	smpsPSGAlterVol     $04
	smpsAlterNote       $00
	dc.b	nMaxPSG
	smpsPSGAlterVol     $03
	smpsAlterNote       $00
	dc.b	nMaxPSG
	smpsPSGAlterVol     $F5
	smpsAlterNote       $04
	dc.b	nMaxPSG
	smpsPSGAlterVol     $02
	smpsAlterNote       $04
	dc.b	nMaxPSG
	smpsPSGAlterVol     $02
	smpsAlterNote       $04
	dc.b	nMaxPSG
	smpsPSGAlterVol     $04
	smpsAlterNote       $04
	dc.b	nMaxPSG
	smpsPSGAlterVol     $F8
	smpsAlterNote       $00
	dc.b	nMaxPSG
	smpsPSGAlterVol     $02
	smpsAlterNote       $00
	dc.b	nMaxPSG
	smpsPSGAlterVol     $02
	smpsAlterNote       $00
	dc.b	nMaxPSG
	smpsPSGAlterVol     $04
	smpsAlterNote       $00
	dc.b	nMaxPSG
	smpsPSGAlterVol     $03
	smpsAlterNote       $00
	dc.b	nMaxPSG
	smpsPSGAlterVol     $F5
	smpsAlterNote       $04
	dc.b	nMaxPSG
	smpsPSGAlterVol     $02
	smpsAlterNote       $04
	dc.b	nMaxPSG
	smpsPSGAlterVol     $02
	smpsAlterNote       $04
	dc.b	nMaxPSG
	smpsPSGAlterVol     $04
	smpsAlterNote       $04
	dc.b	nMaxPSG
	smpsPSGAlterVol     $03
	smpsAlterNote       $04
	dc.b	nMaxPSG
	smpsPSGAlterVol     $F5
	smpsAlterNote       $00
	dc.b	nMaxPSG
	smpsPSGAlterVol     $02
	smpsAlterNote       $00
	dc.b	nMaxPSG
	smpsPSGAlterVol     $02
	smpsAlterNote       $00
	dc.b	nMaxPSG
	smpsPSGAlterVol     $04
	smpsAlterNote       $00
	dc.b	nMaxPSG
	smpsPSGAlterVol     $03
	smpsAlterNote       $00
	dc.b	nMaxPSG
	smpsPSGAlterVol     $F5
	smpsAlterNote       $04
	dc.b	nMaxPSG
	smpsPSGAlterVol     $02
	smpsAlterNote       $04
	dc.b	nMaxPSG
	smpsPSGAlterVol     $02
	smpsAlterNote       $04
	dc.b	nMaxPSG
	smpsPSGAlterVol     $04
	smpsAlterNote       $04
	dc.b	nMaxPSG
	smpsPSGAlterVol     $03
	smpsAlterNote       $04
	dc.b	nMaxPSG
	smpsPSGAlterVol     $F5
	smpsAlterNote       $00
	dc.b	nMaxPSG
	smpsPSGAlterVol     $02
	smpsAlterNote       $00
	dc.b	nMaxPSG
	smpsPSGAlterVol     $02
	smpsAlterNote       $00
	dc.b	nMaxPSG
	smpsPSGAlterVol     $04
	smpsAlterNote       $00
	dc.b	nMaxPSG
	smpsPSGAlterVol     $03
	smpsAlterNote       $00
	dc.b	nMaxPSG
	smpsPSGAlterVol     $F5
	smpsAlterNote       $00
	dc.b	nMaxPSG
	smpsPSGAlterVol     $02
	smpsAlterNote       $00
	dc.b	nMaxPSG
	smpsPSGAlterVol     $02
	smpsAlterNote       $00
	dc.b	nMaxPSG
	smpsPSGAlterVol     $04
	smpsAlterNote       $00
	dc.b	nMaxPSG
	smpsPSGAlterVol     $03
	smpsAlterNote       $00
	dc.b	nMaxPSG
	smpsPSGAlterVol     $F5
	smpsAlterNote       $00
	dc.b	nMaxPSG
	smpsPSGAlterVol     $02
	smpsAlterNote       $00
	dc.b	nMaxPSG
	smpsPSGAlterVol     $02
	smpsAlterNote       $00
	dc.b	nMaxPSG
	smpsPSGAlterVol     $04
	smpsAlterNote       $00
	dc.b	nMaxPSG
	smpsPSGAlterVol     $03
	smpsAlterNote       $00
	dc.b	nMaxPSG
	smpsPSGAlterVol     $F5
	smpsAlterNote       $00
	dc.b	nMaxPSG
	smpsPSGAlterVol     $02
	smpsAlterNote       $00
	dc.b	nMaxPSG
	smpsPSGAlterVol     $02
	smpsAlterNote       $00
	dc.b	nMaxPSG
	smpsPSGAlterVol     $04
	smpsAlterNote       $00
	dc.b	nMaxPSG
	smpsPSGAlterVol     $03
	smpsAlterNote       $00
	dc.b	nMaxPSG
	smpsPSGAlterVol     $F5
	smpsAlterNote       $04
	dc.b	nMaxPSG
	smpsPSGAlterVol     $02
	smpsAlterNote       $04
	dc.b	nMaxPSG
	smpsPSGAlterVol     $02
	smpsAlterNote       $04
	dc.b	nMaxPSG
	smpsPSGAlterVol     $04
	smpsAlterNote       $04
	dc.b	nMaxPSG
	smpsPSGAlterVol     $03
	smpsAlterNote       $04
	dc.b	nMaxPSG
	smpsPSGAlterVol     $F7
	smpsAlterNote       $00
	dc.b	nMaxPSG
	smpsPSGAlterVol     $02
	smpsAlterNote       $00
	dc.b	nMaxPSG
	smpsPSGAlterVol     $04
	smpsAlterNote       $00
	dc.b	nMaxPSG
	smpsPSGAlterVol     $03
	smpsAlterNote       $00
	dc.b	nMaxPSG
	smpsPSGAlterVol     $F5
	smpsAlterNote       $04
	dc.b	nMaxPSG
	smpsPSGAlterVol     $02
	smpsAlterNote       $04
	dc.b	nMaxPSG
	smpsPSGAlterVol     $02
	smpsAlterNote       $04
	dc.b	nMaxPSG
	smpsPSGAlterVol     $04
	smpsAlterNote       $04
	dc.b	nMaxPSG
	smpsPSGAlterVol     $03
	smpsAlterNote       $04
	dc.b	nMaxPSG
	smpsPSGAlterVol     $F5
	smpsAlterNote       $00
	dc.b	nMaxPSG
	smpsPSGAlterVol     $02
	smpsAlterNote       $00
	dc.b	nMaxPSG
	smpsPSGAlterVol     $02
	smpsAlterNote       $00
	dc.b	nMaxPSG
	smpsPSGAlterVol     $04
	smpsAlterNote       $00
	dc.b	nMaxPSG
	smpsPSGAlterVol     $03
	smpsAlterNote       $00
	dc.b	nMaxPSG
	smpsPSGAlterVol     $F5
	smpsAlterNote       $04
	dc.b	nMaxPSG
	smpsPSGAlterVol     $02
	smpsAlterNote       $04
	dc.b	nMaxPSG
	smpsPSGAlterVol     $02
	smpsAlterNote       $04
	dc.b	nMaxPSG
	smpsPSGAlterVol     $04
	smpsAlterNote       $04
	dc.b	nMaxPSG
	smpsPSGAlterVol     $03
	smpsAlterNote       $04
	dc.b	nMaxPSG
	smpsPSGAlterVol     $F5
	smpsAlterNote       $04
	dc.b	nMaxPSG
	smpsPSGAlterVol     $02
	smpsAlterNote       $04
	dc.b	nMaxPSG
	smpsPSGAlterVol     $02
	smpsAlterNote       $04
	dc.b	nMaxPSG
	smpsPSGAlterVol     $04
	smpsAlterNote       $04
	dc.b	nMaxPSG
	smpsPSGAlterVol     $03
	smpsAlterNote       $04
	dc.b	nMaxPSG
	smpsPSGAlterVol     $F5
	smpsAlterNote       $04
	dc.b	nMaxPSG
	smpsPSGAlterVol     $02
	smpsAlterNote       $04
	dc.b	nMaxPSG
	smpsPSGAlterVol     $02
	smpsAlterNote       $04
	dc.b	nMaxPSG
	smpsPSGAlterVol     $04
	smpsAlterNote       $04
	dc.b	nMaxPSG
	smpsPSGAlterVol     $03
	smpsAlterNote       $04
	dc.b	nMaxPSG
	smpsPSGAlterVol     $F5
	smpsAlterNote       $00
	dc.b	nMaxPSG
	smpsPSGAlterVol     $02
	smpsAlterNote       $00
	dc.b	nMaxPSG
	smpsPSGAlterVol     $02
	smpsAlterNote       $00
	dc.b	nMaxPSG
	smpsPSGAlterVol     $04
	smpsAlterNote       $00
	dc.b	nMaxPSG
	smpsPSGAlterVol     $03
	smpsAlterNote       $00
	dc.b	nMaxPSG
	smpsPSGAlterVol     $F5
	smpsAlterNote       $04
	dc.b	nMaxPSG
	smpsPSGAlterVol     $02
	smpsAlterNote       $04
	dc.b	nMaxPSG
	smpsPSGAlterVol     $02
	smpsAlterNote       $04
	dc.b	nMaxPSG
	smpsPSGAlterVol     $04
	smpsAlterNote       $04
	dc.b	nMaxPSG
	smpsPSGAlterVol     $03
	smpsAlterNote       $04
	dc.b	nMaxPSG
	smpsPSGAlterVol     $F5
	smpsAlterNote       $04
	dc.b	nMaxPSG
	smpsPSGAlterVol     $02
	smpsAlterNote       $04
	dc.b	nMaxPSG
	smpsPSGAlterVol     $02
	smpsAlterNote       $04
	dc.b	nMaxPSG
	smpsPSGAlterVol     $04
	smpsAlterNote       $04
	dc.b	nMaxPSG
	smpsPSGAlterVol     $03
	smpsAlterNote       $04
	dc.b	nMaxPSG
	smpsPSGAlterVol     $F5
	smpsAlterNote       $04
	dc.b	nMaxPSG
	smpsPSGAlterVol     $02
	smpsAlterNote       $04
	dc.b	nMaxPSG
	smpsPSGAlterVol     $06
	smpsAlterNote       $04
	dc.b	nMaxPSG
	smpsPSGAlterVol     $03
	smpsAlterNote       $04
	dc.b	nMaxPSG
	smpsPSGAlterVol     $F5
	smpsAlterNote       $00
	dc.b	nMaxPSG
	smpsPSGAlterVol     $02
	smpsAlterNote       $00
	dc.b	nMaxPSG
	smpsPSGAlterVol     $02
	smpsAlterNote       $00
	dc.b	nMaxPSG
	smpsPSGAlterVol     $04
	smpsAlterNote       $00
	dc.b	nMaxPSG
	smpsPSGAlterVol     $03
	smpsAlterNote       $00
	dc.b	nMaxPSG
	smpsPSGAlterVol     $F5
	smpsAlterNote       $04
	dc.b	nMaxPSG
	smpsPSGAlterVol     $02
	smpsAlterNote       $04
	dc.b	nMaxPSG
	smpsPSGAlterVol     $02
	smpsAlterNote       $04
	dc.b	nMaxPSG
	smpsPSGAlterVol     $04
	smpsAlterNote       $04
	dc.b	nMaxPSG
	smpsPSGAlterVol     $03
	smpsAlterNote       $04
	dc.b	nMaxPSG
	smpsPSGAlterVol     $F5
	smpsAlterNote       $04
	dc.b	nMaxPSG
	smpsPSGAlterVol     $02
	smpsAlterNote       $04
	dc.b	nMaxPSG
	smpsPSGAlterVol     $02
	smpsAlterNote       $04
	dc.b	nMaxPSG
	smpsPSGAlterVol     $04
	smpsAlterNote       $04
	dc.b	nMaxPSG
	smpsPSGAlterVol     $03
	smpsAlterNote       $04
	dc.b	nMaxPSG
	smpsPSGAlterVol     $F5
	smpsAlterNote       $00
	dc.b	nMaxPSG
	smpsPSGAlterVol     $02
	smpsAlterNote       $00
	dc.b	nMaxPSG
	smpsPSGAlterVol     $02
	smpsAlterNote       $00
	dc.b	nMaxPSG
	smpsPSGAlterVol     $04
	smpsAlterNote       $00
	dc.b	nMaxPSG
	smpsPSGAlterVol     $03
	smpsAlterNote       $00
	dc.b	nMaxPSG
	smpsPSGAlterVol     $F5
	smpsAlterNote       $04
	dc.b	nMaxPSG
	smpsPSGAlterVol     $02
	smpsAlterNote       $04
	dc.b	nMaxPSG
	smpsPSGAlterVol     $02
	smpsAlterNote       $04
	dc.b	nMaxPSG
	smpsPSGAlterVol     $04
	smpsAlterNote       $04
	dc.b	nMaxPSG
	smpsPSGAlterVol     $03
	smpsAlterNote       $04
	dc.b	nMaxPSG
	smpsPSGAlterVol     $F5
	smpsAlterNote       $00
	dc.b	nMaxPSG
	smpsPSGAlterVol     $02
	smpsAlterNote       $00
	dc.b	nMaxPSG
	smpsPSGAlterVol     $02
	smpsAlterNote       $00
	dc.b	nMaxPSG
	smpsPSGAlterVol     $04
	smpsAlterNote       $00
	dc.b	nMaxPSG
	smpsPSGAlterVol     $03
	smpsAlterNote       $00
	dc.b	nMaxPSG
	smpsPSGAlterVol     $F5
	smpsAlterNote       $04
	dc.b	nMaxPSG
	smpsPSGAlterVol     $02
	smpsAlterNote       $04
	dc.b	nMaxPSG
	smpsPSGAlterVol     $02
	smpsAlterNote       $04
	dc.b	nMaxPSG
	smpsPSGAlterVol     $04
	smpsAlterNote       $04
	dc.b	nMaxPSG
	smpsPSGAlterVol     $03
	smpsAlterNote       $04
	dc.b	nMaxPSG
	smpsPSGAlterVol     $F5
	smpsAlterNote       $00
	dc.b	nMaxPSG
	smpsPSGAlterVol     $02
	smpsAlterNote       $00
	dc.b	nMaxPSG
	smpsPSGAlterVol     $02
	smpsAlterNote       $00
	dc.b	nMaxPSG
	smpsPSGAlterVol     $04
	smpsAlterNote       $00
	dc.b	nMaxPSG
	smpsPSGAlterVol     $03
	smpsAlterNote       $00
	dc.b	nMaxPSG
	smpsPSGAlterVol     $F5
	smpsAlterNote       $04
	dc.b	nMaxPSG
	smpsPSGAlterVol     $02
	smpsAlterNote       $04
	dc.b	nMaxPSG
	smpsPSGAlterVol     $02
	smpsAlterNote       $04
	dc.b	nMaxPSG
	smpsPSGAlterVol     $07
	smpsAlterNote       $04
	dc.b	nMaxPSG
	smpsPSGAlterVol     $F5
	smpsAlterNote       $04
	dc.b	nMaxPSG
	smpsPSGAlterVol     $02
	smpsAlterNote       $04
	dc.b	nMaxPSG
	smpsPSGAlterVol     $02
	smpsAlterNote       $04
	dc.b	nMaxPSG
	smpsPSGAlterVol     $04
	smpsAlterNote       $04
	dc.b	nMaxPSG
	smpsPSGAlterVol     $03
	smpsAlterNote       $04
	dc.b	nMaxPSG
	smpsPSGAlterVol     $F5
	smpsAlterNote       $04
	dc.b	nMaxPSG
	smpsPSGAlterVol     $02
	smpsAlterNote       $04
	dc.b	nMaxPSG
	smpsPSGAlterVol     $02
	smpsAlterNote       $04
	dc.b	nMaxPSG
	smpsPSGAlterVol     $04
	smpsAlterNote       $04
	dc.b	nMaxPSG
	smpsPSGAlterVol     $03
	smpsAlterNote       $04
	dc.b	nMaxPSG
	smpsPSGAlterVol     $F5
	smpsAlterNote       $04
	dc.b	nMaxPSG
	smpsPSGAlterVol     $02
	smpsAlterNote       $04
	dc.b	nMaxPSG
	smpsPSGAlterVol     $02
	smpsAlterNote       $04
	dc.b	nMaxPSG
	smpsPSGAlterVol     $04
	smpsAlterNote       $04
	dc.b	nMaxPSG
	smpsPSGAlterVol     $03
	smpsAlterNote       $04
	dc.b	nMaxPSG
	smpsPSGAlterVol     $F5
	smpsAlterNote       $00
	dc.b	nMaxPSG
	smpsPSGAlterVol     $02
	smpsAlterNote       $00
	dc.b	nMaxPSG
	smpsPSGAlterVol     $02
	smpsAlterNote       $00
	dc.b	nMaxPSG
	smpsPSGAlterVol     $04
	smpsAlterNote       $00
	dc.b	nMaxPSG
	smpsPSGAlterVol     $03
	smpsAlterNote       $00
	dc.b	nMaxPSG
	smpsPSGAlterVol     $F5
	smpsAlterNote       $00
	dc.b	nMaxPSG
	smpsPSGAlterVol     $02
	smpsAlterNote       $00
	dc.b	nMaxPSG
	smpsPSGAlterVol     $02
	smpsAlterNote       $00
	dc.b	nMaxPSG
	smpsPSGAlterVol     $04
	smpsAlterNote       $00
	dc.b	nMaxPSG
	smpsPSGAlterVol     $03
	smpsAlterNote       $00
	dc.b	nMaxPSG
	smpsPSGAlterVol     $F5
	smpsAlterNote       $04
	dc.b	nMaxPSG
	smpsPSGAlterVol     $02
	smpsAlterNote       $04
	dc.b	nMaxPSG
	smpsPSGAlterVol     $02
	smpsAlterNote       $04
	dc.b	nMaxPSG
	smpsPSGAlterVol     $04
	smpsAlterNote       $04
	dc.b	nMaxPSG
	smpsPSGAlterVol     $03
	smpsAlterNote       $04
	dc.b	nMaxPSG
	smpsPSGAlterVol     $F5
	smpsAlterNote       $04
	dc.b	nMaxPSG
	smpsPSGAlterVol     $02
	smpsAlterNote       $04
	dc.b	nMaxPSG
	smpsPSGAlterVol     $02
	smpsAlterNote       $04
	dc.b	nMaxPSG
	smpsPSGAlterVol     $04
	smpsAlterNote       $04
	dc.b	nMaxPSG
	smpsPSGAlterVol     $03
	smpsAlterNote       $04
	dc.b	nMaxPSG
	smpsPSGAlterVol     $F5
	smpsAlterNote       $04
	dc.b	nMaxPSG
	smpsPSGAlterVol     $02
	smpsAlterNote       $04
	dc.b	nMaxPSG
	smpsPSGAlterVol     $02
	smpsAlterNote       $04
	dc.b	nMaxPSG
	smpsPSGAlterVol     $04
	smpsAlterNote       $04
	dc.b	nMaxPSG
	smpsPSGAlterVol     $03
	smpsAlterNote       $04
	dc.b	nMaxPSG
	smpsPSGAlterVol     $F5
	smpsAlterNote       $00
	dc.b	nMaxPSG
	smpsPSGAlterVol     $02
	smpsAlterNote       $00
	dc.b	nMaxPSG
	smpsPSGAlterVol     $02
	smpsAlterNote       $00
	dc.b	nMaxPSG
	smpsPSGAlterVol     $04
	smpsAlterNote       $00
	dc.b	nMaxPSG
	smpsPSGAlterVol     $F8
	smpsAlterNote       $04
	dc.b	nMaxPSG
	smpsPSGAlterVol     $02
	smpsAlterNote       $04
	dc.b	nMaxPSG
	smpsPSGAlterVol     $02
	smpsAlterNote       $04
	dc.b	nMaxPSG
	smpsPSGAlterVol     $04
	smpsAlterNote       $04
	dc.b	nMaxPSG
	smpsPSGAlterVol     $03
	smpsAlterNote       $04
	dc.b	nMaxPSG
	smpsPSGAlterVol     $F5
	smpsAlterNote       $00
	dc.b	nMaxPSG
	smpsPSGAlterVol     $02
	smpsAlterNote       $00
	dc.b	nMaxPSG
	smpsPSGAlterVol     $02
	smpsAlterNote       $00
	dc.b	nMaxPSG
	smpsPSGAlterVol     $04
	smpsAlterNote       $00
	dc.b	nMaxPSG
	smpsPSGAlterVol     $03
	smpsAlterNote       $00
	dc.b	nMaxPSG
	smpsPSGAlterVol     $F5
	smpsAlterNote       $04
	dc.b	nMaxPSG
	smpsPSGAlterVol     $02
	smpsAlterNote       $04
	dc.b	nMaxPSG
	smpsPSGAlterVol     $02
	smpsAlterNote       $04
	dc.b	nMaxPSG
	smpsPSGAlterVol     $04
	smpsAlterNote       $04
	dc.b	nMaxPSG
	smpsPSGAlterVol     $03
	smpsAlterNote       $04
	dc.b	nMaxPSG
	smpsPSGAlterVol     $F5
	smpsAlterNote       $04
	dc.b	nMaxPSG
	smpsPSGAlterVol     $02
	smpsAlterNote       $04
	dc.b	nMaxPSG
	smpsPSGAlterVol     $02
	smpsAlterNote       $04
	dc.b	nMaxPSG
	smpsPSGAlterVol     $04
	smpsAlterNote       $04
	dc.b	nMaxPSG
	smpsPSGAlterVol     $03
	smpsAlterNote       $04
	dc.b	nMaxPSG
	smpsPSGAlterVol     $F5
	smpsAlterNote       $00
	dc.b	nMaxPSG
	smpsPSGAlterVol     $02
	smpsAlterNote       $00
	dc.b	nMaxPSG
	smpsPSGAlterVol     $02
	smpsAlterNote       $00
	dc.b	nMaxPSG
	smpsPSGAlterVol     $04
	smpsAlterNote       $00
	dc.b	nMaxPSG
	smpsPSGAlterVol     $03
	smpsAlterNote       $00
	dc.b	nMaxPSG
	smpsPSGAlterVol     $F5
	smpsAlterNote       $04
	dc.b	nMaxPSG
	smpsPSGAlterVol     $02
	smpsAlterNote       $04
	dc.b	nMaxPSG
	smpsPSGAlterVol     $02
	smpsAlterNote       $04
	dc.b	nMaxPSG
	smpsPSGAlterVol     $04
	smpsAlterNote       $04
	dc.b	nMaxPSG
	smpsPSGAlterVol     $03
	smpsAlterNote       $04
	dc.b	nMaxPSG
	smpsPSGAlterVol     $F5
	smpsAlterNote       $00
	dc.b	nMaxPSG
	smpsPSGAlterVol     $02
	smpsAlterNote       $00
	dc.b	nMaxPSG
	smpsPSGAlterVol     $02
	smpsAlterNote       $00
	dc.b	nMaxPSG
	smpsPSGAlterVol     $04
	smpsAlterNote       $00
	dc.b	nMaxPSG
	smpsPSGAlterVol     $03
	smpsAlterNote       $00
	dc.b	nMaxPSG
	smpsPSGAlterVol     $F5
	smpsAlterNote       $04
	dc.b	nMaxPSG
	smpsPSGAlterVol     $02
	smpsAlterNote       $04
	dc.b	nMaxPSG
	smpsPSGAlterVol     $02
	smpsAlterNote       $04
	dc.b	nMaxPSG
	smpsPSGAlterVol     $04
	smpsAlterNote       $04
	dc.b	nMaxPSG
	smpsPSGAlterVol     $03
	smpsAlterNote       $04
	dc.b	nMaxPSG
	smpsPSGAlterVol     $F5
	smpsAlterNote       $00
	dc.b	nMaxPSG
	smpsPSGAlterVol     $02
	smpsAlterNote       $00
	dc.b	nMaxPSG
	smpsPSGAlterVol     $02
	smpsAlterNote       $00
	dc.b	nMaxPSG
	smpsPSGAlterVol     $04
	smpsAlterNote       $00
	dc.b	nMaxPSG
	smpsPSGAlterVol     $03
	smpsAlterNote       $00
	dc.b	nMaxPSG
	smpsPSGAlterVol     $F5
	smpsAlterNote       $04
	dc.b	nMaxPSG
	smpsPSGAlterVol     $04
	smpsAlterNote       $04
	dc.b	nMaxPSG
	smpsPSGAlterVol     $04
	smpsAlterNote       $04
	dc.b	nMaxPSG
	smpsPSGAlterVol     $03
	smpsAlterNote       $04
	dc.b	nMaxPSG
	smpsPSGAlterVol     $F5
	smpsAlterNote       $00
	dc.b	nMaxPSG
	smpsPSGAlterVol     $02
	smpsAlterNote       $00
	dc.b	nMaxPSG
	smpsPSGAlterVol     $02
	smpsAlterNote       $00
	dc.b	nMaxPSG
	smpsPSGAlterVol     $04
	smpsAlterNote       $00
	dc.b	nMaxPSG
	smpsPSGAlterVol     $03
	smpsAlterNote       $00
	dc.b	nMaxPSG
	smpsPSGAlterVol     $F5
	smpsAlterNote       $04
	dc.b	nMaxPSG
	smpsPSGAlterVol     $02
	smpsAlterNote       $04
	dc.b	nMaxPSG
	smpsPSGAlterVol     $02
	smpsAlterNote       $04
	dc.b	nMaxPSG
	smpsPSGAlterVol     $04
	smpsAlterNote       $04
	dc.b	nMaxPSG
	smpsPSGAlterVol     $03
	smpsAlterNote       $04
	dc.b	nMaxPSG
	smpsPSGAlterVol     $F5
	smpsAlterNote       $04
	dc.b	nMaxPSG
	smpsPSGAlterVol     $02
	smpsAlterNote       $04
	dc.b	nMaxPSG
	smpsPSGAlterVol     $02
	smpsAlterNote       $04
	dc.b	nMaxPSG
	smpsPSGAlterVol     $04
	smpsAlterNote       $04
	dc.b	nMaxPSG
	smpsPSGAlterVol     $03
	smpsAlterNote       $04
	dc.b	nMaxPSG
	smpsPSGAlterVol     $F5
	smpsAlterNote       $00
	dc.b	nMaxPSG
	smpsPSGAlterVol     $02
	smpsAlterNote       $00
	dc.b	nMaxPSG
	smpsPSGAlterVol     $02
	smpsAlterNote       $00
	dc.b	nMaxPSG
	smpsPSGAlterVol     $04
	smpsAlterNote       $00
	dc.b	nMaxPSG
	smpsPSGAlterVol     $03
	smpsAlterNote       $00
	dc.b	nMaxPSG
	smpsPSGAlterVol     $F5
	smpsAlterNote       $04
	dc.b	nMaxPSG
	smpsPSGAlterVol     $02
	smpsAlterNote       $04
	dc.b	nMaxPSG
	smpsPSGAlterVol     $02
	smpsAlterNote       $04
	dc.b	nMaxPSG
	smpsPSGAlterVol     $04
	smpsAlterNote       $04
	dc.b	nMaxPSG
	smpsPSGAlterVol     $03
	smpsAlterNote       $04
	dc.b	nMaxPSG
	smpsPSGAlterVol     $F5
	smpsAlterNote       $00
	dc.b	nMaxPSG
	smpsPSGAlterVol     $02
	smpsAlterNote       $00
	dc.b	nMaxPSG
	smpsPSGAlterVol     $02
	smpsAlterNote       $00
	dc.b	nMaxPSG
	smpsPSGAlterVol     $04
	smpsAlterNote       $00
	dc.b	nMaxPSG
	smpsPSGAlterVol     $03
	smpsAlterNote       $00
	dc.b	nMaxPSG
	smpsPSGAlterVol     $F5
	smpsAlterNote       $04
	dc.b	nMaxPSG
	smpsPSGAlterVol     $02
	smpsAlterNote       $04
	dc.b	nMaxPSG
	smpsPSGAlterVol     $02
	smpsAlterNote       $04
	dc.b	nMaxPSG
	smpsPSGAlterVol     $04
	smpsAlterNote       $04
	dc.b	nMaxPSG
	smpsPSGAlterVol     $03
	smpsAlterNote       $04
	dc.b	nMaxPSG
	smpsPSGAlterVol     $F5
	smpsAlterNote       $04
	dc.b	nMaxPSG
	smpsPSGAlterVol     $02
	smpsAlterNote       $04
	dc.b	nMaxPSG
	smpsPSGAlterVol     $02
	smpsAlterNote       $04
	dc.b	nMaxPSG
	smpsPSGAlterVol     $04
	smpsAlterNote       $04
	dc.b	nMaxPSG
	smpsPSGAlterVol     $03
	smpsAlterNote       $04
	dc.b	nMaxPSG
	smpsPSGAlterVol     $F5
	smpsAlterNote       $00
	dc.b	nMaxPSG
	smpsPSGAlterVol     $02
	smpsAlterNote       $00
	dc.b	nMaxPSG
	smpsPSGAlterVol     $06
	smpsAlterNote       $00
	dc.b	nMaxPSG
	smpsPSGAlterVol     $03
	smpsAlterNote       $00
	dc.b	nMaxPSG
	smpsPSGAlterVol     $F5
	smpsAlterNote       $04
	dc.b	nMaxPSG
	smpsPSGAlterVol     $02
	smpsAlterNote       $04
	dc.b	nMaxPSG
	smpsPSGAlterVol     $02
	smpsAlterNote       $04
	dc.b	nMaxPSG
	smpsPSGAlterVol     $04
	smpsAlterNote       $04
	dc.b	nMaxPSG
	smpsPSGAlterVol     $03
	smpsAlterNote       $04
	dc.b	nMaxPSG
	smpsPSGAlterVol     $F5
	smpsAlterNote       $00
	dc.b	nMaxPSG
	smpsPSGAlterVol     $02
	smpsAlterNote       $00
	dc.b	nMaxPSG
	smpsPSGAlterVol     $02
	smpsAlterNote       $00
	dc.b	nMaxPSG
	smpsPSGAlterVol     $04
	smpsAlterNote       $00
	dc.b	nMaxPSG
	smpsPSGAlterVol     $03
	smpsAlterNote       $00
	dc.b	nMaxPSG
	smpsPSGAlterVol     $F5
	smpsAlterNote       $04
	dc.b	nMaxPSG
	smpsPSGAlterVol     $02
	smpsAlterNote       $04
	dc.b	nMaxPSG
	smpsPSGAlterVol     $02
	smpsAlterNote       $04
	dc.b	nMaxPSG
	smpsPSGAlterVol     $04
	smpsAlterNote       $04
	dc.b	nMaxPSG
	smpsPSGAlterVol     $03
	smpsAlterNote       $04
	dc.b	nMaxPSG
	smpsPSGAlterVol     $F5
	smpsAlterNote       $04
	dc.b	nMaxPSG
	smpsPSGAlterVol     $02
	smpsAlterNote       $04
	dc.b	nMaxPSG
	smpsPSGAlterVol     $02
	smpsAlterNote       $04
	dc.b	nMaxPSG
	smpsPSGAlterVol     $04
	smpsAlterNote       $04
	dc.b	nMaxPSG
	smpsPSGAlterVol     $03
	smpsAlterNote       $04
	dc.b	nMaxPSG
	smpsPSGAlterVol     $F5
	smpsAlterNote       $00
	dc.b	nMaxPSG
	smpsPSGAlterVol     $02
	smpsAlterNote       $00
	dc.b	nMaxPSG
	smpsPSGAlterVol     $02
	smpsAlterNote       $00
	dc.b	nMaxPSG
	smpsPSGAlterVol     $04
	smpsAlterNote       $00
	dc.b	nMaxPSG
	smpsPSGAlterVol     $03
	smpsAlterNote       $00
	dc.b	nMaxPSG
	smpsPSGAlterVol     $F5
	smpsAlterNote       $04
	dc.b	nMaxPSG
	smpsPSGAlterVol     $02
	smpsAlterNote       $04
	dc.b	nMaxPSG
	smpsPSGAlterVol     $02
	smpsAlterNote       $04
	dc.b	nMaxPSG
	smpsPSGAlterVol     $04
	smpsAlterNote       $04
	dc.b	nMaxPSG
	smpsPSGAlterVol     $03
	smpsAlterNote       $04
	dc.b	nMaxPSG
	smpsPSGAlterVol     $F5
	smpsAlterNote       $00
	dc.b	nMaxPSG
	smpsPSGAlterVol     $02
	smpsAlterNote       $00
	dc.b	nMaxPSG
	smpsPSGAlterVol     $02
	smpsAlterNote       $00
	dc.b	nMaxPSG
	smpsPSGAlterVol     $04
	smpsAlterNote       $00
	dc.b	nMaxPSG
	smpsPSGAlterVol     $03
	smpsAlterNote       $00
	dc.b	nMaxPSG
	smpsPSGAlterVol     $F5
	smpsAlterNote       $04
	dc.b	nMaxPSG
	smpsPSGAlterVol     $02
	smpsAlterNote       $04
	dc.b	nMaxPSG
	smpsPSGAlterVol     $02
	smpsAlterNote       $04
	dc.b	nMaxPSG
	smpsPSGAlterVol     $04
	smpsAlterNote       $04
	dc.b	nMaxPSG
	smpsPSGAlterVol     $03
	smpsAlterNote       $04
	dc.b	nMaxPSG
	smpsPSGAlterVol     $F5
	smpsAlterNote       $04
	dc.b	nMaxPSG
	smpsPSGAlterVol     $02
	smpsAlterNote       $04
	dc.b	nMaxPSG
	smpsPSGAlterVol     $02
	smpsAlterNote       $04
	dc.b	nMaxPSG
	smpsPSGAlterVol     $07
	smpsAlterNote       $04
	dc.b	nMaxPSG
	smpsPSGAlterVol     $F5
	smpsAlterNote       $00
	dc.b	nMaxPSG
	smpsPSGAlterVol     $02
	smpsAlterNote       $00
	dc.b	nMaxPSG
	smpsPSGAlterVol     $02
	smpsAlterNote       $00
	dc.b	nMaxPSG
	smpsPSGAlterVol     $04
	smpsAlterNote       $00
	dc.b	nMaxPSG
	smpsPSGAlterVol     $03
	smpsAlterNote       $00
	dc.b	nMaxPSG
	smpsPSGAlterVol     $F5
	smpsAlterNote       $04
	dc.b	nMaxPSG
	smpsPSGAlterVol     $02
	smpsAlterNote       $04
	dc.b	nMaxPSG
	smpsPSGAlterVol     $02
	smpsAlterNote       $04
	dc.b	nMaxPSG
	smpsPSGAlterVol     $04
	smpsAlterNote       $04
	dc.b	nMaxPSG
	smpsPSGAlterVol     $03
	smpsAlterNote       $04
	dc.b	nMaxPSG
	smpsPSGAlterVol     $F5
	smpsAlterNote       $00
	dc.b	nMaxPSG
	smpsPSGAlterVol     $02
	smpsAlterNote       $00
	dc.b	nMaxPSG
	smpsPSGAlterVol     $02
	smpsAlterNote       $00
	dc.b	nMaxPSG
	smpsPSGAlterVol     $04
	smpsAlterNote       $00
	dc.b	nMaxPSG
	smpsPSGAlterVol     $03
	smpsAlterNote       $00
	dc.b	nMaxPSG
	smpsPSGAlterVol     $F5
	smpsAlterNote       $04
	dc.b	nMaxPSG
	smpsPSGAlterVol     $02
	smpsAlterNote       $04
	dc.b	nMaxPSG
	smpsPSGAlterVol     $02
	smpsAlterNote       $04
	dc.b	nMaxPSG
	smpsPSGAlterVol     $04
	smpsAlterNote       $04
	dc.b	nMaxPSG
	smpsPSGAlterVol     $03
	smpsAlterNote       $04
	dc.b	nMaxPSG
	smpsPSGAlterVol     $F5
	smpsAlterNote       $00
	dc.b	nMaxPSG
	smpsPSGAlterVol     $02
	smpsAlterNote       $00
	dc.b	nMaxPSG
	smpsPSGAlterVol     $02
	smpsAlterNote       $00
	dc.b	nMaxPSG
	smpsPSGAlterVol     $04
	smpsAlterNote       $00
	dc.b	nMaxPSG
	smpsPSGAlterVol     $03
	smpsAlterNote       $00
	dc.b	nMaxPSG
	smpsPSGAlterVol     $F5
	smpsAlterNote       $00
	dc.b	nMaxPSG
	smpsPSGAlterVol     $02
	smpsAlterNote       $00
	dc.b	nMaxPSG
	smpsPSGAlterVol     $02
	smpsAlterNote       $00
	dc.b	nMaxPSG
	smpsPSGAlterVol     $04
	smpsAlterNote       $00
	dc.b	nMaxPSG
	smpsPSGAlterVol     $03
	smpsAlterNote       $00
	dc.b	nMaxPSG
	smpsPSGAlterVol     $F5
	smpsAlterNote       $04
	dc.b	nMaxPSG
	smpsPSGAlterVol     $02
	smpsAlterNote       $04
	dc.b	nMaxPSG
	smpsPSGAlterVol     $02
	smpsAlterNote       $04
	dc.b	nMaxPSG
	smpsPSGAlterVol     $04
	smpsAlterNote       $04
	dc.b	nMaxPSG
	smpsPSGAlterVol     $03
	smpsAlterNote       $04
	dc.b	nMaxPSG
	smpsPSGAlterVol     $F5
	smpsAlterNote       $00
	dc.b	nMaxPSG
	smpsPSGAlterVol     $02
	smpsAlterNote       $00
	dc.b	nMaxPSG
	smpsPSGAlterVol     $02
	smpsAlterNote       $00
	dc.b	nMaxPSG
	smpsPSGAlterVol     $04
	smpsAlterNote       $00
	dc.b	nMaxPSG
	smpsPSGAlterVol     $03
	smpsAlterNote       $00
	dc.b	nMaxPSG
	smpsPSGAlterVol     $F5
	smpsAlterNote       $04
	dc.b	nMaxPSG
	smpsPSGAlterVol     $02
	smpsAlterNote       $04
	dc.b	nMaxPSG
	smpsPSGAlterVol     $02
	smpsAlterNote       $04
	dc.b	nMaxPSG
	smpsPSGAlterVol     $04
	smpsAlterNote       $04
	dc.b	nMaxPSG
	smpsPSGAlterVol     $03
	smpsAlterNote       $04
	dc.b	nMaxPSG
	smpsPSGAlterVol     $F7
	smpsAlterNote       $00
	dc.b	nMaxPSG
	smpsPSGAlterVol     $02
	smpsAlterNote       $00
	dc.b	nMaxPSG
	smpsPSGAlterVol     $04
	smpsAlterNote       $00
	dc.b	nMaxPSG
	smpsPSGAlterVol     $03
	smpsAlterNote       $00
	dc.b	nMaxPSG
	smpsPSGAlterVol     $F5
	smpsAlterNote       $04
	dc.b	nMaxPSG
	smpsPSGAlterVol     $02
	smpsAlterNote       $04
	dc.b	nMaxPSG
	smpsPSGAlterVol     $02
	smpsAlterNote       $04
	dc.b	nMaxPSG
	smpsPSGAlterVol     $04
	smpsAlterNote       $04
	dc.b	nMaxPSG
	smpsPSGAlterVol     $03
	smpsAlterNote       $04
	dc.b	nMaxPSG
	smpsPSGAlterVol     $F5
	smpsAlterNote       $00
	dc.b	nMaxPSG
	smpsPSGAlterVol     $02
	smpsAlterNote       $00
	dc.b	nMaxPSG
	smpsPSGAlterVol     $02
	smpsAlterNote       $00
	dc.b	nMaxPSG
	smpsPSGAlterVol     $04
	smpsAlterNote       $00
	dc.b	nMaxPSG
	smpsPSGAlterVol     $03
	smpsAlterNote       $00
	dc.b	nMaxPSG
	smpsPSGAlterVol     $F5
	smpsAlterNote       $04
	dc.b	nMaxPSG
	smpsPSGAlterVol     $02
	smpsAlterNote       $04
	dc.b	nMaxPSG
	smpsPSGAlterVol     $02
	smpsAlterNote       $04
	dc.b	nMaxPSG
	smpsPSGAlterVol     $04
	smpsAlterNote       $04
	dc.b	nMaxPSG
	smpsPSGAlterVol     $03
	smpsAlterNote       $04
	dc.b	nMaxPSG
	smpsPSGAlterVol     $F5
	smpsAlterNote       $04
	dc.b	nMaxPSG
	smpsPSGAlterVol     $02
	smpsAlterNote       $04
	dc.b	nMaxPSG
	smpsPSGAlterVol     $02
	smpsAlterNote       $04
	dc.b	nMaxPSG
	smpsPSGAlterVol     $04
	smpsAlterNote       $04
	dc.b	nMaxPSG
	smpsPSGAlterVol     $03
	smpsAlterNote       $04
	dc.b	nMaxPSG
	smpsPSGAlterVol     $F5
	smpsAlterNote       $04
	dc.b	nMaxPSG
	smpsPSGAlterVol     $02
	smpsAlterNote       $04
	dc.b	nMaxPSG
	smpsPSGAlterVol     $02
	smpsAlterNote       $04
	dc.b	nMaxPSG
	smpsPSGAlterVol     $04
	smpsAlterNote       $04
	dc.b	nMaxPSG
	smpsPSGAlterVol     $03
	smpsAlterNote       $04
	dc.b	nMaxPSG
	smpsPSGAlterVol     $F5
	smpsAlterNote       $04
	dc.b	nMaxPSG
	smpsPSGAlterVol     $02
	smpsAlterNote       $04
	dc.b	nMaxPSG
	smpsPSGAlterVol     $02
	smpsAlterNote       $04
	dc.b	nMaxPSG
	smpsPSGAlterVol     $04
	smpsAlterNote       $04
	dc.b	nMaxPSG
	smpsPSGAlterVol     $03
	smpsAlterNote       $04
	dc.b	nMaxPSG, nRst, $05
	smpsPSGAlterVol     $F5
	smpsAlterNote       $00
	dc.b	nMaxPSG, $01
	smpsPSGAlterVol     $02
	smpsAlterNote       $00
	dc.b	nMaxPSG
	smpsPSGAlterVol     $02
	smpsAlterNote       $00
	dc.b	nMaxPSG
	smpsPSGAlterVol     $04
	smpsAlterNote       $00
	dc.b	nMaxPSG
	smpsPSGAlterVol     $03
	smpsAlterNote       $00
	dc.b	nMaxPSG
	smpsPSGAlterVol     $F5
	smpsAlterNote       $04
	dc.b	nMaxPSG
	smpsPSGAlterVol     $04
	smpsAlterNote       $04
	dc.b	nMaxPSG
	smpsPSGAlterVol     $04
	smpsAlterNote       $04
	dc.b	nMaxPSG
	smpsPSGAlterVol     $03
	smpsAlterNote       $04
	dc.b	nMaxPSG
	smpsPSGAlterVol     $F5
	smpsAlterNote       $00
	dc.b	nMaxPSG
	smpsPSGAlterVol     $02
	smpsAlterNote       $00
	dc.b	nMaxPSG
	smpsPSGAlterVol     $02
	smpsAlterNote       $00
	dc.b	nMaxPSG
	smpsPSGAlterVol     $04
	smpsAlterNote       $00
	dc.b	nMaxPSG
	smpsPSGAlterVol     $03
	smpsAlterNote       $00
	dc.b	nMaxPSG
	smpsPSGAlterVol     $F5
	smpsAlterNote       $04
	dc.b	nMaxPSG
	smpsPSGAlterVol     $02
	smpsAlterNote       $04
	dc.b	nMaxPSG
	smpsPSGAlterVol     $02
	smpsAlterNote       $04
	dc.b	nMaxPSG
	smpsPSGAlterVol     $04
	smpsAlterNote       $04
	dc.b	nMaxPSG
	smpsPSGAlterVol     $03
	smpsAlterNote       $04
	dc.b	nMaxPSG
	smpsPSGAlterVol     $F5
	smpsAlterNote       $00
	dc.b	nMaxPSG
	smpsPSGAlterVol     $02
	smpsAlterNote       $00
	dc.b	nMaxPSG
	smpsPSGAlterVol     $02
	smpsAlterNote       $00
	dc.b	nMaxPSG
	smpsPSGAlterVol     $04
	smpsAlterNote       $00
	dc.b	nMaxPSG
	smpsPSGAlterVol     $03
	smpsAlterNote       $00
	dc.b	nMaxPSG
	smpsPSGAlterVol     $F5
	smpsAlterNote       $04
	dc.b	nMaxPSG
	smpsPSGAlterVol     $02
	smpsAlterNote       $04
	dc.b	nMaxPSG
	smpsPSGAlterVol     $02
	smpsAlterNote       $04
	dc.b	nMaxPSG
	smpsPSGAlterVol     $04
	smpsAlterNote       $04
	dc.b	nMaxPSG
	smpsPSGAlterVol     $03
	smpsAlterNote       $04
	dc.b	nMaxPSG
	smpsPSGAlterVol     $F5
	smpsAlterNote       $00
	dc.b	nMaxPSG
	smpsPSGAlterVol     $02
	smpsAlterNote       $00
	dc.b	nMaxPSG
	smpsPSGAlterVol     $02
	smpsAlterNote       $00
	dc.b	nMaxPSG
	smpsPSGAlterVol     $04
	smpsAlterNote       $00
	dc.b	nMaxPSG
	smpsPSGAlterVol     $03
	smpsAlterNote       $00
	dc.b	nMaxPSG
	smpsPSGAlterVol     $F5
	smpsAlterNote       $04
	dc.b	nMaxPSG
	smpsPSGAlterVol     $02
	smpsAlterNote       $04
	dc.b	nMaxPSG
	smpsPSGAlterVol     $02
	smpsAlterNote       $04
	dc.b	nMaxPSG
	smpsPSGAlterVol     $04
	smpsAlterNote       $04
	dc.b	nMaxPSG
	smpsPSGAlterVol     $03
	smpsAlterNote       $04
	dc.b	nMaxPSG
	smpsPSGAlterVol     $F5
	smpsAlterNote       $00
	dc.b	nMaxPSG
	smpsPSGAlterVol     $02
	smpsAlterNote       $00
	dc.b	nMaxPSG
	smpsPSGAlterVol     $02
	smpsAlterNote       $00
	dc.b	nMaxPSG
	smpsPSGAlterVol     $04
	smpsAlterNote       $00
	dc.b	nMaxPSG
	smpsPSGAlterVol     $03
	smpsAlterNote       $00
	dc.b	nMaxPSG
	smpsPSGAlterVol     $F5
	smpsAlterNote       $04
	dc.b	nMaxPSG
	smpsPSGAlterVol     $02
	smpsAlterNote       $04
	dc.b	nMaxPSG
	smpsPSGAlterVol     $02
	smpsAlterNote       $04
	dc.b	nMaxPSG
	smpsPSGAlterVol     $04
	smpsAlterNote       $04
	dc.b	nMaxPSG
	smpsPSGAlterVol     $03
	smpsAlterNote       $04
	dc.b	nMaxPSG
	smpsPSGAlterVol     $F5
	smpsAlterNote       $00
	dc.b	nMaxPSG
	smpsPSGAlterVol     $02
	smpsAlterNote       $00
	dc.b	nMaxPSG
	smpsPSGAlterVol     $06
	smpsAlterNote       $00
	dc.b	nMaxPSG
	smpsPSGAlterVol     $03
	smpsAlterNote       $00
	dc.b	nMaxPSG
	smpsPSGAlterVol     $F5
	smpsAlterNote       $04
	dc.b	nMaxPSG
	smpsPSGAlterVol     $02
	smpsAlterNote       $04
	dc.b	nMaxPSG
	smpsPSGAlterVol     $02
	smpsAlterNote       $04
	dc.b	nMaxPSG
	smpsPSGAlterVol     $04
	smpsAlterNote       $04
	dc.b	nMaxPSG
	smpsPSGAlterVol     $03
	smpsAlterNote       $04
	dc.b	nMaxPSG
	smpsPSGAlterVol     $F5
	smpsAlterNote       $00
	dc.b	nMaxPSG
	smpsPSGAlterVol     $02
	smpsAlterNote       $00
	dc.b	nMaxPSG
	smpsPSGAlterVol     $02
	smpsAlterNote       $00
	dc.b	nMaxPSG
	smpsPSGAlterVol     $04
	smpsAlterNote       $00
	dc.b	nMaxPSG
	smpsPSGAlterVol     $03
	smpsAlterNote       $00
	dc.b	nMaxPSG, nRst, $05
	smpsPSGAlterVol     $F5
	smpsAlterNote       $04
	dc.b	nMaxPSG, $01
	smpsPSGAlterVol     $02
	smpsAlterNote       $04
	dc.b	nMaxPSG
	smpsPSGAlterVol     $02
	smpsAlterNote       $04
	dc.b	nMaxPSG
	smpsPSGAlterVol     $04
	smpsAlterNote       $04
	dc.b	nMaxPSG
	smpsPSGAlterVol     $03
	smpsAlterNote       $04
	dc.b	nMaxPSG, nRst, $05
	smpsPSGAlterVol     $F5
	smpsAlterNote       $00
	dc.b	nMaxPSG, $01
	smpsPSGAlterVol     $02
	smpsAlterNote       $00
	dc.b	nMaxPSG
	smpsPSGAlterVol     $02
	smpsAlterNote       $00
	dc.b	nMaxPSG
	smpsPSGAlterVol     $04
	smpsAlterNote       $00
	dc.b	nMaxPSG
	smpsPSGAlterVol     $03
	smpsAlterNote       $00
	dc.b	nMaxPSG, nRst, $05
	smpsPSGAlterVol     $F5
	smpsAlterNote       $04
	dc.b	nMaxPSG, $01
	smpsPSGAlterVol     $02
	smpsAlterNote       $04
	dc.b	nMaxPSG
	smpsPSGAlterVol     $02
	smpsAlterNote       $04
	dc.b	nMaxPSG
	smpsPSGAlterVol     $04
	smpsAlterNote       $04
	dc.b	nMaxPSG
	smpsPSGAlterVol     $03
	smpsAlterNote       $04
	dc.b	nMaxPSG, nRst, $04
	smpsPSGAlterVol     $F5
	smpsAlterNote       $00
	dc.b	nMaxPSG, $01
	smpsPSGAlterVol     $02
	smpsAlterNote       $00
	dc.b	nMaxPSG
	smpsPSGAlterVol     $02
	smpsAlterNote       $00
	dc.b	nMaxPSG
	smpsPSGAlterVol     $04
	smpsAlterNote       $00
	dc.b	nMaxPSG
	smpsPSGAlterVol     $03
	smpsAlterNote       $00
	dc.b	nMaxPSG
	smpsPSGAlterVol     $F5
	smpsAlterNote       $04
	dc.b	nMaxPSG
	smpsPSGAlterVol     $02
	smpsAlterNote       $04
	dc.b	nMaxPSG
	smpsPSGAlterVol     $02
	smpsAlterNote       $04
	dc.b	nMaxPSG
	smpsPSGAlterVol     $04
	smpsAlterNote       $04
	dc.b	nMaxPSG
	smpsPSGAlterVol     $03
	smpsAlterNote       $04
	dc.b	nMaxPSG
	smpsPSGAlterVol     $F5
	smpsAlterNote       $00
	dc.b	nMaxPSG
	smpsPSGAlterVol     $02
	smpsAlterNote       $00
	dc.b	nMaxPSG
	smpsPSGAlterVol     $02
	smpsAlterNote       $00
	dc.b	nMaxPSG
	smpsPSGAlterVol     $04
	smpsAlterNote       $00
	dc.b	nMaxPSG
	smpsPSGAlterVol     $03
	smpsAlterNote       $00
	dc.b	nMaxPSG
	smpsPSGAlterVol     $F5
	smpsAlterNote       $04
	dc.b	nMaxPSG
	smpsPSGAlterVol     $02
	smpsAlterNote       $04
	dc.b	nMaxPSG
	smpsPSGAlterVol     $02
	smpsAlterNote       $04
	dc.b	nMaxPSG
	smpsPSGAlterVol     $04
	smpsAlterNote       $04
	dc.b	nMaxPSG
	smpsPSGAlterVol     $03
	smpsAlterNote       $04
	dc.b	nMaxPSG
	smpsPSGAlterVol     $F5
	smpsAlterNote       $00
	dc.b	nMaxPSG
	smpsPSGAlterVol     $02
	smpsAlterNote       $00
	dc.b	nMaxPSG
	smpsPSGAlterVol     $02
	smpsAlterNote       $00
	dc.b	nMaxPSG
	smpsPSGAlterVol     $04
	smpsAlterNote       $00
	dc.b	nMaxPSG
	smpsPSGAlterVol     $03
	smpsAlterNote       $00
	dc.b	nMaxPSG
	smpsPSGAlterVol     $F5
	smpsAlterNote       $04
	dc.b	nMaxPSG
	smpsPSGAlterVol     $02
	smpsAlterNote       $04
	dc.b	nMaxPSG
	smpsPSGAlterVol     $02
	smpsAlterNote       $04
	dc.b	nMaxPSG
	smpsPSGAlterVol     $04
	smpsAlterNote       $04
	dc.b	nMaxPSG
	smpsPSGAlterVol     $03
	smpsAlterNote       $04
	dc.b	nMaxPSG
	smpsPSGAlterVol     $F5
	smpsAlterNote       $00
	dc.b	nMaxPSG
	smpsPSGAlterVol     $02
	smpsAlterNote       $00
	dc.b	nMaxPSG
	smpsPSGAlterVol     $02
	smpsAlterNote       $00
	dc.b	nMaxPSG
	smpsPSGAlterVol     $04
	smpsAlterNote       $00
	dc.b	nMaxPSG
	smpsPSGAlterVol     $03
	smpsAlterNote       $00
	dc.b	nMaxPSG, nRst, $05
	smpsPSGAlterVol     $F5
	smpsAlterNote       $04
	dc.b	nMaxPSG, $01
	smpsPSGAlterVol     $02
	smpsAlterNote       $04
	dc.b	nMaxPSG
	smpsPSGAlterVol     $02
	smpsAlterNote       $04
	dc.b	nMaxPSG
	smpsPSGAlterVol     $04
	smpsAlterNote       $04
	dc.b	nMaxPSG
	smpsPSGAlterVol     $03
	smpsAlterNote       $04
	dc.b	nMaxPSG, nRst, $04
	smpsPSGAlterVol     $F5
	smpsAlterNote       $00
	dc.b	nMaxPSG, $01
	smpsPSGAlterVol     $02
	smpsAlterNote       $00
	dc.b	nMaxPSG
	smpsPSGAlterVol     $02
	smpsAlterNote       $00
	dc.b	nMaxPSG
	smpsPSGAlterVol     $04
	smpsAlterNote       $00
	dc.b	nMaxPSG
	smpsPSGAlterVol     $03
	smpsAlterNote       $00
	dc.b	nMaxPSG, nRst, $05
	smpsPSGAlterVol     $F5
	smpsAlterNote       $04
	dc.b	nMaxPSG, $01
	smpsPSGAlterVol     $02
	smpsAlterNote       $04
	dc.b	nMaxPSG
	smpsPSGAlterVol     $02
	smpsAlterNote       $04
	dc.b	nMaxPSG
	smpsPSGAlterVol     $04
	smpsAlterNote       $04
	dc.b	nMaxPSG
	smpsPSGAlterVol     $03
	smpsAlterNote       $04
	dc.b	nMaxPSG, nRst, $05
	smpsPSGAlterVol     $F5
	smpsAlterNote       $00
	dc.b	nMaxPSG, $01
	smpsPSGAlterVol     $02
	smpsAlterNote       $00
	dc.b	nMaxPSG
	smpsPSGAlterVol     $02
	smpsAlterNote       $00
	dc.b	nMaxPSG
	smpsPSGAlterVol     $04
	smpsAlterNote       $00
	dc.b	nMaxPSG
	smpsPSGAlterVol     $03
	smpsAlterNote       $00
	dc.b	nMaxPSG, nRst, $05
	smpsPSGAlterVol     $F5
	smpsAlterNote       $04
	dc.b	nMaxPSG, $01
	smpsPSGAlterVol     $02
	smpsAlterNote       $04
	dc.b	nMaxPSG
	smpsPSGAlterVol     $02
	smpsAlterNote       $04
	dc.b	nMaxPSG
	smpsPSGAlterVol     $04
	smpsAlterNote       $04
	dc.b	nMaxPSG
	smpsPSGAlterVol     $03
	smpsAlterNote       $04
	dc.b	nMaxPSG, nRst, $05
	smpsPSGAlterVol     $F5
	smpsAlterNote       $00
	dc.b	nMaxPSG, $01
	smpsPSGAlterVol     $04
	smpsAlterNote       $00
	dc.b	nMaxPSG
	smpsPSGAlterVol     $04
	smpsAlterNote       $00
	dc.b	nMaxPSG
	smpsPSGAlterVol     $03
	smpsAlterNote       $00
	dc.b	nMaxPSG, nRst, $05
	smpsPSGAlterVol     $F5
	smpsAlterNote       $04
	dc.b	nMaxPSG, $01
	smpsPSGAlterVol     $02
	smpsAlterNote       $04
	dc.b	nMaxPSG
	smpsPSGAlterVol     $02
	smpsAlterNote       $04
	dc.b	nMaxPSG
	smpsPSGAlterVol     $04
	smpsAlterNote       $04
	dc.b	nMaxPSG
	smpsPSGAlterVol     $03
	smpsAlterNote       $04
	dc.b	nMaxPSG, nRst, $05
	smpsPSGAlterVol     $F5
	smpsAlterNote       $00
	dc.b	nMaxPSG, $01
	smpsPSGAlterVol     $02
	smpsAlterNote       $00
	dc.b	nMaxPSG
	smpsPSGAlterVol     $02
	smpsAlterNote       $00
	dc.b	nMaxPSG
	smpsPSGAlterVol     $04
	smpsAlterNote       $00
	dc.b	nMaxPSG
	smpsPSGAlterVol     $03
	smpsAlterNote       $00
	dc.b	nMaxPSG, nRst, $05
	smpsPSGAlterVol     $F5
	smpsAlterNote       $04
	dc.b	nMaxPSG, $01
	smpsPSGAlterVol     $02
	smpsAlterNote       $04
	dc.b	nMaxPSG
	smpsPSGAlterVol     $02
	smpsAlterNote       $04
	dc.b	nMaxPSG
	smpsPSGAlterVol     $04
	smpsAlterNote       $04
	dc.b	nMaxPSG
	smpsPSGAlterVol     $03
	smpsAlterNote       $04
	dc.b	nMaxPSG, nRst, $05
	smpsPSGAlterVol     $F5
	smpsAlterNote       $04
	dc.b	nMaxPSG, $01
	smpsPSGAlterVol     $02
	smpsAlterNote       $04
	dc.b	nMaxPSG
	smpsPSGAlterVol     $02
	smpsAlterNote       $04
	dc.b	nMaxPSG
	smpsPSGAlterVol     $04
	smpsAlterNote       $04
	dc.b	nMaxPSG
	smpsPSGAlterVol     $03
	smpsAlterNote       $04
	dc.b	nMaxPSG, nRst, $04
	smpsPSGAlterVol     $F5
	smpsAlterNote       $00
	dc.b	nMaxPSG, $01
	smpsPSGAlterVol     $02
	smpsAlterNote       $00
	dc.b	nMaxPSG
	smpsPSGAlterVol     $02
	smpsAlterNote       $00
	dc.b	nMaxPSG
	smpsPSGAlterVol     $04
	smpsAlterNote       $00
	dc.b	nMaxPSG
	smpsPSGAlterVol     $03
	smpsAlterNote       $00
	dc.b	nMaxPSG, nRst, $05
	smpsPSGAlterVol     $F5
	smpsAlterNote       $04
	dc.b	nMaxPSG, $01
	smpsPSGAlterVol     $02
	smpsAlterNote       $04
	dc.b	nMaxPSG
	smpsPSGAlterVol     $02
	smpsAlterNote       $04
	dc.b	nMaxPSG
	smpsPSGAlterVol     $04
	smpsAlterNote       $04
	dc.b	nMaxPSG
	smpsPSGAlterVol     $03
	smpsAlterNote       $04
	dc.b	nMaxPSG, nRst, $05
	smpsPSGAlterVol     $F5
	smpsAlterNote       $00
	dc.b	nMaxPSG, $01
	smpsPSGAlterVol     $02
	smpsAlterNote       $00
	dc.b	nMaxPSG
	smpsPSGAlterVol     $02
	smpsAlterNote       $00
	dc.b	nMaxPSG
	smpsPSGAlterVol     $04
	smpsAlterNote       $00
	dc.b	nMaxPSG
	smpsPSGAlterVol     $03
	smpsAlterNote       $00
	dc.b	nMaxPSG, nRst, $05
	smpsPSGAlterVol     $F5
	smpsAlterNote       $00
	dc.b	nMaxPSG, $01
	smpsPSGAlterVol     $02
	smpsAlterNote       $00
	dc.b	nMaxPSG
	smpsPSGAlterVol     $02
	smpsAlterNote       $00
	dc.b	nMaxPSG
	smpsPSGAlterVol     $04
	smpsAlterNote       $00
	dc.b	nMaxPSG
	smpsPSGAlterVol     $03
	smpsAlterNote       $00
	dc.b	nMaxPSG, nRst, $05
	smpsPSGAlterVol     $F5
	smpsAlterNote       $04
	dc.b	nMaxPSG, $01
	smpsPSGAlterVol     $02
	smpsAlterNote       $04
	dc.b	nMaxPSG
	smpsPSGAlterVol     $02
	smpsAlterNote       $04
	dc.b	nMaxPSG
	smpsPSGAlterVol     $04
	smpsAlterNote       $04
	dc.b	nMaxPSG, nRst, $05
	smpsPSGAlterVol     $F8
	smpsAlterNote       $00
	dc.b	nMaxPSG, $01
	smpsPSGAlterVol     $02
	smpsAlterNote       $00
	dc.b	nMaxPSG
	smpsPSGAlterVol     $02
	smpsAlterNote       $00
	dc.b	nMaxPSG
	smpsPSGAlterVol     $04
	smpsAlterNote       $00
	dc.b	nMaxPSG
	smpsPSGAlterVol     $03
	smpsAlterNote       $00
	dc.b	nMaxPSG, nRst, $05
	smpsPSGAlterVol     $F5
	smpsAlterNote       $04
	dc.b	nMaxPSG, $01
	smpsPSGAlterVol     $02
	smpsAlterNote       $04
	dc.b	nMaxPSG
	smpsPSGAlterVol     $02
	smpsAlterNote       $04
	dc.b	nMaxPSG
	smpsPSGAlterVol     $04
	smpsAlterNote       $04
	dc.b	nMaxPSG
	smpsPSGAlterVol     $03
	smpsAlterNote       $04
	dc.b	nMaxPSG, nRst, $05
	smpsPSGAlterVol     $F5
	smpsAlterNote       $00
	dc.b	nMaxPSG, $01
	smpsPSGAlterVol     $02
	smpsAlterNote       $00
	dc.b	nMaxPSG
	smpsPSGAlterVol     $02
	smpsAlterNote       $00
	dc.b	nMaxPSG
	smpsPSGAlterVol     $04
	smpsAlterNote       $00
	dc.b	nMaxPSG
	smpsPSGAlterVol     $03
	smpsAlterNote       $00
	dc.b	nMaxPSG
	smpsPSGAlterVol     $F5
	smpsAlterNote       $00
	dc.b	nMaxPSG
	smpsPSGAlterVol     $02
	smpsAlterNote       $00
	dc.b	nMaxPSG
	smpsPSGAlterVol     $02
	smpsAlterNote       $00
	dc.b	nMaxPSG
	smpsPSGAlterVol     $04
	smpsAlterNote       $00
	dc.b	nMaxPSG
	smpsPSGAlterVol     $03
	smpsAlterNote       $00
	dc.b	nMaxPSG
	smpsPSGAlterVol     $F5
	smpsAlterNote       $00
	dc.b	nMaxPSG
	smpsPSGAlterVol     $02
	smpsAlterNote       $00
	dc.b	nMaxPSG
	smpsPSGAlterVol     $02
	smpsAlterNote       $00
	dc.b	nMaxPSG
	smpsPSGAlterVol     $04
	smpsAlterNote       $00
	dc.b	nMaxPSG
	smpsPSGAlterVol     $03
	smpsAlterNote       $00
	dc.b	nMaxPSG
	smpsPSGAlterVol     $F5
	smpsAlterNote       $00
	dc.b	nMaxPSG
	smpsPSGAlterVol     $02
	smpsAlterNote       $00
	dc.b	nMaxPSG
	smpsPSGAlterVol     $02
	smpsAlterNote       $00
	dc.b	nMaxPSG
	smpsPSGAlterVol     $04
	smpsAlterNote       $00
	dc.b	nMaxPSG
	smpsPSGAlterVol     $03
	smpsAlterNote       $00
	dc.b	nMaxPSG
	smpsPSGAlterVol     $F7
	smpsAlterNote       $00
	dc.b	nMaxPSG
	smpsPSGAlterVol     $02
	smpsAlterNote       $00
	dc.b	nMaxPSG
	smpsPSGAlterVol     $04
	smpsAlterNote       $00
	dc.b	nMaxPSG
	smpsPSGAlterVol     $03
	smpsAlterNote       $00
	dc.b	nMaxPSG
	smpsPSGAlterVol     $F5
	smpsAlterNote       $00
	dc.b	nMaxPSG
	smpsPSGAlterVol     $02
	smpsAlterNote       $00
	dc.b	nMaxPSG
	smpsPSGAlterVol     $02
	smpsAlterNote       $00
	dc.b	nMaxPSG
	smpsPSGAlterVol     $04
	smpsAlterNote       $00
	dc.b	nMaxPSG
	smpsPSGAlterVol     $03
	smpsAlterNote       $00
	dc.b	nMaxPSG
	smpsPSGAlterVol     $F5
	smpsAlterNote       $00
	dc.b	nMaxPSG
	smpsPSGAlterVol     $02
	smpsAlterNote       $00
	dc.b	nMaxPSG
	smpsPSGAlterVol     $02
	smpsAlterNote       $00
	dc.b	nMaxPSG
	smpsPSGAlterVol     $04
	smpsAlterNote       $00
	dc.b	nMaxPSG
	smpsPSGAlterVol     $03
	smpsAlterNote       $00
	dc.b	nMaxPSG
	smpsPSGAlterVol     $F5
	smpsAlterNote       $00
	dc.b	nMaxPSG
	smpsPSGAlterVol     $02
	smpsAlterNote       $00
	dc.b	nMaxPSG
	smpsPSGAlterVol     $02
	smpsAlterNote       $00
	dc.b	nMaxPSG
	smpsPSGAlterVol     $04
	smpsAlterNote       $00
	dc.b	nMaxPSG
	smpsPSGAlterVol     $03
	smpsAlterNote       $00
	dc.b	nMaxPSG
	smpsPSGAlterVol     $F5
	smpsAlterNote       $00
	dc.b	nMaxPSG
	smpsPSGAlterVol     $02
	smpsAlterNote       $00
	dc.b	nMaxPSG
	smpsPSGAlterVol     $02
	smpsAlterNote       $00
	dc.b	nMaxPSG
	smpsPSGAlterVol     $04
	smpsAlterNote       $00
	dc.b	nMaxPSG
	smpsPSGAlterVol     $03
	smpsAlterNote       $00
	dc.b	nMaxPSG, nRst, $05
	smpsPSGAlterVol     $F5
	smpsAlterNote       $FF
	dc.b	nAb5, $01
	smpsPSGAlterVol     $02
	smpsAlterNote       $FF
	dc.b	nAb5
	smpsPSGAlterVol     $02
	smpsAlterNote       $FF
	dc.b	nAb5
	smpsPSGAlterVol     $04
	smpsAlterNote       $FF
	dc.b	nAb5
	smpsPSGAlterVol     $03
	smpsAlterNote       $FF
	dc.b	nAb5
	smpsPSGAlterVol     $F5
	smpsAlterNote       $FF
	dc.b	nAb5
	smpsPSGAlterVol     $02
	smpsAlterNote       $FF
	dc.b	nAb5
	smpsPSGAlterVol     $02
	smpsAlterNote       $FF
	dc.b	nAb5
	smpsPSGAlterVol     $04
	smpsAlterNote       $FF
	dc.b	nAb5
	smpsPSGAlterVol     $03
	smpsAlterNote       $FF
	dc.b	nAb5
	smpsPSGAlterVol     $F5
	smpsAlterNote       $FF
	dc.b	nAb5
	smpsPSGAlterVol     $02
	smpsAlterNote       $FF
	dc.b	nAb5
	smpsPSGAlterVol     $02
	smpsAlterNote       $FF
	dc.b	nAb5
	smpsPSGAlterVol     $04
	smpsAlterNote       $FF
	dc.b	nAb5
	smpsPSGAlterVol     $03
	smpsAlterNote       $FF
	dc.b	nAb5
	smpsPSGAlterVol     $F5
	smpsAlterNote       $04
	dc.b	nMaxPSG
	smpsPSGAlterVol     $02
	smpsAlterNote       $04
	dc.b	nMaxPSG
	smpsPSGAlterVol     $06
	smpsAlterNote       $04
	dc.b	nMaxPSG
	smpsPSGAlterVol     $03
	smpsAlterNote       $04
	dc.b	nMaxPSG
	smpsPSGAlterVol     $F5
	smpsAlterNote       $FF
	dc.b	nAb5
	smpsPSGAlterVol     $02
	smpsAlterNote       $FF
	dc.b	nAb5
	smpsPSGAlterVol     $02
	smpsAlterNote       $FF
	dc.b	nAb5
	smpsPSGAlterVol     $04
	smpsAlterNote       $FF
	dc.b	nAb5
	smpsPSGAlterVol     $03
	smpsAlterNote       $FF
	dc.b	nAb5
	smpsPSGAlterVol     $F5
	smpsAlterNote       $02
	dc.b	nMaxPSG
	smpsPSGAlterVol     $02
	smpsAlterNote       $02
	dc.b	nMaxPSG
	smpsPSGAlterVol     $02
	smpsAlterNote       $02
	dc.b	nMaxPSG
	smpsPSGAlterVol     $04
	smpsAlterNote       $02
	dc.b	nMaxPSG
	smpsPSGAlterVol     $03
	smpsAlterNote       $02
	dc.b	nMaxPSG
	smpsPSGAlterVol     $F5
	smpsAlterNote       $FD
	dc.b	nAb5
	smpsPSGAlterVol     $02
	smpsAlterNote       $FD
	dc.b	nAb5
	smpsPSGAlterVol     $02
	smpsAlterNote       $FD
	dc.b	nAb5
	smpsPSGAlterVol     $04
	smpsAlterNote       $FD
	dc.b	nAb5
	smpsPSGAlterVol     $03
	smpsAlterNote       $FD
	dc.b	nAb5
	smpsPSGAlterVol     $F5
	smpsAlterNote       $FD
	dc.b	nAb5
	smpsPSGAlterVol     $02
	smpsAlterNote       $FD
	dc.b	nAb5
	smpsPSGAlterVol     $02
	smpsAlterNote       $FD
	dc.b	nAb5
	smpsPSGAlterVol     $04
	smpsAlterNote       $FD
	dc.b	nAb5
	smpsPSGAlterVol     $03
	smpsAlterNote       $FD
	dc.b	nAb5
	smpsPSGAlterVol     $F5
	smpsAlterNote       $04
	dc.b	nMaxPSG
	smpsPSGAlterVol     $0B
	smpsJump            Dark_City_Stage_Jump06

; DAC Data
Dark_City_Stage_DAC:
	dc.b	dKickS3, $13, dSnareS3, $14, dKickS3, $01

Dark_City_Stage_Jump00:
	dc.b	nRst, $08, dKickS3, $0A, dSnareS3, dKickS3, $14, dKickS3, $09, dSnareS3, $14, dKickS3
	dc.b	$0A, dKickS3, $09, dSnareS3, $0A, dKickS3, $14, dSnareS3, $0A, dKickS3, $05, dSnareS3
	dc.b	$04, dSnareS3, $05, dSnareS3, $0A, dKickS3, $14, dSnareS3, $13, dKickS3, $0A, dKickS3
	dc.b	dSnareS3, dKickS3, $13, dKickS3, $0A, dSnareS3, $13, dKickS3, $0A, dKickS3, dSnareS3, dKickS3
	dc.b	$13, dSnareS3, $0A, dKickS3, $05, dSnareS3, dSnareS3, dSnareS3, $0A, dMidTomS3, $13, dKickS3
	dc.b	$14, dKickS3, $13, dSnareS3, $0A, dKickS3, $14, dKickS3, $09, dSnareS3, $14, dKickS3
	dc.b	$0A, dKickS3, dSnareS3, $09, dKickS3, $0A, dMidTomS3, dKickS3, dSnareS3, dMidTomS3, $09, $88
	dc.b	$0A, dKickS3, dKickS3, dKickS3, $09, dSnareS3, $0A, dMidTomS3, dKickS3, $14, dKickS3, $09
	dc.b	dSnareS3, $0A, dKickS3, dMidTomS3, dKickS3, $13, dKickS3, $0A, dSnareS3, dKickS3, dKickS3, $09
	dc.b	dSnareS3, $14, dKickS3, $0A, dKickS3, dSnareS3, $09, dKickS3, $14, dKickS3, $0A, dKickS3
	dc.b	dSnareS3, $13, dSnareS3, $0A, dSnareS3, dMidTomS3, $05, dMidTomS3, $04, $88, $05, $88
	dc.b	$89, $89, dMidTomS3, dMidTomS3, $88, $88, $89, $09, dSnareS3, $0A, dKickS3, $14
	dc.b	dKickS3, $09, dSnareS3, $0A, dKickS3, $14, dKickS3, $0A, dSnareS3, $13, dKickS3, $0A
	dc.b	dKickS3, dSnareS3, dKickS3, $13, dKickS3, $0A, dSnareS3, dKickS3, $13, dKickS3, $0A, dSnareS3
	dc.b	dKickS3, $13, dKickS3, $0A, dSnareS3, dMidTomS3, $05, dMidTomS3, $88, $88, $89, $04
	dc.b	$89, $05, dMidTomS3, dMidTomS3, $88, $0A, dKickS3, $13, dSnareS3, $14, dKickS3, $01
	smpsJump            Dark_City_Stage_Jump00

Dark_City_Stage_Voices:
;	Voice $00
;	$24
;	$25, $71, $21, $71, 	$1F, $1F, $1F, $1F, 	$08, $04, $06, $09
;	$00, $14, $00, $00, 	$F3, $FA, $B1, $F9, 	$16, $0E, $30, $00
	smpsVcAlgorithm     $04
	smpsVcFeedback      $04
	smpsVcUnusedBits    $00
	smpsVcDetune        $07, $02, $07, $02
	smpsVcCoarseFreq    $01, $01, $01, $05
	smpsVcRateScale     $00, $00, $00, $00
	smpsVcAttackRate    $1F, $1F, $1F, $1F
	smpsVcAmpMod        $00, $00, $00, $00
	smpsVcDecayRate1    $09, $06, $04, $08
	smpsVcDecayRate2    $00, $00, $14, $00
	smpsVcDecayLevel    $0F, $0B, $0F, $0F
	smpsVcReleaseRate   $09, $01, $0A, $03
	smpsVcTotalLevel    $00, $30, $0E, $16

;	Voice $01
;	$20
;	$21, $70, $20, $70, 	$1F, $1F, $1F, $1F, 	$04, $03, $11, $02
;	$00, $00, $00, $00, 	$F3, $F4, $21, $19, 	$0F, $4D, $09, $00
	smpsVcAlgorithm     $00
	smpsVcFeedback      $04
	smpsVcUnusedBits    $00
	smpsVcDetune        $07, $02, $07, $02
	smpsVcCoarseFreq    $00, $00, $00, $01
	smpsVcRateScale     $00, $00, $00, $00
	smpsVcAttackRate    $1F, $1F, $1F, $1F
	smpsVcAmpMod        $00, $00, $00, $00
	smpsVcDecayRate1    $02, $11, $03, $04
	smpsVcDecayRate2    $00, $00, $00, $00
	smpsVcDecayLevel    $01, $02, $0F, $0F
	smpsVcReleaseRate   $09, $01, $04, $03
	smpsVcTotalLevel    $00, $09, $4D, $0F

;	Voice $02
;	$23
;	$25, $74, $21, $70, 	$DC, $1B, $17, $1A, 	$11, $00, $01, $09
;	$00, $00, $00, $00, 	$23, $F4, $B1, $F9, 	$23, $29, $26, $00
	smpsVcAlgorithm     $03
	smpsVcFeedback      $04
	smpsVcUnusedBits    $00
	smpsVcDetune        $07, $02, $07, $02
	smpsVcCoarseFreq    $00, $01, $04, $05
	smpsVcRateScale     $00, $00, $00, $03
	smpsVcAttackRate    $1A, $17, $1B, $1C
	smpsVcAmpMod        $00, $00, $00, $00
	smpsVcDecayRate1    $09, $01, $00, $11
	smpsVcDecayRate2    $00, $00, $00, $00
	smpsVcDecayLevel    $0F, $0B, $0F, $02
	smpsVcReleaseRate   $09, $01, $04, $03
	smpsVcTotalLevel    $00, $26, $29, $23

;	Voice $03
;	$22
;	$25, $71, $21, $71, 	$1F, $1F, $1F, $1F, 	$01, $0A, $00, $09
;	$00, $00, $00, $00, 	$F3, $F4, $B1, $F9, 	$10, $1E, $1B, $00
	smpsVcAlgorithm     $02
	smpsVcFeedback      $04
	smpsVcUnusedBits    $00
	smpsVcDetune        $07, $02, $07, $02
	smpsVcCoarseFreq    $01, $01, $01, $05
	smpsVcRateScale     $00, $00, $00, $00
	smpsVcAttackRate    $1F, $1F, $1F, $1F
	smpsVcAmpMod        $00, $00, $00, $00
	smpsVcDecayRate1    $09, $00, $0A, $01
	smpsVcDecayRate2    $00, $00, $00, $00
	smpsVcDecayLevel    $0F, $0B, $0F, $0F
	smpsVcReleaseRate   $09, $01, $04, $03
	smpsVcTotalLevel    $00, $1B, $1E, $10

