Genocide_Night_Reimagined_Header:
	smpsHeaderStartSong 1
	smpsHeaderVoice     Genocide_Night_Reimagined_Voices
	smpsHeaderChan      $06, $03
	smpsHeaderTempo     $01, $00

	smpsHeaderDAC       Genocide_Night_Reimagined_DAC
	smpsHeaderFM        Genocide_Night_Reimagined_FM1,	$00, $00
	smpsHeaderFM        Genocide_Night_Reimagined_FM2,	$00, $00
	smpsHeaderFM        Genocide_Night_Reimagined_FM3,	$00, $00
	smpsHeaderFM        Genocide_Night_Reimagined_FM4,	$00, $00
	smpsHeaderFM        Genocide_Night_Reimagined_FM5,	$00, $00
	smpsHeaderPSG       Genocide_Night_Reimagined_PSG1,	$00, $00, $00, $00
	smpsHeaderPSG       Genocide_Night_Reimagined_PSG2,	$00, $00, $00, $00
	smpsHeaderPSG       Genocide_Night_Reimagined_PSG3,	$00, $00, $00, $00

; FM1 Data
Genocide_Night_Reimagined_FM1:
	smpsSetvoice        $00
	smpsAlterVol        $0F
	smpsPan             panCenter, $00
	dc.b	nFs3, $0A, smpsNoAttack
	smpsAlterNote       $06
	dc.b	nFs3, $01, smpsNoAttack
	smpsAlterNote       $09
	dc.b	nFs3, $01, smpsNoAttack
	smpsAlterNote       $0A
	dc.b	nFs3, $01, smpsNoAttack
	smpsAlterNote       $07
	dc.b	nFs3, $01, smpsNoAttack
	smpsAlterNote       $02
	dc.b	nFs3, $01, smpsNoAttack
	smpsAlterNote       $FD
	dc.b	nFs3, $01, smpsNoAttack
	smpsAlterNote       $F9
	dc.b	nFs3, $01, smpsNoAttack
	smpsAlterNote       $F7
	dc.b	nFs3, $01, smpsNoAttack
	smpsAlterNote       $F9
	dc.b	nFs3, $01, smpsNoAttack
	smpsAlterNote       $FD
	dc.b	nFs3, $01
	smpsAlterNote       $00
	dc.b	nB3, $0A, nCs4, smpsNoAttack
	smpsAlterNote       $04
	dc.b	nCs4, $01, smpsNoAttack
	smpsAlterNote       $06
	dc.b	nCs4, $01, smpsNoAttack
	smpsAlterNote       $07
	dc.b	nCs4, $01, smpsNoAttack
	smpsAlterNote       $05
	dc.b	nCs4, $01, smpsNoAttack
	smpsAlterNote       $01
	dc.b	nCs4, $01, smpsNoAttack
	smpsAlterNote       $FD
	dc.b	nCs4, $01, smpsNoAttack
	smpsAlterNote       $FA
	dc.b	nCs4, $01, smpsNoAttack
	smpsAlterNote       $F9
	dc.b	nCs4, $01, smpsNoAttack
	smpsAlterNote       $FA
	dc.b	nCs4, $01, smpsNoAttack
	smpsAlterNote       $FD
	dc.b	nCs4, $01
	smpsAlterNote       $00
	dc.b	nB3, $0A, nCs4, smpsNoAttack
	smpsAlterNote       $04
	dc.b	nCs4, $01, smpsNoAttack
	smpsAlterNote       $06
	dc.b	nCs4, $01, smpsNoAttack
	smpsAlterNote       $07
	dc.b	nCs4, $01, smpsNoAttack
	smpsAlterNote       $05
	dc.b	nCs4, $01, smpsNoAttack
	smpsAlterNote       $01
	dc.b	nCs4, $01, smpsNoAttack
	smpsAlterNote       $FD
	dc.b	nCs4, $01, smpsNoAttack
	smpsAlterNote       $FA
	dc.b	nCs4, $01, smpsNoAttack
	smpsAlterNote       $F9
	dc.b	nCs4, $01, smpsNoAttack
	smpsAlterNote       $FA
	dc.b	nCs4, $01, smpsNoAttack
	smpsAlterNote       $FD
	dc.b	nCs4, $01
	smpsAlterNote       $00
	dc.b	nB3, $0A, nCs4, nB3, nE4, nCs4, nE4, nCs4, nB3, nA3, $14, nFs3
	dc.b	$0A, smpsNoAttack
	smpsAlterNote       $06
	dc.b	nFs3, $01, smpsNoAttack
	smpsAlterNote       $09
	dc.b	nFs3, $01, smpsNoAttack
	smpsAlterNote       $0A
	dc.b	nFs3, $01, smpsNoAttack
	smpsAlterNote       $07
	dc.b	nFs3, $01, smpsNoAttack
	smpsAlterNote       $02
	dc.b	nFs3, $01, smpsNoAttack
	smpsAlterNote       $FD
	dc.b	nFs3, $01, smpsNoAttack
	smpsAlterNote       $F9
	dc.b	nFs3, $01, smpsNoAttack
	smpsAlterNote       $F7
	dc.b	nFs3, $01, smpsNoAttack
	smpsAlterNote       $F9
	dc.b	nFs3, $01, smpsNoAttack
	smpsAlterNote       $FD
	dc.b	nFs3, $01, smpsNoAttack
	smpsAlterNote       $02
	dc.b	nFs3, $01, smpsNoAttack
	smpsAlterNote       $07
	dc.b	nFs3, $01, smpsNoAttack
	smpsAlterNote       $0A
	dc.b	nFs3, $01, smpsNoAttack
	smpsAlterNote       $09
	dc.b	nFs3, $01, smpsNoAttack
	smpsAlterNote       $06
	dc.b	nFs3, $01, smpsNoAttack
	smpsAlterNote       $00
	dc.b	nFs3, $01, smpsNoAttack
	smpsAlterNote       $FB
	dc.b	nFs3, $01, smpsNoAttack
	smpsAlterNote       $F7
	dc.b	nFs3, $02, smpsNoAttack
	smpsAlterNote       $FA
	dc.b	nFs3, $01, smpsNoAttack
	smpsAlterNote       $FF
	dc.b	nFs3, $01, smpsNoAttack
	smpsAlterNote       $04
	dc.b	nFs3, $01, smpsNoAttack
	smpsAlterNote       $08
	dc.b	nFs3, $01, smpsNoAttack
	smpsAlterNote       $0A
	dc.b	nFs3, $01, smpsNoAttack
	smpsAlterNote       $08
	dc.b	nFs3, $01, smpsNoAttack
	smpsAlterNote       $04
	dc.b	nFs3, $01, smpsNoAttack
	smpsAlterNote       $FF
	dc.b	nFs3, $01, smpsNoAttack
	smpsAlterNote       $FA
	dc.b	nFs3, $01, smpsNoAttack
	smpsAlterNote       $F7
	dc.b	nFs3, $02, smpsNoAttack
	smpsAlterNote       $FB
	dc.b	nFs3, $01, smpsNoAttack
	smpsAlterNote       $00
	dc.b	nFs3, $01, smpsNoAttack
	smpsAlterNote       $06
	dc.b	nFs3, $01, smpsNoAttack
	smpsAlterNote       $09
	dc.b	nFs3, $01, smpsNoAttack
	smpsAlterNote       $0A
	dc.b	nFs3, $01, smpsNoAttack
	smpsAlterNote       $07
	dc.b	nFs3, $01, smpsNoAttack
	smpsAlterNote       $02
	dc.b	nFs3, $01, smpsNoAttack
	smpsAlterNote       $FD
	dc.b	nFs3, $01, smpsNoAttack
	smpsAlterNote       $F9
	dc.b	nFs3, $01, smpsNoAttack
	smpsAlterNote       $F7
	dc.b	nFs3, $01, smpsNoAttack
	smpsAlterNote       $F9
	dc.b	nFs3, $01, smpsNoAttack
	smpsAlterNote       $FD
	dc.b	nFs3, $01, smpsNoAttack
	smpsAlterNote       $02
	dc.b	nFs3, $01, smpsNoAttack
	smpsAlterNote       $07
	dc.b	nFs3, $01, smpsNoAttack
	smpsAlterNote       $0A
	dc.b	nFs3, $01, smpsNoAttack
	smpsAlterNote       $09
	dc.b	nFs3, $01, smpsNoAttack
	smpsAlterNote       $06
	dc.b	nFs3, $01, smpsNoAttack
	smpsAlterNote       $00
	dc.b	nFs3, $01, smpsNoAttack
	smpsAlterNote       $FB
	dc.b	nFs3, $01, smpsNoAttack
	smpsAlterNote       $F7
	dc.b	nFs3, $02, smpsNoAttack
	smpsAlterNote       $FA
	dc.b	nFs3, $01, smpsNoAttack
	smpsAlterNote       $FF
	dc.b	nFs3, $01, smpsNoAttack
	smpsAlterNote       $04
	dc.b	nFs3, $01, smpsNoAttack
	smpsAlterNote       $08
	dc.b	nFs3, $01, smpsNoAttack
	smpsAlterNote       $0A
	dc.b	nFs3, $01, smpsNoAttack
	smpsAlterNote       $08
	dc.b	nFs3, $01, smpsNoAttack
	smpsAlterNote       $04
	dc.b	nFs3, $01, smpsNoAttack
	smpsAlterNote       $FF
	dc.b	nFs3, $01, smpsNoAttack
	smpsAlterNote       $FA
	dc.b	nFs3, $01, smpsNoAttack
	smpsAlterNote       $F7
	dc.b	nFs3, $02, smpsNoAttack
	smpsAlterNote       $FB
	dc.b	nFs3, $01, smpsNoAttack
	smpsAlterNote       $00
	dc.b	nFs3, $01, smpsNoAttack
	smpsAlterNote       $06
	dc.b	nFs3, $01, smpsNoAttack
	smpsAlterNote       $09
	dc.b	nFs3, $01, smpsNoAttack
	smpsAlterNote       $0A
	dc.b	nFs3, $01, smpsNoAttack
	smpsAlterNote       $07
	dc.b	nFs3, $01, smpsNoAttack
	smpsAlterNote       $02
	dc.b	nFs3, $01, smpsNoAttack
	smpsAlterNote       $FD
	dc.b	nFs3, $01
	smpsAlterNote       $00
	dc.b	nFs3, $0A, nFs3, nA3, nB3, smpsNoAttack
	smpsAlterNote       $07
	dc.b	nB3, $01, smpsNoAttack
	smpsAlterNote       $0C
	dc.b	nB3, $01, smpsNoAttack
	smpsAlterNote       $0D
	dc.b	nB3, $01, smpsNoAttack
	smpsAlterNote       $09
	dc.b	nB3, $01, smpsNoAttack
	smpsAlterNote       $02
	dc.b	nB3, $01, smpsNoAttack
	smpsAlterNote       $FB
	dc.b	nB3, $01, smpsNoAttack
	smpsAlterNote       $F6
	dc.b	nB3, $01, smpsNoAttack
	smpsAlterNote       $F4
	dc.b	nB3, $01, smpsNoAttack
	smpsAlterNote       $F6
	dc.b	nB3, $01, smpsNoAttack
	smpsAlterNote       $FB
	dc.b	nB3, $01, smpsNoAttack
	smpsAlterNote       $02
	dc.b	nB3, $01, smpsNoAttack
	smpsAlterNote       $09
	dc.b	nB3, $01, smpsNoAttack
	smpsAlterNote       $0D
	dc.b	nB3, $01, smpsNoAttack
	smpsAlterNote       $0C
	dc.b	nB3, $01, smpsNoAttack
	smpsAlterNote       $07
	dc.b	nB3, $01, smpsNoAttack
	smpsAlterNote       $00
	dc.b	nB3, $01, smpsNoAttack
	smpsAlterNote       $F9
	dc.b	nB3, $01, smpsNoAttack
	smpsAlterNote       $F4
	dc.b	nB3, $02, smpsNoAttack
	smpsAlterNote       $F8
	dc.b	nB3, $01, smpsNoAttack
	smpsAlterNote       $FE
	dc.b	nB3, $01, smpsNoAttack
	smpsAlterNote       $05
	dc.b	nB3, $01, smpsNoAttack
	smpsAlterNote       $0B
	dc.b	nB3, $01, smpsNoAttack
	smpsAlterNote       $0D
	dc.b	nB3, $01, smpsNoAttack
	smpsAlterNote       $0B
	dc.b	nB3, $01, smpsNoAttack
	smpsAlterNote       $05
	dc.b	nB3, $01, smpsNoAttack
	smpsAlterNote       $FE
	dc.b	nB3, $01, smpsNoAttack
	smpsAlterNote       $F8
	dc.b	nB3, $01, smpsNoAttack
	smpsAlterNote       $F4
	dc.b	nB3, $02
	smpsAlterNote       $00
	dc.b	nFs3, $0A, nA3, nB3, nCs4, smpsNoAttack
	smpsAlterNote       $04
	dc.b	nCs4, $01, smpsNoAttack
	smpsAlterNote       $06
	dc.b	nCs4, $01, smpsNoAttack
	smpsAlterNote       $07
	dc.b	nCs4, $01, smpsNoAttack
	smpsAlterNote       $05
	dc.b	nCs4, $01, smpsNoAttack
	smpsAlterNote       $01
	dc.b	nCs4, $01, smpsNoAttack
	smpsAlterNote       $FD
	dc.b	nCs4, $01, smpsNoAttack
	smpsAlterNote       $FA
	dc.b	nCs4, $01, smpsNoAttack
	smpsAlterNote       $F9
	dc.b	nCs4, $01, smpsNoAttack
	smpsAlterNote       $FA
	dc.b	nCs4, $01, smpsNoAttack
	smpsAlterNote       $FD
	dc.b	nCs4, $01, smpsNoAttack
	smpsAlterNote       $01
	dc.b	nCs4, $01, smpsNoAttack
	smpsAlterNote       $05
	dc.b	nCs4, $01, smpsNoAttack
	smpsAlterNote       $07
	dc.b	nCs4, $01, smpsNoAttack
	smpsAlterNote       $06
	dc.b	nCs4, $01, smpsNoAttack
	smpsAlterNote       $04
	dc.b	nCs4, $01, smpsNoAttack
	smpsAlterNote       $00
	dc.b	nCs4, $01, smpsNoAttack
	smpsAlterNote       $FC
	dc.b	nCs4, $01, smpsNoAttack
	smpsAlterNote       $F9
	dc.b	nCs4, $02, smpsNoAttack
	smpsAlterNote       $FB
	dc.b	nCs4, $01, smpsNoAttack
	smpsAlterNote       $FF
	dc.b	nCs4, $01, smpsNoAttack
	smpsAlterNote       $03
	dc.b	nCs4, $01, smpsNoAttack
	smpsAlterNote       $06
	dc.b	nCs4, $01, smpsNoAttack
	smpsAlterNote       $07
	dc.b	nCs4, $01, smpsNoAttack
	smpsAlterNote       $06
	dc.b	nCs4, $01, smpsNoAttack
	smpsAlterNote       $03
	dc.b	nCs4, $01, smpsNoAttack
	smpsAlterNote       $FF
	dc.b	nCs4, $01, smpsNoAttack
	smpsAlterNote       $FB
	dc.b	nCs4, $01, smpsNoAttack
	smpsAlterNote       $F9
	dc.b	nCs4, $02
	smpsAlterNote       $00
	dc.b	nE4, $0A, nE4, nE4, nCs4, nCs4, nCs4, nB3, nB3, nB3, nA3, nA3
	dc.b	nA3, nFs3, nFs3, nFs3, nE3, nE3, nFs3, nFs3, nD3, nD3, nRst, $1E
	dc.b	nCs4, $0A, nE4, nCs4, nE4, nFs4, $01

Genocide_Night_Reimagined_Jump05:
	dc.b	smpsNoAttack, nFs4, $09, nFs4, $0A, nRst, nA4, nRst, nFs4, nRst, nCs4, nE4
	dc.b	nFs4, nA4, nFs4, nE4, nFs4, nCs4, nE4, nCs4, $14, nB3, $0A, nA3
	dc.b	nFs3, nB3, nA3, nFs3, nE3, nFs3, nFs3, nRst, nCs4, nE4, nCs4, nCs4
	dc.b	nE4, nFs4, nFs4, nRst, nA4, nRst, nFs4, nRst, nCs4, nE4, nA4, nFs4
	dc.b	nCs4, nCs4, nB4, nA4, nFs4, nCs4, nCs4, $14, nB3, $0A, nA3, nB3
	dc.b	nCs4, nCs4, nE4, nCs4, nCs4, nB3, $1E, nB3, $0A, nA4, nB4, nA4
	dc.b	$14, nFs4, nD4, nE4, nE4, nD4, nD4, $0A, nE4, smpsNoAttack
	smpsAlterNote       $05
	dc.b	nE4, $01, smpsNoAttack
	smpsAlterNote       $08
	dc.b	nE4, $02, smpsNoAttack
	smpsAlterNote       $06
	dc.b	nE4, $01, smpsNoAttack
	smpsAlterNote       $01
	dc.b	nE4, $01, smpsNoAttack
	smpsAlterNote       $FD
	dc.b	nE4, $01, smpsNoAttack
	smpsAlterNote       $F9
	dc.b	nE4, $01, smpsNoAttack
	smpsAlterNote       $F8
	dc.b	nE4, $01, smpsNoAttack
	smpsAlterNote       $F9
	dc.b	nE4, $01, smpsNoAttack
	smpsAlterNote       $FD
	dc.b	nE4, $01, smpsNoAttack
	smpsAlterNote       $01
	dc.b	nE4, $01, smpsNoAttack
	smpsAlterNote       $06
	dc.b	nE4, $01, smpsNoAttack
	smpsAlterNote       $08
	dc.b	nE4, $02, smpsNoAttack
	smpsAlterNote       $05
	dc.b	nE4, $01, smpsNoAttack
	smpsAlterNote       $00
	dc.b	nE4, $01, smpsNoAttack
	smpsAlterNote       $FB
	dc.b	nE4, $01, smpsNoAttack
	smpsAlterNote       $F8
	dc.b	nE4, $02, smpsNoAttack
	smpsAlterNote       $FA
	dc.b	nE4, $01, smpsNoAttack
	smpsAlterNote       $FE
	dc.b	nE4, $01, smpsNoAttack
	smpsAlterNote       $03
	dc.b	nE4, $01, smpsNoAttack
	smpsAlterNote       $07
	dc.b	nE4, $01, smpsNoAttack
	smpsAlterNote       $08
	dc.b	nE4, $01, smpsNoAttack
	smpsAlterNote       $07
	dc.b	nE4, $01, smpsNoAttack
	smpsAlterNote       $03
	dc.b	nE4, $01, smpsNoAttack
	smpsAlterNote       $FE
	dc.b	nE4, $01, smpsNoAttack
	smpsAlterNote       $FA
	dc.b	nE4, $01, smpsNoAttack
	smpsAlterNote       $F8
	dc.b	nE4, $02, smpsNoAttack
	smpsAlterNote       $FD
	dc.b	nEb4, $01, smpsNoAttack
	smpsAlterNote       $00
	dc.b	nD4, smpsNoAttack
	smpsAlterNote       $04
	dc.b	nCs4, smpsNoAttack
	smpsAlterNote       $06
	dc.b	nC4, smpsNoAttack
	smpsAlterNote       $0D
	dc.b	nB3, smpsNoAttack
	smpsAlterNote       $03
	dc.b	nBb3, smpsNoAttack
	smpsAlterNote       $02
	dc.b	nA3, smpsNoAttack
	smpsAlterNote       $FC
	dc.b	nAb3, smpsNoAttack
	smpsAlterNote       $F7
	dc.b	nG3, smpsNoAttack, nFs3, nRst, $50
	smpsAlterNote       $00
	dc.b	nD4, $0A, nE4, nE4, nE4, nD4, nE4, smpsNoAttack
	smpsAlterNote       $05
	dc.b	nE4, $01, smpsNoAttack
	smpsAlterNote       $08
	dc.b	nE4, $02, smpsNoAttack
	smpsAlterNote       $06
	dc.b	nE4, $01, smpsNoAttack
	smpsAlterNote       $01
	dc.b	nE4, $01, smpsNoAttack
	smpsAlterNote       $FD
	dc.b	nE4, $01, smpsNoAttack
	smpsAlterNote       $F9
	dc.b	nE4, $01, smpsNoAttack
	smpsAlterNote       $F8
	dc.b	nE4, $01, smpsNoAttack
	smpsAlterNote       $F9
	dc.b	nE4, $01, smpsNoAttack
	smpsAlterNote       $FD
	dc.b	nE4, $01, smpsNoAttack
	smpsAlterNote       $01
	dc.b	nE4, $01, smpsNoAttack
	smpsAlterNote       $06
	dc.b	nE4, $01, smpsNoAttack
	smpsAlterNote       $08
	dc.b	nE4, $02, smpsNoAttack
	smpsAlterNote       $05
	dc.b	nE4, $01, smpsNoAttack
	smpsAlterNote       $00
	dc.b	nE4, $01, smpsNoAttack
	smpsAlterNote       $FB
	dc.b	nE4, $01, smpsNoAttack
	smpsAlterNote       $F8
	dc.b	nE4, $02, smpsNoAttack
	smpsAlterNote       $FA
	dc.b	nE4, $01, smpsNoAttack
	smpsAlterNote       $00
	dc.b	nEb4, smpsNoAttack
	smpsAlterNote       $03
	dc.b	nD4, smpsNoAttack
	smpsAlterNote       $06
	dc.b	nCs4, smpsNoAttack, nC4, smpsNoAttack
	smpsAlterNote       $0B
	dc.b	nB3, smpsNoAttack
	smpsAlterNote       $00
	dc.b	nBb3, smpsNoAttack
	smpsAlterNote       $FE
	dc.b	nA3, smpsNoAttack
	smpsAlterNote       $F8
	dc.b	nAb3, smpsNoAttack
	smpsAlterNote       $F6
	dc.b	nG3, smpsNoAttack
	smpsAlterNote       $F7
	dc.b	nFs3, nRst, $7F, $67
	smpsAlterNote       $00
	dc.b	nCs4, $0A, nE4, nCs4, nE4, nFs4, $01
	smpsPan             panCenter, $00
	smpsJump            Genocide_Night_Reimagined_Jump05

; FM2 Data
Genocide_Night_Reimagined_FM2:
	smpsSetvoice        $01
	smpsPan             panCenter, $00
	dc.b	nRst, $7F, $35
	smpsSetvoice        $02
	smpsAlterVol        $0F
	dc.b	nFs2, $05, nFs2, nFs2, $0A, nFs2, $05, nFs2, nFs2, $0A, nFs2, $05
	dc.b	nFs2, nFs2, $0A, nFs2, $05, nFs2, nFs2, $0A, nFs2, $05, nFs2, nFs2
	dc.b	$0A, nFs2, $05, nFs2, nFs2, $0A, nFs2, $05, nFs2, nFs2, $0A, nE2
	dc.b	$05, nE2, nE2, $0A, nE2, $05, nE2, nE2, $0A, nE2, $05, nE2
	dc.b	nE2, $0A, nE2, $05, nE2, nE2, $0A, nE2, $05, nE2, nE2, $0A
	dc.b	nE2, $05, nE2, nE2, $0A, nE2, $05, nE2, nE2, $0A, nE2, $05
	dc.b	nE2, nE2, $0A, nD2, $05, nD2, nD2, $0A, nD2, $05, nD2, nD2
	dc.b	$0A, nD2, $05, nD2, nD2, $0A, nD2, $05, nD2, nD2, $0A, nD2
	dc.b	$05, nD2, nD2, $0A, nE2, $05, nE2, nE2, $0A, nE2, $05, nE2
	dc.b	nE2, $0A, nE2, $05, nE2, nE2, $0A
	smpsSetvoice        $03
	smpsAlterVol        $FC
	dc.b	nCs3, $14, nCs3, nFs3, $01

Genocide_Night_Reimagined_Jump04:
	dc.b	smpsNoAttack, nFs3, $09, nFs3, $0A, nFs3, nFs3, nFs3, nFs3, nFs3, nE3, nE3
	dc.b	nE3, nE3, nE3, nE3, nFs3, nFs3, nFs3, nFs3, nFs3, nFs3
	smpsSetvoice        $02
	smpsAlterVol        $04
	dc.b	nA2, nRst, nE2, nCs2, nA2, nFs2, nE2, nE2, nFs2
	smpsSetvoice        $03
	smpsAlterVol        $FC
	dc.b	nFs2, nFs3, nCs3, nE3, nFs3, nFs3, nCs3, nCs3, nB2, nB2, nB2, nB2
	dc.b	nB2, nB2, nB2, nB2, nA2, nA2, nA2, nA2, nA2, nA2, nA2, nA2
	dc.b	nB2, nB2, nB2, nB2
	smpsSetvoice        $02
	smpsAlterVol        $04
	dc.b	nCs2, nE2, nCs2, nFs2, nFs2, $05, nFs2, nFs2, $0A, nA2, nA2, nB2
	dc.b	nB2, nCs3, nCs3, nD3, nD3, nE3, nE3, nCs3, nCs3, nFs2, nFs2, nA2
	dc.b	nA2, nB2, nB2, nCs3, nCs3, nD3, nD3, nE3, nE3, nCs3, nCs3, nA2
	dc.b	nA2
	smpsSetvoice        $03
	smpsAlterVol        $FC
	dc.b	nB2, $05, nB3, nB2, $0A, nFs3, $14, nFs2, $0A, nFs3, nE3, nFs3
	dc.b	nFs3, $14, nRst, $0A
	smpsSetvoice        $02
	smpsAlterVol        $04
	dc.b	nE2, nE2, nE2, nG2, nG2, nFs2, nCs2, nE2, nCs2, nB1, nCs2, $14
	dc.b	nCs2, $0A, nCs2, $1E, nCs2, $0A, nB1, $14, nB1, $0A, nB1, $1E
	smpsSetvoice        $03
	smpsAlterVol        $FC
	dc.b	nCs3, $14, nCs3, nFs3, $01
	smpsPan             panCenter, $00
	smpsJump            Genocide_Night_Reimagined_Jump04

; FM3 Data
Genocide_Night_Reimagined_FM3:
	smpsSetvoice        $01
	smpsPan             panCenter, $00
	dc.b	nRst, $7F, $7F, $7F, $7F, $7F, $2D
	smpsSetvoice        $05
	smpsAlterVol        $18
	smpsPan             panLeft, $00
	dc.b	nCs4, $01

Genocide_Night_Reimagined_Jump03:
	dc.b	smpsNoAttack, nCs4, $13, nCs4, $0A, nCs4, nCs4, $05, nCs4, nCs4, $0A, nCs4
	dc.b	$05, nCs4, nCs4, $0A, nE3, $05, nE3, nE3, $0A, nE3, $05, nE3
	dc.b	nE3, $0A, nE3, $05, nE3, nE3, $0A, nE3, $05, nE3, nD3, $0A
	dc.b	nD3, $05, nD3, nD3, $0A, nD3, $05, nD3, nD3, $0A, nD3, $05
	dc.b	nD3, nD3, $0A, nE3, $05, nE3, nE3, $0A, nE3, $05, nE3, nE3
	dc.b	$0A, nE3, $05, nE3, nE3, $0A, nFs4, $05, nFs4, nFs4, $0A, nFs4
	dc.b	$05, nFs4, nFs4, $0A, nA3, $05, nA3, nA3, $0A, nA3, $05, nA3
	dc.b	nA3, $0A, nA3, $05, nA3, nA3, $0A, nFs3, $05, nFs3, nFs3, $0A
	dc.b	nFs3, $05, nFs3, nFs3, $0A, nFs3, $05, nFs3, nFs3, $0A, nE3, $05
	dc.b	nE3, nE3, $0A, nE3, $05, nE3, nE3, $0A, nD3, $05, nD3, nD3
	dc.b	$0A, nD3, $05, nD3, nD3, $0A, nCs3, $05, nCs3, nCs3, $0A, nCs3
	dc.b	$05, nCs3, nCs3, $0A, nFs3, $05, nFs3, nE3, nE3, nD3, nD3, nFs3
	dc.b	$0A, nE3, $05, nE3, nE3, $0A, nE4, $05, nE4, nE4, $0A, nE3
	dc.b	$05, nE3, nE3, $0A, nE4, $05, nE4, nE4, $0A, nD3, $05, nD3
	dc.b	nD3, $0A, nD4, $05, nD4, nD4, $0A, nD4, $05, nD4, nD4, $0A
	dc.b	nD4, $05, nD4, nD4, $0A, nE4, $05, nE4, nE4, $0A, nE4, $05
	dc.b	nE4, nE4, $0A, nE4, $05, nE4, nE4, $0A, nFs4, $05, nA4, nFs4
	dc.b	$0A, nFs4, $05, nA4, nFs4, $0A, nE4, $05, nFs4, nE4, $0A, nCs4
	dc.b	$05, nD4, nCs4, $0A, nFs3, $05, nA3, nFs3, $0A, nD4, nE4, nE4
	dc.b	nCs4, nD4, nE4, nE4, nRst, $7F, $7F, $24, nCs4, $01
	smpsPan             panLeft, $00
	smpsJump            Genocide_Night_Reimagined_Jump03

; FM4 Data
Genocide_Night_Reimagined_FM4:
	smpsSetvoice        $01
	smpsPan             panCenter, $00
	dc.b	nRst, $7F, $7F, $7F, $7F, $7F, $2D
	smpsSetvoice        $05
	smpsAlterVol        $18
	smpsPan             panRight, $00
	dc.b	nFs3, $01

Genocide_Night_Reimagined_Jump02:
	dc.b	smpsNoAttack, nFs3, $13, nFs3, $0A, nFs3, nFs3, $05, nFs3, nFs3, $0A, nFs3
	dc.b	$05, nFs3, nFs3, $0A, nB2, $05, nB2, nB2, $0A, nB2, $05, nB2
	dc.b	nB2, $0A, nB2, $05, nB2, nB2, $0A, nB2, $05, nB2, nA2, $0A
	dc.b	nA2, $05, nA2, nA2, $0A, nA2, $05, nA2, nA2, $0A, nA2, $05
	dc.b	nA2, nA2, $0A, nB2, $05, nB2, nB2, $0A, nB2, $05, nB2, nB2
	dc.b	$0A, nB2, $05, nB2, nB2, $0A, nCs4, $05, nCs4, nCs4, $0A, nCs4
	dc.b	$05, nCs4, nCs4, $0A, nE3, $05, nE3, nE3, $0A, nE3, $05, nE3
	dc.b	nE3, $0A, nE3, $05, nE3, nE3, $0A, nCs3, $05, nCs3, nCs3, $0A
	dc.b	nCs3, $05, nCs3, nCs3, $0A, nCs3, $05, nCs3, nCs3, $0A, nB2, $05
	dc.b	nB2, nB2, $0A, nB2, $05, nB2, nB2, $0A, nA2, $05, nA2, nA2
	dc.b	$0A, nA2, $05, nA2, nA2, $0A, nAb2, $05, nAb2, nAb2, $0A, nAb2
	dc.b	$05, nAb2, nAb2, $0A, nCs3, $05, nCs3, nB2, nB2, nA2, nA2, nCs3
	dc.b	$0A, nB2, $05, nB2, nB2, $0A, nB3, $05, nB3, nB3, $0A, nB2
	dc.b	$05, nB2, nB2, $0A, nB3, $05, nB3, nB3, $0A, nA2, $05, nA2
	dc.b	nA2, $0A, nA3, $05, nA3, nA3, $0A, nA3, $05, nA3, nA3, $0A
	dc.b	nA3, $05, nA3, nA3, $0A, nB3, $05, nB3, nB3, $0A, nB3, $05
	dc.b	nB3, nB3, $0A, nB3, $05, nB3, nB3, $0A, nCs4, $05, nE4, nCs4
	dc.b	$0A, nCs4, $05, nE4, nCs4, $0A, nB3, $05, nCs4, nB3, $0A, nAb3
	dc.b	$05, nA3, nAb3, $0A, nCs3, $05, nE3, nCs3, $0A, nA3, nB3, nB3
	dc.b	nAb3, nA3, nB3, nB3, nRst, $7F, $7F, $24, nFs3, $01
	smpsPan             panRight, $00
	smpsJump            Genocide_Night_Reimagined_Jump02

; FM5 Data
Genocide_Night_Reimagined_FM5:
	smpsSetvoice        $01
	smpsPan             panCenter, $00
	dc.b	nRst, $7F, $7F, $7F, $7F, $7F, $05
	smpsSetvoice        $04
	smpsAlterVol        $1D
	smpsAlterNote       $FC
	dc.b	nD5, smpsNoAttack
	smpsAlterNote       $F8
	dc.b	nD5, $01, smpsNoAttack
	smpsAlterNote       $F4
	dc.b	nD5, $01, smpsNoAttack
	smpsAlterNote       $F0
	dc.b	nD5, $01, smpsNoAttack
	smpsAlterNote       $14
	dc.b	nCs5, smpsNoAttack
	smpsAlterNote       $11
	dc.b	nCs5, $01, smpsNoAttack
	smpsAlterNote       $0D
	dc.b	nCs5, $01, smpsNoAttack
	smpsAlterNote       $09
	dc.b	nCs5, $01, smpsNoAttack
	smpsAlterNote       $05
	dc.b	nCs5, $01, smpsNoAttack
	smpsAlterNote       $02
	dc.b	nCs5, $01, smpsNoAttack
	smpsAlterNote       $FE
	dc.b	nCs5, $01, smpsNoAttack
	smpsAlterNote       $FA
	dc.b	nCs5, $01, smpsNoAttack
	smpsAlterNote       $F7
	dc.b	nCs5, $01, smpsNoAttack
	smpsAlterNote       $F3
	dc.b	nCs5, $01, smpsNoAttack
	smpsAlterNote       $EF
	dc.b	nCs5, $01, smpsNoAttack
	smpsAlterNote       $12
	dc.b	nC5, smpsNoAttack
	smpsAlterNote       $0E
	dc.b	nC5, $01, smpsNoAttack
	smpsAlterNote       $0B
	dc.b	nC5, $01, smpsNoAttack
	smpsAlterNote       $07
	dc.b	nC5, $01, smpsNoAttack
	smpsAlterNote       $04
	dc.b	nC5, $01, smpsNoAttack
	smpsAlterNote       $00
	dc.b	nC5, $01, smpsNoAttack, nC5, $01, smpsNoAttack
	smpsAlterNote       $F9
	dc.b	nC5, $01, smpsNoAttack
	smpsAlterNote       $F2
	dc.b	nC5, $01, smpsNoAttack
	smpsAlterNote       $EB
	dc.b	nC5, $01, smpsNoAttack
	smpsAlterNote       $E4
	dc.b	nC5, $01, smpsNoAttack
	smpsAlterNote       $20
	dc.b	nB4, smpsNoAttack
	smpsAlterNote       $1A
	dc.b	nB4, $01, smpsNoAttack
	smpsAlterNote       $13
	dc.b	nB4, $01, smpsNoAttack
	smpsAlterNote       $0C
	dc.b	nB4, $01, smpsNoAttack
	smpsAlterNote       $06
	dc.b	nB4, $01, smpsNoAttack
	smpsAlterNote       $FF
	dc.b	nB4, $01, smpsNoAttack
	smpsAlterNote       $F9
	dc.b	nB4, $04, smpsNoAttack, nB4, $01

Genocide_Night_Reimagined_Jump01:
	dc.b	smpsNoAttack, nB4, $09, nB3, $0A, nB3, nB4, nB3, nB3, nB4, nB3, nB3
	dc.b	nA4, nA3, nA3, nA4, nA3, nA3
	smpsAlterNote       $FB
	dc.b	nFs4, nFs3, nFs3, nFs4, nFs3, nFs3, nE4, nE3, nE3, nE4, nE3, nE3
	dc.b	nE4, nFs4, nFs3, nFs3, nFs4, nFs3, nFs3, nFs4, nE4, nE3, nE3, nE4
	dc.b	nE3, nE3, nE4
	smpsAlterNote       $FC
	dc.b	nD4, nD3, nD3, nD4, nD3, nD3, nD4
	smpsAlterNote       $FB
	dc.b	nFs4, nFs4, nE4, nE4
	smpsAlterNote       $FC
	dc.b	nCs4, nCs4, nD4, nD4
	smpsAlterNote       $FB
	dc.b	nFs4, nFs4
	smpsAlterNote       $F9
	dc.b	nA4
	smpsAlterNote       $FB
	dc.b	nFs3, nFs3, nFs4
	smpsAlterNote       $F9
	dc.b	nA4, nB4, nA4, nB4, nA4
	smpsAlterNote       $FB
	dc.b	nE4, nE4
	smpsAlterNote       $FC
	dc.b	nD4, nD4
	smpsAlterNote       $FB
	dc.b	nE4, nE4, nE4, nE4
	smpsAlterNote       $FC
	dc.b	nD4, nD4, nD4
	smpsAlterNote       $FB
	dc.b	nE4, nRst, nE4, nE4, nRst, $7F, $7F, $7F, $1D
	smpsAlterNote       $FC
	dc.b	nD5, $05, smpsNoAttack
	smpsAlterNote       $F8
	dc.b	nD5, $01, smpsNoAttack
	smpsAlterNote       $F4
	dc.b	nD5, $01, smpsNoAttack
	smpsAlterNote       $F0
	dc.b	nD5, $01, smpsNoAttack
	smpsAlterNote       $14
	dc.b	nCs5, smpsNoAttack
	smpsAlterNote       $11
	dc.b	nCs5, $01, smpsNoAttack
	smpsAlterNote       $0D
	dc.b	nCs5, $01, smpsNoAttack
	smpsAlterNote       $09
	dc.b	nCs5, $01, smpsNoAttack
	smpsAlterNote       $05
	dc.b	nCs5, $01, smpsNoAttack
	smpsAlterNote       $02
	dc.b	nCs5, $01, smpsNoAttack
	smpsAlterNote       $FE
	dc.b	nCs5, $01, smpsNoAttack
	smpsAlterNote       $FA
	dc.b	nCs5, $01, smpsNoAttack
	smpsAlterNote       $F7
	dc.b	nCs5, $01, smpsNoAttack
	smpsAlterNote       $F3
	dc.b	nCs5, $01, smpsNoAttack
	smpsAlterNote       $EF
	dc.b	nCs5, $01, smpsNoAttack
	smpsAlterNote       $12
	dc.b	nC5, smpsNoAttack
	smpsAlterNote       $0E
	dc.b	nC5, $01, smpsNoAttack
	smpsAlterNote       $0B
	dc.b	nC5, $01, smpsNoAttack
	smpsAlterNote       $07
	dc.b	nC5, $01, smpsNoAttack
	smpsAlterNote       $04
	dc.b	nC5, $01, smpsNoAttack
	smpsAlterNote       $00
	dc.b	nC5, $01, smpsNoAttack, nC5, $01, smpsNoAttack
	smpsAlterNote       $F9
	dc.b	nC5, $01, smpsNoAttack
	smpsAlterNote       $F2
	dc.b	nC5, $01, smpsNoAttack
	smpsAlterNote       $EB
	dc.b	nC5, $01, smpsNoAttack
	smpsAlterNote       $E4
	dc.b	nC5, $01, smpsNoAttack
	smpsAlterNote       $20
	dc.b	nB4, smpsNoAttack
	smpsAlterNote       $1A
	dc.b	nB4, $01, smpsNoAttack
	smpsAlterNote       $13
	dc.b	nB4, $01, smpsNoAttack
	smpsAlterNote       $0C
	dc.b	nB4, $01, smpsNoAttack
	smpsAlterNote       $06
	dc.b	nB4, $01, smpsNoAttack
	smpsAlterNote       $FF
	dc.b	nB4, $01, smpsNoAttack
	smpsAlterNote       $F9
	dc.b	nB4, $04, smpsNoAttack, nB4, $01
	smpsPan             panCenter, $00
	smpsJump            Genocide_Night_Reimagined_Jump01

; PSG1 Data
Genocide_Night_Reimagined_PSG1:
	dc.b	nRst, $7F, $3F
	smpsPSGAlterVol     $02
	dc.b	nE3, $02
	smpsPSGAlterVol     $01
	dc.b	nE3
	smpsPSGAlterVol     $01
	dc.b	nE3, $01
	smpsAlterNote       $FE
	dc.b	nE3
	smpsAlterNote       $01
	dc.b	nF3
	smpsAlterNote       $FF
	dc.b	nF3
	smpsAlterNote       $02
	dc.b	nFs3
	smpsAlterNote       $01
	dc.b	nFs3
	smpsAlterNote       $00
	dc.b	nFs3, $03
	smpsAlterNote       $01
	dc.b	nFs3, $07, nRst, $14
	smpsPSGAlterVol     $FE
	smpsAlterNote       $00
	dc.b	nE3, $02
	smpsPSGAlterVol     $01
	smpsAlterNote       $00
	dc.b	nE3
	smpsPSGAlterVol     $01
	smpsAlterNote       $00
	dc.b	nE3, $01
	smpsAlterNote       $FE
	dc.b	nE3
	smpsAlterNote       $01
	dc.b	nF3
	smpsAlterNote       $FF
	dc.b	nF3
	smpsAlterNote       $02
	dc.b	nFs3
	smpsAlterNote       $01
	dc.b	nFs3
	smpsAlterNote       $00
	dc.b	nFs3, $03
	smpsAlterNote       $01
	dc.b	nFs3, $07, nRst, $14
	smpsPSGAlterVol     $FE
	smpsAlterNote       $01
	dc.b	nFs3, $02
	smpsPSGAlterVol     $01
	smpsAlterNote       $01
	dc.b	nFs3
	smpsPSGAlterVol     $01
	smpsAlterNote       $01
	dc.b	nFs3
	smpsAlterNote       $00
	dc.b	nFs3, $04
	smpsPSGAlterVol     $FE
	dc.b	nE3, $02
	smpsPSGAlterVol     $01
	dc.b	nE3
	smpsPSGAlterVol     $01
	dc.b	nE3, $04
	smpsAlterNote       $FF
	dc.b	nE3, $02
	smpsPSGAlterVol     $FE
	smpsAlterNote       $01
	dc.b	nFs3
	smpsPSGAlterVol     $01
	smpsAlterNote       $01
	dc.b	nFs3
	smpsPSGAlterVol     $01
	smpsAlterNote       $01
	dc.b	nFs3
	smpsAlterNote       $00
	dc.b	nFs3, $04
	smpsPSGAlterVol     $FE
	dc.b	nE3, $02
	smpsPSGAlterVol     $01
	dc.b	nE3
	smpsPSGAlterVol     $01
	dc.b	nE3, $04
	smpsAlterNote       $FF
	dc.b	nE3, $02
	smpsPSGAlterVol     $FE
	smpsAlterNote       $00
	dc.b	nCs3
	smpsPSGAlterVol     $01
	smpsAlterNote       $00
	dc.b	nCs3
	smpsPSGAlterVol     $01
	smpsAlterNote       $00
	dc.b	nCs3, $04
	smpsAlterNote       $FF
	dc.b	nCs3, $02
	smpsPSGAlterVol     $FE
	smpsAlterNote       $00
	dc.b	nB2
	smpsPSGAlterVol     $01
	smpsAlterNote       $00
	dc.b	nB2
	smpsPSGAlterVol     $01
	smpsAlterNote       $00
	dc.b	nB2, $0C
	smpsAlterNote       $01
	dc.b	nB2, $04
	smpsPSGAlterVol     $FE
	smpsAlterNote       $00
	dc.b	nA2, $02
	smpsPSGAlterVol     $01
	smpsAlterNote       $00
	dc.b	nA2
	smpsPSGAlterVol     $01
	smpsAlterNote       $00
	dc.b	nA2, $05
	smpsAlterNote       $FF
	dc.b	nA2, $01
	smpsAlterNote       $00
	dc.b	nA2, $07
	smpsAlterNote       $01
	dc.b	nA2, $03
	smpsPSGAlterVol     $FE
	smpsAlterNote       $00
	dc.b	nA2, $02
	smpsPSGAlterVol     $01
	smpsAlterNote       $00
	dc.b	nA2
	smpsPSGAlterVol     $01
	smpsAlterNote       $00
	dc.b	nA2, $05
	smpsAlterNote       $FF
	dc.b	nA2, $01
	smpsPSGAlterVol     $FE
	smpsAlterNote       $01
	dc.b	nCs2, $02
	smpsPSGAlterVol     $01
	smpsAlterNote       $01
	dc.b	nCs2
	smpsPSGAlterVol     $01
	smpsAlterNote       $01
	dc.b	nCs2
	smpsAlterNote       $00
	dc.b	nCs2, $04
	smpsPSGAlterVol     $FE
	smpsAlterNote       $01
	dc.b	nE2, $02
	smpsPSGAlterVol     $01
	smpsAlterNote       $01
	dc.b	nE2
	smpsPSGAlterVol     $01
	smpsAlterNote       $01
	dc.b	nE2
	smpsAlterNote       $00
	dc.b	nE2, $04
	smpsPSGAlterVol     $FE
	dc.b	nFs2, $02
	smpsPSGAlterVol     $01
	dc.b	nFs2
	smpsPSGAlterVol     $01
	dc.b	nFs2, $04
	smpsAlterNote       $FF
	dc.b	nFs2, $02
	smpsPSGAlterVol     $FE
	smpsAlterNote       $00
	dc.b	nA2
	smpsPSGAlterVol     $01
	smpsAlterNote       $00
	dc.b	nA2
	smpsPSGAlterVol     $01
	smpsAlterNote       $00
	dc.b	nA2, $05
	smpsAlterNote       $FF
	dc.b	nA2, $01
	smpsAlterNote       $00
	dc.b	nA2, $07
	smpsAlterNote       $01
	dc.b	nA2, $03
	smpsPSGAlterVol     $FE
	smpsAlterNote       $00
	dc.b	nB2, $02
	smpsPSGAlterVol     $01
	smpsAlterNote       $00
	dc.b	nB2
	smpsPSGAlterVol     $01
	smpsAlterNote       $00
	dc.b	nB2, $0C
	smpsAlterNote       $01
	dc.b	nB2, $04
	smpsPSGAlterVol     $FE
	smpsAlterNote       $00
	dc.b	nCs3, $02
	smpsPSGAlterVol     $01
	smpsAlterNote       $00
	dc.b	nCs3
	smpsPSGAlterVol     $01
	smpsAlterNote       $00
	dc.b	nCs3, $04
	smpsAlterNote       $FF
	dc.b	nCs3, $03
	smpsAlterNote       $00
	dc.b	nCs3, $09
	smpsPSGAlterVol     $FE
	smpsAlterNote       $01
	dc.b	nFs3, $02
	smpsPSGAlterVol     $01
	smpsAlterNote       $01
	dc.b	nFs3
	smpsPSGAlterVol     $01
	smpsAlterNote       $01
	dc.b	nFs3, $01
	smpsPSGAlterVol     $FE
	smpsAlterNote       $00
	dc.b	nE3, $02
	smpsPSGAlterVol     $01
	smpsAlterNote       $00
	dc.b	nE3
	smpsPSGAlterVol     $01
	smpsAlterNote       $00
	dc.b	nE3, $01
	smpsPSGAlterVol     $FE
	dc.b	nCs3, $02
	smpsPSGAlterVol     $01
	dc.b	nCs3
	smpsPSGAlterVol     $01
	dc.b	nCs3, $01
	smpsPSGAlterVol     $FE
	dc.b	nE3, $02
	smpsPSGAlterVol     $01
	dc.b	nE3
	smpsPSGAlterVol     $01
	dc.b	nE3, $01
	smpsPSGAlterVol     $FE
	dc.b	nCs3, $02
	smpsPSGAlterVol     $01
	dc.b	nCs3
	smpsPSGAlterVol     $01
	dc.b	nCs3, $01
	smpsPSGAlterVol     $FE
	dc.b	nB2, $02
	smpsPSGAlterVol     $01
	dc.b	nB2
	smpsPSGAlterVol     $01
	dc.b	nB2, $01
	smpsPSGAlterVol     $FE
	dc.b	nCs3, $02
	smpsPSGAlterVol     $01
	dc.b	nCs3
	smpsPSGAlterVol     $01
	dc.b	nCs3, $01
	smpsPSGAlterVol     $FE
	dc.b	nA2, $02
	smpsPSGAlterVol     $01
	dc.b	nA2
	smpsPSGAlterVol     $01
	dc.b	nA2, $01
	smpsPSGAlterVol     $FE
	dc.b	nB2, $02
	smpsPSGAlterVol     $01
	dc.b	nB2
	smpsPSGAlterVol     $01
	dc.b	nB2, $01
	smpsPSGAlterVol     $FE
	dc.b	nFs2, $02
	smpsPSGAlterVol     $01
	dc.b	nFs2
	smpsPSGAlterVol     $01
	dc.b	nFs2, $01
	smpsPSGAlterVol     $FE
	dc.b	nA2, $02
	smpsPSGAlterVol     $01
	dc.b	nA2
	smpsPSGAlterVol     $01
	dc.b	nA2, $01
	smpsPSGAlterVol     $FE
	smpsAlterNote       $01
	dc.b	nE2, $02
	smpsPSGAlterVol     $01
	smpsAlterNote       $01
	dc.b	nE2
	smpsPSGAlterVol     $01
	smpsAlterNote       $01
	dc.b	nE2, $01
	smpsPSGAlterVol     $FE
	smpsAlterNote       $00
	dc.b	nFs2, $02
	smpsPSGAlterVol     $01
	smpsAlterNote       $00
	dc.b	nFs2
	smpsPSGAlterVol     $01
	smpsAlterNote       $00
	dc.b	nFs2, $01
	smpsPSGAlterVol     $FE
	smpsAlterNote       $01
	dc.b	nCs2, $02
	smpsPSGAlterVol     $01
	smpsAlterNote       $01
	dc.b	nCs2
	smpsPSGAlterVol     $01
	smpsAlterNote       $01
	dc.b	nCs2, $01
	smpsPSGAlterVol     $FE
	dc.b	nE2, $02
	smpsPSGAlterVol     $01
	dc.b	nE2
	smpsPSGAlterVol     $01
	dc.b	nE2, $01
	smpsPSGAlterVol     $FE
	smpsAlterNote       $00
	dc.b	nA1, $02
	smpsPSGAlterVol     $01
	smpsAlterNote       $00
	dc.b	nA1
	smpsPSGAlterVol     $01
	smpsAlterNote       $00
	dc.b	nA1, $01
	smpsPSGAlterVol     $FE
	dc.b	nB1, $02
	smpsPSGAlterVol     $01
	dc.b	nB1
	smpsPSGAlterVol     $01
	dc.b	nB1, $01
	smpsPSGAlterVol     $FE
	dc.b	nFs1, $02
	smpsPSGAlterVol     $01
	dc.b	nFs1
	smpsPSGAlterVol     $01
	dc.b	nFs1, $01
	smpsPSGAlterVol     $FE
	dc.b	nA1, $02
	smpsPSGAlterVol     $01
	dc.b	nA1
	smpsPSGAlterVol     $01
	dc.b	nA1, $03
	smpsAlterNote       $FF
	dc.b	nA1
	smpsPSGAlterVol     $FE
	smpsAlterNote       $00
	dc.b	nA1, $02
	smpsPSGAlterVol     $01
	smpsAlterNote       $00
	dc.b	nA1
	smpsPSGAlterVol     $01
	smpsAlterNote       $00
	dc.b	nA1, $03
	smpsAlterNote       $FF
	dc.b	nA1
	smpsPSGAlterVol     $FE
	smpsAlterNote       $01
	dc.b	nE2, $02
	smpsPSGAlterVol     $01
	smpsAlterNote       $01
	dc.b	nE2
	smpsPSGAlterVol     $01
	smpsAlterNote       $01
	dc.b	nE2
	smpsAlterNote       $00
	dc.b	nE2, $04
	smpsPSGAlterVol     $FE
	smpsAlterNote       $01
	dc.b	nE2, $02
	smpsPSGAlterVol     $01
	smpsAlterNote       $01
	dc.b	nE2
	smpsPSGAlterVol     $01
	smpsAlterNote       $01
	dc.b	nE2
	smpsAlterNote       $00
	dc.b	nE2, $04
	smpsPSGAlterVol     $FE
	smpsAlterNote       $01
	dc.b	nCs2, $02
	smpsPSGAlterVol     $01
	smpsAlterNote       $01
	dc.b	nCs2
	smpsPSGAlterVol     $01
	smpsAlterNote       $01
	dc.b	nCs2
	smpsAlterNote       $00
	dc.b	nCs2, $04
	smpsPSGAlterVol     $FE
	smpsAlterNote       $01
	dc.b	nCs2, $02
	smpsPSGAlterVol     $01
	smpsAlterNote       $01
	dc.b	nCs2
	smpsPSGAlterVol     $01
	smpsAlterNote       $01
	dc.b	nCs2
	smpsAlterNote       $00
	dc.b	nCs2, $04
	smpsPSGAlterVol     $FE
	smpsAlterNote       $01
	dc.b	nE2, $02
	smpsPSGAlterVol     $01
	smpsAlterNote       $01
	dc.b	nE2
	smpsPSGAlterVol     $01
	smpsAlterNote       $01
	dc.b	nE2
	smpsAlterNote       $00
	dc.b	nE2, $04
	smpsPSGAlterVol     $FE
	smpsAlterNote       $01
	dc.b	nE2, $02
	smpsPSGAlterVol     $01
	smpsAlterNote       $01
	dc.b	nE2
	smpsPSGAlterVol     $01
	smpsAlterNote       $01
	dc.b	nE2
	smpsAlterNote       $00
	dc.b	nE2, $04
	smpsPSGAlterVol     $FE
	smpsAlterNote       $01
	dc.b	nE2, $02
	smpsPSGAlterVol     $01
	smpsAlterNote       $01
	dc.b	nE2
	smpsPSGAlterVol     $01
	smpsAlterNote       $01
	dc.b	nE2
	smpsAlterNote       $00
	dc.b	nE2, $04, nRst, $28, nFs2, $02

Genocide_Night_Reimagined_Jump08:
	dc.b	nFs2, $01
	smpsPSGAlterVol     $01
	dc.b	nFs2, $02
	smpsPSGAlterVol     $01
	dc.b	nFs2
	smpsAlterNote       $FF
	dc.b	nFs2, $04
	smpsPSGAlterVol     $FE
	smpsAlterNote       $00
	dc.b	nFs1, $02
	smpsPSGAlterVol     $01
	smpsAlterNote       $00
	dc.b	nFs1
	smpsPSGAlterVol     $01
	smpsAlterNote       $00
	dc.b	nFs1, $01
	smpsAlterNote       $FF
	dc.b	nFs1, $02
	smpsAlterNote       $FE
	dc.b	nFs1, $03
	smpsPSGAlterVol     $FE
	smpsAlterNote       $00
	dc.b	nFs1, $02
	smpsPSGAlterVol     $01
	smpsAlterNote       $00
	dc.b	nFs1
	smpsPSGAlterVol     $01
	smpsAlterNote       $00
	dc.b	nFs1, $01
	smpsAlterNote       $FF
	dc.b	nFs1, $02
	smpsAlterNote       $FE
	dc.b	nFs1, $03
	smpsPSGAlterVol     $FE
	smpsAlterNote       $00
	dc.b	nFs2, $02
	smpsPSGAlterVol     $01
	smpsAlterNote       $00
	dc.b	nFs2
	smpsPSGAlterVol     $01
	smpsAlterNote       $00
	dc.b	nFs2
	smpsAlterNote       $FF
	dc.b	nFs2, $04
	smpsPSGAlterVol     $FE
	smpsAlterNote       $00
	dc.b	nE2, $02
	smpsPSGAlterVol     $01
	smpsAlterNote       $00
	dc.b	nE2
	smpsPSGAlterVol     $01
	smpsAlterNote       $00
	dc.b	nE2, $04
	smpsAlterNote       $FF
	dc.b	nE2, $02
	smpsPSGAlterVol     $FE
	dc.b	nE1
	smpsPSGAlterVol     $01
	dc.b	nE1
	smpsPSGAlterVol     $01
	dc.b	nE1, $03
	smpsAlterNote       $FE
	dc.b	nE1
	smpsPSGAlterVol     $FE
	smpsAlterNote       $FF
	dc.b	nE1, $02
	smpsPSGAlterVol     $01
	smpsAlterNote       $FF
	dc.b	nE1
	smpsPSGAlterVol     $01
	smpsAlterNote       $FF
	dc.b	nE1, $03
	smpsAlterNote       $FE
	dc.b	nE1
	smpsPSGAlterVol     $FE
	smpsAlterNote       $00
	dc.b	nFs2, $02
	smpsPSGAlterVol     $01
	smpsAlterNote       $00
	dc.b	nFs2
	smpsPSGAlterVol     $01
	smpsAlterNote       $00
	dc.b	nFs2
	smpsAlterNote       $FF
	dc.b	nFs2, $04
	smpsPSGAlterVol     $FE
	smpsAlterNote       $00
	dc.b	nFs1, $02
	smpsPSGAlterVol     $01
	smpsAlterNote       $00
	dc.b	nFs1
	smpsPSGAlterVol     $01
	smpsAlterNote       $00
	dc.b	nFs1, $01
	smpsAlterNote       $FF
	dc.b	nFs1, $02
	smpsAlterNote       $FE
	dc.b	nFs1, $03
	smpsPSGAlterVol     $FE
	smpsAlterNote       $00
	dc.b	nFs1, $02
	smpsPSGAlterVol     $01
	smpsAlterNote       $00
	dc.b	nFs1
	smpsPSGAlterVol     $01
	smpsAlterNote       $00
	dc.b	nFs1, $01
	smpsAlterNote       $FF
	dc.b	nFs1, $02
	smpsAlterNote       $FE
	dc.b	nFs1, $03
	smpsPSGAlterVol     $FE
	smpsAlterNote       $00
	dc.b	nFs2, $02
	smpsPSGAlterVol     $01
	smpsAlterNote       $00
	dc.b	nFs2
	smpsPSGAlterVol     $01
	smpsAlterNote       $00
	dc.b	nFs2
	smpsAlterNote       $FF
	dc.b	nFs2, $04
	smpsPSGAlterVol     $FE
	smpsAlterNote       $00
	dc.b	nE2, $02
	smpsPSGAlterVol     $01
	smpsAlterNote       $00
	dc.b	nE2
	smpsPSGAlterVol     $01
	smpsAlterNote       $00
	dc.b	nE2, $04
	smpsAlterNote       $FF
	dc.b	nE2, $02
	smpsPSGAlterVol     $FE
	dc.b	nE1
	smpsPSGAlterVol     $01
	dc.b	nE1
	smpsPSGAlterVol     $01
	dc.b	nE1, $03
	smpsAlterNote       $FE
	dc.b	nE1
	smpsPSGAlterVol     $FE
	smpsAlterNote       $FF
	dc.b	nE1, $02
	smpsPSGAlterVol     $01
	smpsAlterNote       $FF
	dc.b	nE1
	smpsPSGAlterVol     $01
	smpsAlterNote       $FF
	dc.b	nE1, $03
	smpsAlterNote       $FE
	dc.b	nE1
	smpsPSGAlterVol     $FE
	smpsAlterNote       $00
	dc.b	nFs2, $02
	smpsPSGAlterVol     $01
	smpsAlterNote       $00
	dc.b	nFs2
	smpsPSGAlterVol     $01
	smpsAlterNote       $00
	dc.b	nFs2
	smpsAlterNote       $FF
	dc.b	nFs2, $04
	smpsPSGAlterVol     $FE
	smpsAlterNote       $00
	dc.b	nE2, $02
	smpsPSGAlterVol     $01
	smpsAlterNote       $00
	dc.b	nE2
	smpsPSGAlterVol     $01
	smpsAlterNote       $00
	dc.b	nE2, $04
	smpsAlterNote       $FF
	dc.b	nE2, $02
	smpsPSGAlterVol     $FE
	dc.b	nE1
	smpsPSGAlterVol     $01
	dc.b	nE1
	smpsPSGAlterVol     $01
	dc.b	nE1, $03
	smpsAlterNote       $FE
	dc.b	nE1
	smpsPSGAlterVol     $FE
	smpsAlterNote       $FF
	dc.b	nE1, $02
	smpsPSGAlterVol     $01
	smpsAlterNote       $FF
	dc.b	nE1
	smpsPSGAlterVol     $01
	smpsAlterNote       $FF
	dc.b	nE1, $03
	smpsAlterNote       $FE
	dc.b	nE1
	smpsPSGAlterVol     $FE
	smpsAlterNote       $00
	dc.b	nE2, $02
	smpsPSGAlterVol     $01
	smpsAlterNote       $00
	dc.b	nE2
	smpsPSGAlterVol     $01
	smpsAlterNote       $00
	dc.b	nE2, $04
	smpsAlterNote       $FF
	dc.b	nE2, $02
	smpsPSGAlterVol     $FE
	smpsAlterNote       $00
	dc.b	nD2
	smpsPSGAlterVol     $01
	smpsAlterNote       $00
	dc.b	nD2
	smpsPSGAlterVol     $01
	smpsAlterNote       $00
	dc.b	nD2
	smpsAlterNote       $FF
	dc.b	nD2, $04
	smpsPSGAlterVol     $FE
	dc.b	nD1, $02
	smpsPSGAlterVol     $01
	dc.b	nD1
	smpsPSGAlterVol     $01
	dc.b	nD1
	smpsAlterNote       $FE
	dc.b	nD1
	smpsAlterNote       $FD
	dc.b	nD1
	smpsPSGAlterVol     $FE
	smpsAlterNote       $FF
	dc.b	nD1
	smpsPSGAlterVol     $01
	smpsAlterNote       $FF
	dc.b	nD1
	smpsPSGAlterVol     $01
	smpsAlterNote       $FF
	dc.b	nD1
	smpsAlterNote       $FE
	dc.b	nD1
	smpsAlterNote       $FD
	dc.b	nD1
	smpsPSGAlterVol     $FE
	smpsAlterNote       $00
	dc.b	nD2
	smpsPSGAlterVol     $01
	smpsAlterNote       $00
	dc.b	nD2
	smpsPSGAlterVol     $01
	smpsAlterNote       $00
	dc.b	nD2
	smpsAlterNote       $FF
	dc.b	nD2, $04
	smpsPSGAlterVol     $FE
	smpsAlterNote       $00
	dc.b	nE2, $02
	smpsPSGAlterVol     $01
	smpsAlterNote       $00
	dc.b	nE2
	smpsPSGAlterVol     $01
	smpsAlterNote       $00
	dc.b	nE2, $04
	smpsAlterNote       $FF
	dc.b	nE2, $02
	smpsPSGAlterVol     $FE
	dc.b	nE1
	smpsPSGAlterVol     $01
	dc.b	nE1
	smpsPSGAlterVol     $01
	dc.b	nE1, $03
	smpsAlterNote       $FE
	dc.b	nE1
	smpsPSGAlterVol     $FE
	smpsAlterNote       $FF
	dc.b	nE1, $02
	smpsPSGAlterVol     $01
	smpsAlterNote       $FF
	dc.b	nE1
	smpsPSGAlterVol     $01
	smpsAlterNote       $FF
	dc.b	nE1, $03
	smpsAlterNote       $FE
	dc.b	nE1
	smpsPSGAlterVol     $FE
	smpsAlterNote       $00
	dc.b	nFs2, $02
	smpsPSGAlterVol     $01
	smpsAlterNote       $00
	dc.b	nFs2
	smpsPSGAlterVol     $01
	smpsAlterNote       $00
	dc.b	nFs2
	smpsAlterNote       $FF
	dc.b	nFs2, $04
	smpsPSGAlterVol     $FE
	smpsAlterNote       $00
	dc.b	nFs1, $02
	smpsPSGAlterVol     $01
	smpsAlterNote       $00
	dc.b	nFs1
	smpsPSGAlterVol     $01
	smpsAlterNote       $00
	dc.b	nFs1, $01
	smpsAlterNote       $FF
	dc.b	nFs1, $02
	smpsAlterNote       $FE
	dc.b	nFs1, $03
	smpsPSGAlterVol     $FE
	smpsAlterNote       $00
	dc.b	nB2, $02
	smpsPSGAlterVol     $01
	smpsAlterNote       $00
	dc.b	nB2
	smpsPSGAlterVol     $01
	smpsAlterNote       $00
	dc.b	nB2, $06
	smpsAlterNote       $01
	dc.b	nB2, $03
	smpsAlterNote       $02
	dc.b	nB2
	smpsAlterNote       $03
	dc.b	nB2
	smpsAlterNote       $FD
	dc.b	nBb2, $0A
	smpsAlterNote       $FE
	dc.b	nBb2, $04
	smpsAlterNote       $FF
	dc.b	nBb2, $02
	smpsAlterNote       $00
	dc.b	nBb2, $03
	smpsAlterNote       $01
	dc.b	nBb2, $07
	smpsAlterNote       $02
	dc.b	nBb2
	smpsAlterNote       $03
	dc.b	nBb2, $02
	smpsAlterNote       $FD
	dc.b	nA2, $03
	smpsAlterNote       $FE
	dc.b	nA2
	smpsAlterNote       $FF
	dc.b	nA2, $0A
	smpsAlterNote       $00
	dc.b	nA2, $03
	smpsAlterNote       $01
	dc.b	nA2
	smpsAlterNote       $02
	dc.b	nA2, $02
	smpsAlterNote       $03
	dc.b	nA2, $07
	smpsAlterNote       $FC
	dc.b	nAb2, $06
	smpsAlterNote       $FD
	dc.b	nAb2, $02
	smpsAlterNote       $FE
	dc.b	nAb2, $03
	smpsAlterNote       $FF
	dc.b	nAb2
	smpsAlterNote       $00
	dc.b	nAb2, $08
	smpsAlterNote       $01
	dc.b	nAb2, $04
	smpsAlterNote       $02
	dc.b	nAb2, $03
	smpsAlterNote       $03
	dc.b	nAb2, $02
	smpsAlterNote       $FC
	dc.b	nG2, $03
	smpsAlterNote       $FD
	dc.b	nG2, $08
	smpsAlterNote       $FE
	dc.b	nG2, $04
	smpsAlterNote       $FF
	dc.b	nG2, $03
	smpsAlterNote       $00
	dc.b	nG2, $02
	smpsAlterNote       $01
	dc.b	nG2, $03
	smpsAlterNote       $02
	dc.b	nG2, $06
	smpsAlterNote       $03
	dc.b	nG2
	smpsAlterNote       $FC
	dc.b	nFs2, $02
	smpsAlterNote       $FD
	dc.b	nFs2, $03
	smpsAlterNote       $FE
	dc.b	nFs2, $02
	smpsAlterNote       $FF
	dc.b	nFs2, $04
	smpsAlterNote       $00
	dc.b	nFs2, $08
	smpsPSGAlterVol     $FE
	dc.b	nCs2, $02
	smpsPSGAlterVol     $01
	dc.b	nCs2
	smpsPSGAlterVol     $01
	dc.b	nCs2, $04
	smpsAlterNote       $FF
	dc.b	nCs2, $02
	smpsPSGAlterVol     $FE
	smpsAlterNote       $00
	dc.b	nCs2
	smpsPSGAlterVol     $01
	smpsAlterNote       $00
	dc.b	nCs2
	smpsPSGAlterVol     $01
	smpsAlterNote       $00
	dc.b	nCs2, $04
	smpsAlterNote       $FF
	dc.b	nCs2, $02
	smpsPSGAlterVol     $FE
	smpsAlterNote       $00
	dc.b	nE2
	smpsPSGAlterVol     $01
	smpsAlterNote       $00
	dc.b	nE2
	smpsPSGAlterVol     $01
	smpsAlterNote       $00
	dc.b	nE2, $04
	smpsAlterNote       $FF
	dc.b	nE2, $02
	smpsPSGAlterVol     $FE
	smpsAlterNote       $00
	dc.b	nE2
	smpsPSGAlterVol     $01
	smpsAlterNote       $00
	dc.b	nE2
	smpsPSGAlterVol     $01
	smpsAlterNote       $00
	dc.b	nE2, $04
	smpsAlterNote       $FF
	dc.b	nE2, $02
	smpsPSGAlterVol     $FE
	smpsAlterNote       $00
	dc.b	nCs2
	smpsPSGAlterVol     $01
	smpsAlterNote       $00
	dc.b	nCs2
	smpsPSGAlterVol     $01
	smpsAlterNote       $00
	dc.b	nCs2, $04
	smpsAlterNote       $FF
	dc.b	nCs2, $02
	smpsPSGAlterVol     $FE
	smpsAlterNote       $00
	dc.b	nCs2
	smpsPSGAlterVol     $01
	smpsAlterNote       $00
	dc.b	nCs2
	smpsPSGAlterVol     $01
	smpsAlterNote       $00
	dc.b	nCs2, $04
	smpsAlterNote       $FF
	dc.b	nCs2, $02
	smpsPSGAlterVol     $FE
	smpsAlterNote       $00
	dc.b	nB1
	smpsPSGAlterVol     $01
	smpsAlterNote       $00
	dc.b	nB1
	smpsPSGAlterVol     $01
	smpsAlterNote       $00
	dc.b	nB1
	smpsAlterNote       $FF
	dc.b	nB1, $04
	smpsPSGAlterVol     $FE
	smpsAlterNote       $00
	dc.b	nB1, $02
	smpsPSGAlterVol     $01
	smpsAlterNote       $00
	dc.b	nB1
	smpsPSGAlterVol     $01
	smpsAlterNote       $00
	dc.b	nB1
	smpsAlterNote       $FF
	dc.b	nB1, $04
	smpsPSGAlterVol     $FE
	smpsAlterNote       $00
	dc.b	nCs2, $02
	smpsPSGAlterVol     $01
	smpsAlterNote       $00
	dc.b	nCs2
	smpsPSGAlterVol     $01
	smpsAlterNote       $00
	dc.b	nCs2, $04
	smpsAlterNote       $FF
	dc.b	nCs2, $02
	smpsPSGAlterVol     $FE
	smpsAlterNote       $00
	dc.b	nCs2
	smpsPSGAlterVol     $01
	smpsAlterNote       $00
	dc.b	nCs2
	smpsPSGAlterVol     $01
	smpsAlterNote       $00
	dc.b	nCs2, $04
	smpsAlterNote       $FF
	dc.b	nCs2, $03
	smpsAlterNote       $00
	dc.b	nCs2, $05
	smpsAlterNote       $01
	dc.b	nCs2, $07
	smpsAlterNote       $00
	dc.b	nCs2, $05
	smpsAlterNote       $FF
	dc.b	nCs2, $03
	smpsAlterNote       $00
	dc.b	nCs2, $05
	smpsAlterNote       $01
	dc.b	nCs2, $04
	smpsPSGAlterVol     $FE
	smpsAlterNote       $00
	dc.b	nB2, $02
	smpsPSGAlterVol     $01
	smpsAlterNote       $00
	dc.b	nB2
	smpsPSGAlterVol     $01
	smpsAlterNote       $00
	dc.b	nB2, $04
	smpsAlterNote       $FF
	dc.b	nB2, $02
	smpsPSGAlterVol     $FE
	smpsAlterNote       $00
	dc.b	nB2
	smpsPSGAlterVol     $01
	smpsAlterNote       $00
	dc.b	nB2
	smpsPSGAlterVol     $01
	smpsAlterNote       $00
	dc.b	nB2, $04
	smpsAlterNote       $FF
	dc.b	nB2, $02
	smpsPSGAlterVol     $FC
	smpsAlterNote       $00
	dc.b	nFs1
	smpsPSGAlterVol     $01
	smpsAlterNote       $00
	dc.b	nFs1
	smpsPSGAlterVol     $01
	smpsAlterNote       $00
	dc.b	nFs1, $01
	smpsAlterNote       $FF
	dc.b	nFs1, $02
	smpsAlterNote       $FE
	dc.b	nFs1, $03
	smpsAlterNote       $FC
	dc.b	nFs1
	smpsAlterNote       $FD
	dc.b	nFs1, $01
	smpsAlterNote       $FF
	dc.b	nFs1
	smpsAlterNote       $01
	dc.b	nFs1
	smpsAlterNote       $03
	dc.b	nFs1
	smpsAlterNote       $04
	dc.b	nFs1
	smpsAlterNote       $03
	dc.b	nFs1
	smpsAlterNote       $02
	dc.b	nFs1
	smpsAlterNote       $00
	dc.b	nFs1
	smpsAlterNote       $FE
	dc.b	nFs1
	smpsAlterNote       $FD
	dc.b	nFs1, $02
	smpsAlterNote       $FE
	dc.b	nFs1, $01
	smpsAlterNote       $FF
	dc.b	nFs1
	smpsAlterNote       $00
	dc.b	nFs1
	smpsAlterNote       $01
	dc.b	nFs1, $02
	smpsAlterNote       $00
	dc.b	nFs1, $01
	smpsPSGAlterVol     $FE
	dc.b	nE2, $02
	smpsPSGAlterVol     $01
	dc.b	nE2
	smpsPSGAlterVol     $01
	dc.b	nE2, $04
	smpsAlterNote       $FF
	dc.b	nE2, $02
	smpsPSGAlterVol     $FE
	smpsAlterNote       $00
	dc.b	nFs2
	smpsPSGAlterVol     $01
	smpsAlterNote       $00
	dc.b	nFs2
	smpsPSGAlterVol     $01
	smpsAlterNote       $00
	dc.b	nFs2
	smpsAlterNote       $FF
	dc.b	nFs2, $04
	smpsPSGAlterVol     $FE
	smpsAlterNote       $00
	dc.b	nE2, $02
	smpsPSGAlterVol     $01
	smpsAlterNote       $00
	dc.b	nE2
	smpsPSGAlterVol     $01
	smpsAlterNote       $00
	dc.b	nE2, $04
	smpsAlterNote       $FF
	dc.b	nE2, $02
	smpsPSGAlterVol     $FE
	smpsAlterNote       $00
	dc.b	nFs2
	smpsPSGAlterVol     $01
	smpsAlterNote       $00
	dc.b	nFs2
	smpsPSGAlterVol     $01
	smpsAlterNote       $00
	dc.b	nFs2
	smpsAlterNote       $FF
	dc.b	nFs2, $04
	smpsPSGAlterVol     $FE
	smpsAlterNote       $00
	dc.b	nE2, $02
	smpsPSGAlterVol     $01
	smpsAlterNote       $00
	dc.b	nE2
	smpsPSGAlterVol     $01
	smpsAlterNote       $00
	dc.b	nE2, $04
	smpsAlterNote       $FF
	dc.b	nE2, $03
	smpsAlterNote       $00
	dc.b	nE2, $05
	smpsAlterNote       $01
	dc.b	nE2, $04
	smpsPSGAlterVol     $FE
	smpsAlterNote       $00
	dc.b	nCs2, $02
	smpsPSGAlterVol     $01
	smpsAlterNote       $00
	dc.b	nCs2
	smpsPSGAlterVol     $01
	smpsAlterNote       $00
	dc.b	nCs2, $04
	smpsAlterNote       $FF
	dc.b	nCs2, $03
	smpsAlterNote       $00
	dc.b	nCs2, $05
	smpsAlterNote       $01
	dc.b	nCs2, $04
	smpsAlterNote       $FC
	dc.b	nC2, $01
	smpsAlterNote       $05
	dc.b	nC2
	smpsAlterNote       $01
	dc.b	nB1
	smpsAlterNote       $FD
	dc.b	nBb1
	smpsAlterNote       $06
	dc.b	nBb1
	smpsAlterNote       $FF
	dc.b	nA1, $03
	smpsAlterNote       $FE
	dc.b	nA1
	smpsAlterNote       $FF
	dc.b	nA1
	smpsAlterNote       $00
	dc.b	nA1, $04
	smpsAlterNote       $01
	dc.b	nA1, $02
	smpsPSGAlterVol     $FE
	smpsAlterNote       $00
	dc.b	nB1
	smpsPSGAlterVol     $01
	smpsAlterNote       $00
	dc.b	nB1
	smpsPSGAlterVol     $01
	smpsAlterNote       $00
	dc.b	nB1
	smpsAlterNote       $FF
	dc.b	nB1, $04
	smpsAlterNote       $04
	dc.b	nB1, $01
	smpsAlterNote       $FC
	dc.b	nBb1
	smpsAlterNote       $01
	dc.b	nBb1
	smpsAlterNote       $07
	dc.b	nBb1
	smpsAlterNote       $FE
	dc.b	nA1
	smpsAlterNote       $00
	dc.b	nA1, $03
	smpsAlterNote       $01
	dc.b	nA1, $02
	smpsAlterNote       $FB
	dc.b	nA1, $01
	smpsAlterNote       $05
	dc.b	nBb1
	smpsAlterNote       $FF
	dc.b	nBb1
	smpsAlterNote       $FA
	dc.b	nBb1
	smpsAlterNote       $02
	dc.b	nB1
	smpsAlterNote       $00
	dc.b	nB1
	smpsAlterNote       $FF
	dc.b	nB1, $07
	smpsAlterNote       $00
	dc.b	nB1, $04
	smpsAlterNote       $01
	dc.b	nB1, $03
	smpsPSGAlterVol     $FE
	smpsAlterNote       $00
	dc.b	nA1, $02
	smpsPSGAlterVol     $01
	smpsAlterNote       $00
	dc.b	nA1
	smpsPSGAlterVol     $01
	smpsAlterNote       $00
	dc.b	nA1, $01
	smpsAlterNote       $FF
	dc.b	nA1, $03
	smpsAlterNote       $FE
	dc.b	nA1
	smpsAlterNote       $FF
	dc.b	nA1
	smpsAlterNote       $00
	dc.b	nA1, $04
	smpsAlterNote       $01
	dc.b	nA1, $02
	smpsPSGAlterVol     $FE
	smpsAlterNote       $00
	dc.b	nA1
	smpsPSGAlterVol     $01
	smpsAlterNote       $00
	dc.b	nA1
	smpsPSGAlterVol     $01
	smpsAlterNote       $00
	dc.b	nA1, $01
	smpsAlterNote       $FF
	dc.b	nA1, $03
	smpsAlterNote       $FE
	dc.b	nA1, $02
	smpsAlterNote       $F9
	dc.b	nA1, $01
	smpsAlterNote       $03
	dc.b	nBb1
	smpsAlterNote       $FE
	dc.b	nBb1
	smpsAlterNote       $06
	dc.b	nB1
	smpsAlterNote       $02
	dc.b	nB1
	smpsAlterNote       $00
	dc.b	nB1, $02
	smpsAlterNote       $01
	dc.b	nB1, $05
	smpsAlterNote       $00
	dc.b	nB1, $04
	smpsAlterNote       $FF
	dc.b	nB1
	smpsAlterNote       $FE
	dc.b	nB1, $01
	smpsAlterNote       $FD
	dc.b	nB1, $02
	smpsAlterNote       $FE
	dc.b	nB1, $01
	smpsAlterNote       $FF
	dc.b	nB1
	smpsAlterNote       $01
	dc.b	nB1
	smpsAlterNote       $02
	dc.b	nB1
	smpsAlterNote       $03
	dc.b	nB1, $02
	smpsAlterNote       $02
	dc.b	nB1, $01
	smpsAlterNote       $00
	dc.b	nB1
	smpsAlterNote       $FF
	dc.b	nB1
	smpsAlterNote       $FE
	dc.b	nB1, $02
	smpsAlterNote       $FF
	dc.b	nB1, $01
	smpsAlterNote       $00
	dc.b	nB1
	smpsAlterNote       $01
	dc.b	nB1, $03
	smpsAlterNote       $00
	dc.b	nB1, $01
	smpsAlterNote       $FF
	dc.b	nB1
	smpsAlterNote       $FE
	dc.b	nB1
	smpsAlterNote       $FD
	dc.b	nB1, $02
	smpsAlterNote       $FE
	dc.b	nB1, $01
	smpsAlterNote       $FF
	dc.b	nB1
	smpsAlterNote       $01
	dc.b	nB1
	smpsAlterNote       $02
	dc.b	nB1
	smpsAlterNote       $03
	dc.b	nB1, $02, nBb1, $01
	smpsAlterNote       $00
	dc.b	nA1
	smpsAlterNote       $FF
	dc.b	nAb1
	smpsAlterNote       $FD
	dc.b	nG1
	smpsAlterNote       $FC
	dc.b	nFs1
	smpsAlterNote       $FD
	dc.b	nF1
	smpsAlterNote       $FE
	dc.b	nE1
	smpsAlterNote       $00
	dc.b	nEb1, nD1
	smpsAlterNote       $01
	dc.b	nCs1, nRst, $3C
	smpsPSGAlterVol     $FE
	smpsAlterNote       $FF
	dc.b	nD2, $01
	smpsAlterNote       $FE
	dc.b	nD2
	smpsPSGAlterVol     $01
	smpsAlterNote       $FE
	dc.b	nD2
	smpsAlterNote       $FF
	dc.b	nD2
	smpsPSGAlterVol     $01
	smpsAlterNote       $00
	dc.b	nD2
	smpsAlterNote       $01
	dc.b	nD2, $04
	smpsAlterNote       $00
	dc.b	nD2, $01
	smpsPSGAlterVol     $FE
	smpsAlterNote       $FF
	dc.b	nE2, $02
	smpsPSGAlterVol     $01
	smpsAlterNote       $FE
	dc.b	nE2, $01
	smpsAlterNote       $FF
	dc.b	nE2
	smpsPSGAlterVol     $01
	smpsAlterNote       $00
	dc.b	nE2
	smpsAlterNote       $01
	dc.b	nE2, $04
	smpsAlterNote       $00
	dc.b	nE2, $01
	smpsPSGAlterVol     $FE
	smpsAlterNote       $FF
	dc.b	nE2, $02
	smpsPSGAlterVol     $01
	smpsAlterNote       $FE
	dc.b	nE2, $01
	smpsAlterNote       $FF
	dc.b	nE2
	smpsPSGAlterVol     $01
	smpsAlterNote       $00
	dc.b	nE2
	smpsAlterNote       $01
	dc.b	nE2, $04
	smpsAlterNote       $00
	dc.b	nE2, $01
	smpsPSGAlterVol     $FE
	smpsAlterNote       $FF
	dc.b	nCs2
	smpsAlterNote       $FE
	dc.b	nCs2
	smpsPSGAlterVol     $01
	smpsAlterNote       $FE
	dc.b	nCs2
	smpsAlterNote       $FF
	dc.b	nCs2
	smpsPSGAlterVol     $01
	smpsAlterNote       $00
	dc.b	nCs2
	smpsAlterNote       $01
	dc.b	nCs2, $02
	smpsAlterNote       $02
	dc.b	nCs2, $01
	smpsAlterNote       $01
	dc.b	nCs2
	smpsAlterNote       $00
	dc.b	nCs2
	smpsPSGAlterVol     $FE
	smpsAlterNote       $FF
	dc.b	nD2
	smpsAlterNote       $FE
	dc.b	nD2
	smpsPSGAlterVol     $01
	smpsAlterNote       $FE
	dc.b	nD2
	smpsAlterNote       $FF
	dc.b	nD2
	smpsPSGAlterVol     $01
	smpsAlterNote       $00
	dc.b	nD2
	smpsAlterNote       $01
	dc.b	nD2, $04
	smpsAlterNote       $00
	dc.b	nD2, $01
	smpsPSGAlterVol     $FE
	smpsAlterNote       $FF
	dc.b	nE2, $02
	smpsPSGAlterVol     $01
	smpsAlterNote       $FE
	dc.b	nE2, $01
	smpsAlterNote       $FF
	dc.b	nE2
	smpsPSGAlterVol     $01
	smpsAlterNote       $00
	dc.b	nE2
	smpsAlterNote       $01
	dc.b	nE2, $04
	smpsAlterNote       $00
	dc.b	nE2, $01
	smpsPSGAlterVol     $FE
	smpsAlterNote       $FF
	dc.b	nCs2
	smpsAlterNote       $FE
	dc.b	nCs2
	smpsPSGAlterVol     $01
	smpsAlterNote       $FE
	dc.b	nCs2
	smpsAlterNote       $FF
	dc.b	nCs2
	smpsPSGAlterVol     $01
	smpsAlterNote       $00
	dc.b	nCs2
	smpsAlterNote       $01
	dc.b	nCs2, $02
	smpsAlterNote       $02
	dc.b	nCs2, $01
	smpsAlterNote       $01
	dc.b	nCs2
	smpsAlterNote       $00
	dc.b	nCs2
	smpsAlterNote       $FB
	dc.b	nCs2
	smpsAlterNote       $01
	dc.b	nD2
	smpsAlterNote       $FC
	dc.b	nD2
	smpsAlterNote       $03
	dc.b	nEb2
	smpsAlterNote       $00
	dc.b	nEb2
	smpsAlterNote       $FD
	dc.b	nEb2
	smpsAlterNote       $05
	dc.b	nE2
	smpsAlterNote       $03
	dc.b	nE2, $02
	smpsAlterNote       $02
	dc.b	nE2, $01
	smpsAlterNote       $01
	dc.b	nE2
	smpsAlterNote       $00
	dc.b	nE2
	smpsAlterNote       $FF
	dc.b	nE2, $04
	smpsAlterNote       $00
	dc.b	nE2, $01
	smpsAlterNote       $01
	dc.b	nE2, $03
	smpsAlterNote       $00
	dc.b	nE2, $02
	smpsAlterNote       $FF
	dc.b	nE2, $01
	smpsAlterNote       $FE
	dc.b	nE2, $02
	smpsAlterNote       $FF
	dc.b	nE2, $01
	smpsAlterNote       $00
	dc.b	nE2
	smpsAlterNote       $02
	dc.b	nE2, $02
	smpsAlterNote       $03
	dc.b	nE2, $01
	smpsAlterNote       $02
	dc.b	nE2, $02
	smpsAlterNote       $00
	dc.b	nE2, $01
	smpsAlterNote       $FF
	dc.b	nE2
	smpsAlterNote       $FE
	dc.b	nE2, $02
	smpsAlterNote       $FF
	dc.b	nE2, $01
	smpsAlterNote       $00
	dc.b	nE2, $02
	smpsAlterNote       $01
	dc.b	nE2, $03
	smpsAlterNote       $00
	dc.b	nE2, $01
	smpsAlterNote       $FF
	dc.b	nE2, $04
	smpsAlterNote       $00
	dc.b	nE2, $01
	smpsAlterNote       $01
	dc.b	nE2
	smpsAlterNote       $02
	dc.b	nE2, nEb2
	smpsAlterNote       $03
	dc.b	nD2
	smpsAlterNote       $02
	dc.b	nCs2
	smpsAlterNote       $FF
	dc.b	nC2, nB1
	smpsAlterNote       $FE
	dc.b	nBb1
	smpsAlterNote       $FC
	dc.b	nA1
	smpsAlterNote       $FD
	dc.b	nAb1
	smpsAlterNote       $FE
	dc.b	nG1
	smpsAlterNote       $FF
	dc.b	nFs1
	smpsAlterNote       $01
	dc.b	nF1
	smpsAlterNote       $02
	dc.b	nE1, nEb1
	smpsAlterNote       $00
	dc.b	nD1
	smpsAlterNote       $FF
	dc.b	nCs1
	smpsAlterNote       $FD
	dc.b	nC1
	smpsAlterNote       $FC
	dc.b	nB0
	smpsAlterNote       $FD
	dc.b	nBb0
	smpsAlterNote       $FF
	dc.b	nA0
	smpsAlterNote       $02
	dc.b	nAb0, nRst, $64
	smpsPSGAlterVol     $FE
	smpsAlterNote       $FF
	dc.b	nCs1, $02
	smpsPSGAlterVol     $01
	smpsAlterNote       $FF
	dc.b	nCs1
	smpsPSGAlterVol     $01
	smpsAlterNote       $FF
	dc.b	nCs1, $01
	smpsAlterNote       $FB
	dc.b	nCs1
	smpsAlterNote       $F6
	dc.b	nCs1
	smpsAlterNote       $07
	dc.b	nD1
	smpsAlterNote       $03
	dc.b	nD1
	smpsAlterNote       $FE
	dc.b	nD1
	smpsAlterNote       $FA
	dc.b	nD1
	smpsAlterNote       $F7
	dc.b	nD1
	smpsAlterNote       $09
	dc.b	nEb1
	smpsAlterNote       $06
	dc.b	nEb1
	smpsAlterNote       $02
	dc.b	nEb1
	smpsAlterNote       $FF
	dc.b	nEb1
	smpsAlterNote       $FB
	dc.b	nEb1
	smpsAlterNote       $F8
	dc.b	nEb1
	smpsAlterNote       $08
	dc.b	nE1
	smpsAlterNote       $05
	dc.b	nE1
	smpsAlterNote       $01
	dc.b	nE1
	smpsAlterNote       $FD
	dc.b	nE1
	smpsAlterNote       $F9
	dc.b	nE1
	smpsAlterNote       $08
	dc.b	nF1
	smpsAlterNote       $04
	dc.b	nF1
	smpsAlterNote       $00
	dc.b	nF1
	smpsAlterNote       $FC
	dc.b	nF1
	smpsAlterNote       $F9
	dc.b	nF1
	smpsAlterNote       $07
	dc.b	nFs1
	smpsAlterNote       $03
	dc.b	nFs1
	smpsAlterNote       $00
	dc.b	nFs1
	smpsAlterNote       $FD
	dc.b	nFs1
	smpsAlterNote       $FA
	dc.b	nFs1
	smpsAlterNote       $F8
	dc.b	nFs1
	smpsAlterNote       $06
	dc.b	nG1
	smpsAlterNote       $03
	dc.b	nG1
	smpsAlterNote       $00
	dc.b	nG1
	smpsAlterNote       $FE
	dc.b	nG1
	smpsAlterNote       $FB
	dc.b	nG1
	smpsAlterNote       $F8
	dc.b	nG1
	smpsAlterNote       $05
	dc.b	nAb1
	smpsAlterNote       $02
	dc.b	nAb1
	smpsAlterNote       $FE
	dc.b	nAb1
	smpsAlterNote       $FB
	dc.b	nAb1
	smpsAlterNote       $07
	dc.b	nA1
	smpsAlterNote       $04
	dc.b	nA1
	smpsAlterNote       $01
	dc.b	nA1
	smpsAlterNote       $FE
	dc.b	nA1
	smpsAlterNote       $FB
	dc.b	nA1
	smpsAlterNote       $07
	dc.b	nBb1
	smpsAlterNote       $04
	dc.b	nBb1
	smpsAlterNote       $02
	dc.b	nBb1
	smpsAlterNote       $00
	dc.b	nBb1
	smpsAlterNote       $FE
	dc.b	nBb1
	smpsAlterNote       $FB
	dc.b	nBb1
	smpsAlterNote       $06
	dc.b	nB1
	smpsAlterNote       $04
	dc.b	nB1
	smpsAlterNote       $02
	dc.b	nB1
	smpsAlterNote       $FF
	dc.b	nB1
	smpsAlterNote       $FD
	dc.b	nB1
	smpsAlterNote       $FA
	dc.b	nB1
	smpsAlterNote       $04
	dc.b	nC2
	smpsAlterNote       $01
	dc.b	nC2
	smpsAlterNote       $FF
	dc.b	nC2
	smpsAlterNote       $FC
	dc.b	nC2
	smpsAlterNote       $FA
	dc.b	nC2
	smpsAlterNote       $04
	dc.b	nCs2
	smpsAlterNote       $02
	dc.b	nCs2
	smpsAlterNote       $FF
	dc.b	nCs2
	smpsAlterNote       $FD
	dc.b	nCs2
	smpsAlterNote       $FB
	dc.b	nCs2
	smpsAlterNote       $04
	dc.b	nD2
	smpsAlterNote       $02
	dc.b	nD2
	smpsAlterNote       $00
	dc.b	nD2
	smpsAlterNote       $FF
	dc.b	nD2
	smpsAlterNote       $FD
	dc.b	nD2
	smpsAlterNote       $FB
	dc.b	nD2
	smpsAlterNote       $03
	dc.b	nEb2
	smpsAlterNote       $01
	dc.b	nEb2
	smpsAlterNote       $00
	dc.b	nEb2, nRst, $28, nFs2, $01
	smpsJump            Genocide_Night_Reimagined_Jump08

; PSG2 Data
Genocide_Night_Reimagined_PSG2:
	dc.b	nRst, $7F, $49
	smpsPSGAlterVol     $07
	smpsAlterNote       $FF
	dc.b	nE3, $02
	smpsPSGAlterVol     $01
	smpsAlterNote       $FF
	dc.b	nE3
	smpsPSGAlterVol     $01
	smpsAlterNote       $FF
	dc.b	nE3, $01
	smpsAlterNote       $02
	dc.b	nF3
	smpsAlterNote       $00
	dc.b	nF3
	smpsAlterNote       $FF
	dc.b	nF3
	smpsAlterNote       $02
	dc.b	nFs3
	smpsAlterNote       $00
	dc.b	nFs3, $0B, nRst, $14
	smpsPSGAlterVol     $FE
	smpsAlterNote       $FF
	dc.b	nE3, $02
	smpsPSGAlterVol     $01
	smpsAlterNote       $FF
	dc.b	nE3
	smpsPSGAlterVol     $01
	smpsAlterNote       $FF
	dc.b	nE3, $01
	smpsAlterNote       $02
	dc.b	nF3
	smpsAlterNote       $00
	dc.b	nF3
	smpsAlterNote       $FF
	dc.b	nF3
	smpsAlterNote       $02
	dc.b	nFs3
	smpsAlterNote       $00
	dc.b	nFs3, $0B, nRst, $14
	smpsPSGAlterVol     $FE
	smpsAlterNote       $00
	dc.b	nFs3, $02
	smpsPSGAlterVol     $01
	smpsAlterNote       $00
	dc.b	nFs3
	smpsPSGAlterVol     $01
	smpsAlterNote       $00
	dc.b	nFs3, $06
	smpsPSGAlterVol     $FE
	smpsAlterNote       $FF
	dc.b	nE3, $02
	smpsPSGAlterVol     $01
	smpsAlterNote       $FF
	dc.b	nE3
	smpsPSGAlterVol     $01
	smpsAlterNote       $FF
	dc.b	nE3, $06
	smpsPSGAlterVol     $FE
	smpsAlterNote       $00
	dc.b	nFs3, $02
	smpsPSGAlterVol     $01
	smpsAlterNote       $00
	dc.b	nFs3
	smpsPSGAlterVol     $01
	smpsAlterNote       $00
	dc.b	nFs3, $06
	smpsPSGAlterVol     $FE
	smpsAlterNote       $FF
	dc.b	nE3, $02
	smpsPSGAlterVol     $01
	smpsAlterNote       $FF
	dc.b	nE3
	smpsPSGAlterVol     $01
	smpsAlterNote       $FF
	dc.b	nE3, $06
	smpsPSGAlterVol     $FE
	dc.b	nCs3, $02
	smpsPSGAlterVol     $01
	dc.b	nCs3
	smpsPSGAlterVol     $01
	dc.b	nCs3, $06
	smpsPSGAlterVol     $FE
	dc.b	nB2, $02
	smpsPSGAlterVol     $01
	dc.b	nB2
	smpsPSGAlterVol     $01
	dc.b	nB2, $0C
	smpsAlterNote       $00
	dc.b	nB2, $04
	smpsPSGAlterVol     $FE
	smpsAlterNote       $FF
	dc.b	nA2, $02
	smpsPSGAlterVol     $01
	smpsAlterNote       $FF
	dc.b	nA2
	smpsPSGAlterVol     $01
	smpsAlterNote       $FF
	dc.b	nA2, $05
	smpsAlterNote       $FE
	dc.b	nA2, $01
	smpsAlterNote       $FF
	dc.b	nA2, $07
	smpsAlterNote       $00
	dc.b	nA2, $03
	smpsPSGAlterVol     $FE
	smpsAlterNote       $FF
	dc.b	nA2, $02
	smpsPSGAlterVol     $01
	smpsAlterNote       $FF
	dc.b	nA2
	smpsPSGAlterVol     $01
	smpsAlterNote       $FF
	dc.b	nA2, $05
	smpsAlterNote       $FE
	dc.b	nA2, $01
	smpsPSGAlterVol     $FE
	smpsAlterNote       $FF
	dc.b	nCs2, $02
	smpsPSGAlterVol     $01
	smpsAlterNote       $FF
	dc.b	nCs2
	smpsPSGAlterVol     $01
	smpsAlterNote       $FF
	dc.b	nCs2, $03
	smpsAlterNote       $FE
	dc.b	nCs2
	smpsPSGAlterVol     $FE
	smpsAlterNote       $FF
	dc.b	nE2, $02
	smpsPSGAlterVol     $01
	smpsAlterNote       $FF
	dc.b	nE2
	smpsPSGAlterVol     $01
	smpsAlterNote       $FF
	dc.b	nE2, $05
	smpsAlterNote       $FE
	dc.b	nE2, $01
	smpsPSGAlterVol     $FE
	smpsAlterNote       $FF
	dc.b	nFs2, $02
	smpsPSGAlterVol     $01
	smpsAlterNote       $FF
	dc.b	nFs2
	smpsPSGAlterVol     $01
	smpsAlterNote       $FF
	dc.b	nFs2, $03
	smpsAlterNote       $FE
	dc.b	nFs2
	smpsPSGAlterVol     $FE
	smpsAlterNote       $FF
	dc.b	nA2, $02
	smpsPSGAlterVol     $01
	smpsAlterNote       $FF
	dc.b	nA2
	smpsPSGAlterVol     $01
	smpsAlterNote       $FF
	dc.b	nA2, $05
	smpsAlterNote       $FE
	dc.b	nA2, $01
	smpsAlterNote       $FF
	dc.b	nA2, $07
	smpsAlterNote       $00
	dc.b	nA2, $03
	smpsPSGAlterVol     $FE
	smpsAlterNote       $FF
	dc.b	nB2, $02
	smpsPSGAlterVol     $01
	smpsAlterNote       $FF
	dc.b	nB2
	smpsPSGAlterVol     $01
	smpsAlterNote       $FF
	dc.b	nB2, $0C
	smpsAlterNote       $00
	dc.b	nB2, $04
	smpsPSGAlterVol     $FE
	smpsAlterNote       $FF
	dc.b	nCs3, $02
	smpsPSGAlterVol     $01
	smpsAlterNote       $FF
	dc.b	nCs3
	smpsPSGAlterVol     $01
	smpsAlterNote       $FF
	dc.b	nCs3, $0E
	smpsAlterNote       $00
	dc.b	nCs3, $02
	smpsPSGAlterVol     $FE
	dc.b	nFs3
	smpsPSGAlterVol     $01
	dc.b	nFs3
	smpsPSGAlterVol     $01
	dc.b	nFs3, $01
	smpsPSGAlterVol     $FE
	smpsAlterNote       $FF
	dc.b	nE3, $02
	smpsPSGAlterVol     $01
	smpsAlterNote       $FF
	dc.b	nE3
	smpsPSGAlterVol     $01
	smpsAlterNote       $FF
	dc.b	nE3, $01
	smpsPSGAlterVol     $FE
	dc.b	nCs3, $02
	smpsPSGAlterVol     $01
	dc.b	nCs3
	smpsPSGAlterVol     $01
	dc.b	nCs3, $01
	smpsPSGAlterVol     $FE
	dc.b	nE3, $02
	smpsPSGAlterVol     $01
	dc.b	nE3
	smpsPSGAlterVol     $01
	dc.b	nE3, $01
	smpsPSGAlterVol     $FE
	dc.b	nCs3, $02
	smpsPSGAlterVol     $01
	dc.b	nCs3
	smpsPSGAlterVol     $01
	dc.b	nCs3, $01
	smpsPSGAlterVol     $FE
	dc.b	nB2, $02
	smpsPSGAlterVol     $01
	dc.b	nB2
	smpsPSGAlterVol     $01
	dc.b	nB2, $01
	smpsPSGAlterVol     $FE
	dc.b	nCs3, $02
	smpsPSGAlterVol     $01
	dc.b	nCs3
	smpsPSGAlterVol     $01
	dc.b	nCs3, $01
	smpsPSGAlterVol     $FE
	dc.b	nA2, $02
	smpsPSGAlterVol     $01
	dc.b	nA2
	smpsPSGAlterVol     $01
	dc.b	nA2, $01
	smpsPSGAlterVol     $FE
	dc.b	nB2, $02
	smpsPSGAlterVol     $01
	dc.b	nB2
	smpsPSGAlterVol     $01
	dc.b	nB2, $01
	smpsPSGAlterVol     $FE
	dc.b	nFs2, $02
	smpsPSGAlterVol     $01
	dc.b	nFs2
	smpsPSGAlterVol     $01
	dc.b	nFs2, $01
	smpsPSGAlterVol     $FE
	dc.b	nA2, $02
	smpsPSGAlterVol     $01
	dc.b	nA2
	smpsPSGAlterVol     $01
	dc.b	nA2, $01
	smpsPSGAlterVol     $FE
	dc.b	nE2, $02
	smpsPSGAlterVol     $01
	dc.b	nE2
	smpsPSGAlterVol     $01
	dc.b	nE2, $01
	smpsPSGAlterVol     $FE
	dc.b	nFs2, $02
	smpsPSGAlterVol     $01
	dc.b	nFs2
	smpsPSGAlterVol     $01
	dc.b	nFs2, $01
	smpsPSGAlterVol     $FE
	dc.b	nCs2, $02
	smpsPSGAlterVol     $01
	dc.b	nCs2
	smpsPSGAlterVol     $01
	dc.b	nCs2, $01
	smpsPSGAlterVol     $FE
	dc.b	nE2, $02
	smpsPSGAlterVol     $01
	dc.b	nE2
	smpsPSGAlterVol     $01
	dc.b	nE2, $01
	smpsPSGAlterVol     $FE
	smpsAlterNote       $FE
	dc.b	nA1, $02
	smpsPSGAlterVol     $01
	smpsAlterNote       $FE
	dc.b	nA1
	smpsPSGAlterVol     $01
	smpsAlterNote       $FE
	dc.b	nA1, $01
	smpsPSGAlterVol     $FE
	smpsAlterNote       $FF
	dc.b	nB1, $02
	smpsPSGAlterVol     $01
	smpsAlterNote       $FF
	dc.b	nB1
	smpsPSGAlterVol     $01
	smpsAlterNote       $FF
	dc.b	nB1, $01
	smpsPSGAlterVol     $FE
	smpsAlterNote       $FE
	dc.b	nFs1, $02
	smpsPSGAlterVol     $01
	smpsAlterNote       $FE
	dc.b	nFs1
	smpsPSGAlterVol     $01
	smpsAlterNote       $FE
	dc.b	nFs1, $01
	smpsPSGAlterVol     $FE
	dc.b	nA1, $02
	smpsPSGAlterVol     $01
	dc.b	nA1
	smpsPSGAlterVol     $01
	dc.b	nA1
	smpsAlterNote       $FD
	dc.b	nA1, $04
	smpsPSGAlterVol     $FE
	smpsAlterNote       $FE
	dc.b	nA1, $02
	smpsPSGAlterVol     $01
	smpsAlterNote       $FE
	dc.b	nA1
	smpsPSGAlterVol     $01
	smpsAlterNote       $FE
	dc.b	nA1
	smpsAlterNote       $FD
	dc.b	nA1, $04
	smpsPSGAlterVol     $FE
	smpsAlterNote       $FF
	dc.b	nE2, $02
	smpsPSGAlterVol     $01
	smpsAlterNote       $FF
	dc.b	nE2
	smpsPSGAlterVol     $01
	smpsAlterNote       $FF
	dc.b	nE2, $05
	smpsAlterNote       $FE
	dc.b	nE2, $01
	smpsPSGAlterVol     $FE
	smpsAlterNote       $FF
	dc.b	nE2, $02
	smpsPSGAlterVol     $01
	smpsAlterNote       $FF
	dc.b	nE2
	smpsPSGAlterVol     $01
	smpsAlterNote       $FF
	dc.b	nE2, $05
	smpsAlterNote       $FE
	dc.b	nE2, $01
	smpsPSGAlterVol     $FE
	smpsAlterNote       $FF
	dc.b	nCs2, $02
	smpsPSGAlterVol     $01
	smpsAlterNote       $FF
	dc.b	nCs2
	smpsPSGAlterVol     $01
	smpsAlterNote       $FF
	dc.b	nCs2, $03
	smpsAlterNote       $FE
	dc.b	nCs2
	smpsPSGAlterVol     $FE
	smpsAlterNote       $FF
	dc.b	nCs2, $02
	smpsPSGAlterVol     $01
	smpsAlterNote       $FF
	dc.b	nCs2
	smpsPSGAlterVol     $01
	smpsAlterNote       $FF
	dc.b	nCs2, $03
	smpsAlterNote       $FE
	dc.b	nCs2
	smpsPSGAlterVol     $FE
	smpsAlterNote       $FF
	dc.b	nE2, $02
	smpsPSGAlterVol     $01
	smpsAlterNote       $FF
	dc.b	nE2
	smpsPSGAlterVol     $01
	smpsAlterNote       $FF
	dc.b	nE2, $05
	smpsAlterNote       $FE
	dc.b	nE2, $01
	smpsPSGAlterVol     $FE
	smpsAlterNote       $FF
	dc.b	nE2, $02
	smpsPSGAlterVol     $01
	smpsAlterNote       $FF
	dc.b	nE2
	smpsPSGAlterVol     $01
	smpsAlterNote       $FF
	dc.b	nE2, $05
	smpsAlterNote       $FE
	dc.b	nE2, $01
	smpsPSGAlterVol     $FE
	smpsAlterNote       $01
	dc.b	nE2, $02
	smpsPSGAlterVol     $01
	smpsAlterNote       $01
	dc.b	nE2
	smpsPSGAlterVol     $01
	smpsAlterNote       $01
	dc.b	nE2
	smpsAlterNote       $00
	dc.b	nE2, $04, nRst, $1E
	smpsPSGAlterVol     $F9
	dc.b	nCs3, $02

Genocide_Night_Reimagined_Jump07:
	dc.b	nCs3, $01
	smpsPSGAlterVol     $01
	dc.b	nCs3, $02
	smpsPSGAlterVol     $01
	dc.b	nCs3, $04
	smpsAlterNote       $FF
	dc.b	nCs3, $02
	smpsAlterNote       $00
	dc.b	nCs3, $01
	smpsAlterNote       $01
	dc.b	nCs3, $02
	smpsAlterNote       $02
	dc.b	nCs3, $01
	smpsAlterNote       $FD
	dc.b	nC3, $02
	smpsAlterNote       $FE
	dc.b	nC3, $01
	smpsAlterNote       $FF
	dc.b	nC3, $02
	smpsAlterNote       $00
	dc.b	nC3, $01
	smpsAlterNote       $01
	dc.b	nC3, $02
	smpsAlterNote       $02
	dc.b	nC3, $03
	smpsAlterNote       $FD
	dc.b	nB2, $02
	smpsAlterNote       $FE
	dc.b	nB2
	smpsAlterNote       $FF
	dc.b	nB2, $01
	smpsAlterNote       $00
	dc.b	nB2, $06
	smpsAlterNote       $01
	dc.b	nB2, $07
	smpsAlterNote       $00
	dc.b	nB2, $0D
	smpsAlterNote       $01
	dc.b	nB2, $04
	smpsPSGAlterVol     $FE
	smpsAlterNote       $00
	dc.b	nE3, $02
	smpsPSGAlterVol     $01
	smpsAlterNote       $00
	dc.b	nE3
	smpsPSGAlterVol     $01
	smpsAlterNote       $00
	dc.b	nE3, $01
	smpsAlterNote       $FF
	dc.b	nE3, $02
	smpsAlterNote       $FE
	dc.b	nE3
	smpsAlterNote       $02
	dc.b	nF3
	smpsAlterNote       $01
	dc.b	nF3, $03
	smpsAlterNote       $00
	dc.b	nF3
	smpsAlterNote       $FF
	dc.b	nF3
	smpsAlterNote       $FE
	dc.b	nF3, $02
	smpsAlterNote       $02
	dc.b	nFs3
	smpsAlterNote       $01
	dc.b	nFs3
	smpsAlterNote       $00
	dc.b	nFs3, $09
	smpsAlterNote       $01
	dc.b	nFs3, $02
	smpsAlterNote       $02
	dc.b	nFs3
	smpsAlterNote       $01
	dc.b	nFs3
	smpsAlterNote       $00
	dc.b	nFs3, $04
	smpsAlterNote       $01
	dc.b	nFs3, $05
	smpsAlterNote       $00
	dc.b	nFs3, $06
	smpsAlterNote       $01
	dc.b	nFs3, $02
	smpsAlterNote       $02
	dc.b	nFs3
	smpsAlterNote       $01
	dc.b	nFs3
	smpsAlterNote       $00
	dc.b	nFs3, $05
	smpsAlterNote       $01
	dc.b	nFs3
	smpsAlterNote       $00
	dc.b	nFs3
	smpsAlterNote       $01
	dc.b	nFs3, $02
	smpsAlterNote       $02
	dc.b	nFs3
	smpsAlterNote       $01
	dc.b	nFs3
	smpsAlterNote       $00
	dc.b	nFs3, $06
	smpsAlterNote       $01
	dc.b	nFs3, $01
	smpsAlterNote       $FE
	dc.b	nF3
	smpsAlterNote       $00
	dc.b	nF3
	smpsAlterNote       $02
	dc.b	nF3
	smpsAlterNote       $FF
	dc.b	nE3, $04
	smpsAlterNote       $00
	dc.b	nE3, $02
	smpsAlterNote       $01
	dc.b	nE3, $04
	smpsAlterNote       $00
	dc.b	nE3, $02
	smpsAlterNote       $FF
	dc.b	nE3, $05
	smpsAlterNote       $00
	dc.b	nE3, $06
	smpsAlterNote       $FF
	dc.b	nE3, $03
	smpsAlterNote       $00
	dc.b	nE3, $02
	smpsAlterNote       $01
	dc.b	nE3, $03
	smpsAlterNote       $00
	dc.b	nE3, $02
	smpsAlterNote       $FF
	dc.b	nE3, $05
	smpsAlterNote       $00
	dc.b	nE3, $02
	smpsAlterNote       $01
	dc.b	nE3
	smpsAlterNote       $00
	dc.b	nE3, $03
	smpsAlterNote       $FF
	dc.b	nE3, $02
	smpsAlterNote       $02
	dc.b	nF3, $01
	smpsAlterNote       $01
	dc.b	nF3
	smpsAlterNote       $FF
	dc.b	nF3
	smpsAlterNote       $02
	dc.b	nFs3
	smpsAlterNote       $01
	dc.b	nFs3, $03
	smpsAlterNote       $00
	dc.b	nFs3, $02
	smpsAlterNote       $FF
	dc.b	nFs3, $01
	smpsAlterNote       $00
	dc.b	nFs3, $02
	smpsAlterNote       $01
	dc.b	nFs3, $06
	smpsAlterNote       $00
	dc.b	nFs3, $04
	smpsAlterNote       $01
	dc.b	nFs3, $06
	smpsAlterNote       $00
	dc.b	nFs3, $02
	smpsPSGAlterVol     $FE
	smpsAlterNote       $FF
	dc.b	nA3
	smpsPSGAlterVol     $01
	smpsAlterNote       $FF
	dc.b	nA3
	smpsPSGAlterVol     $01
	smpsAlterNote       $FF
	dc.b	nA3, $01
	smpsAlterNote       $00
	dc.b	nA3, $04
	smpsAlterNote       $FF
	dc.b	nA3, $01
	smpsPSGAlterVol     $FE
	smpsAlterNote       $FF
	dc.b	nA3, $02
	smpsPSGAlterVol     $01
	smpsAlterNote       $FF
	dc.b	nA3
	smpsPSGAlterVol     $01
	smpsAlterNote       $FF
	dc.b	nA3, $01
	smpsAlterNote       $00
	dc.b	nA3, $04
	smpsAlterNote       $FF
	dc.b	nA3, $01
	smpsPSGAlterVol     $FE
	smpsAlterNote       $00
	dc.b	nFs3, $02
	smpsPSGAlterVol     $01
	smpsAlterNote       $00
	dc.b	nFs3
	smpsPSGAlterVol     $01
	smpsAlterNote       $00
	dc.b	nFs3, $01
	smpsAlterNote       $01
	dc.b	nFs3, $04
	smpsAlterNote       $00
	dc.b	nFs3, $01
	smpsPSGAlterVol     $FE
	smpsAlterNote       $00
	dc.b	nFs3, $02
	smpsPSGAlterVol     $01
	smpsAlterNote       $00
	dc.b	nFs3
	smpsPSGAlterVol     $01
	smpsAlterNote       $00
	dc.b	nFs3, $01
	smpsAlterNote       $01
	dc.b	nFs3, $04
	smpsAlterNote       $00
	dc.b	nFs3, $01
	smpsPSGAlterVol     $FE
	smpsAlterNote       $FF
	dc.b	nE3, $02
	smpsPSGAlterVol     $01
	smpsAlterNote       $FF
	dc.b	nE3
	smpsPSGAlterVol     $01
	smpsAlterNote       $00
	dc.b	nE3, $06
	smpsPSGAlterVol     $FE
	smpsAlterNote       $FF
	dc.b	nCs3, $02
	smpsPSGAlterVol     $01
	smpsAlterNote       $FF
	dc.b	nCs3
	smpsPSGAlterVol     $01
	smpsAlterNote       $00
	dc.b	nCs3, $03
	smpsAlterNote       $01
	dc.b	nCs3, $01
	smpsAlterNote       $00
	dc.b	nCs3, $02
	smpsAlterNote       $FF
	dc.b	nCs3, $05
	smpsAlterNote       $00
	dc.b	nCs3, $01
	smpsAlterNote       $01
	dc.b	nCs3, $05
	smpsAlterNote       $00
	dc.b	nCs3, $01
	smpsAlterNote       $FF
	dc.b	nCs3, $04
	smpsAlterNote       $00
	dc.b	nCs3, $06
	smpsAlterNote       $FF
	dc.b	nCs3, $04
	smpsAlterNote       $00
	dc.b	nCs3, $01
	smpsAlterNote       $01
	dc.b	nCs3, $05
	smpsAlterNote       $00
	dc.b	nCs3, $01
	smpsAlterNote       $FF
	dc.b	nCs3, $04
	smpsAlterNote       $00
	dc.b	nCs3, $06
	smpsAlterNote       $FF
	dc.b	nCs3, $04
	smpsAlterNote       $00
	dc.b	nCs3, $01
	smpsAlterNote       $01
	dc.b	nCs3, $02
	smpsPSGAlterVol     $FE
	smpsAlterNote       $FF
	dc.b	nFs2
	smpsPSGAlterVol     $01
	smpsAlterNote       $FF
	dc.b	nFs2
	smpsPSGAlterVol     $01
	smpsAlterNote       $00
	dc.b	nFs2, $01
	smpsAlterNote       $01
	dc.b	nFs2, $04
	smpsAlterNote       $00
	dc.b	nFs2, $01
	smpsAlterNote       $FF
	dc.b	nFs2, $02
	smpsAlterNote       $FE
	dc.b	nFs2, $01
	smpsAlterNote       $FF
	dc.b	nFs2, $02
	smpsAlterNote       $00
	dc.b	nFs2, $01
	smpsAlterNote       $01
	dc.b	nFs2
	smpsAlterNote       $02
	dc.b	nFs2, $03
	smpsAlterNote       $01
	dc.b	nFs2, $01
	smpsAlterNote       $00
	dc.b	nFs2
	smpsAlterNote       $FF
	dc.b	nFs2, $04
	smpsAlterNote       $00
	dc.b	nFs2, $01
	smpsAlterNote       $01
	dc.b	nFs2, $03
	smpsAlterNote       $00
	dc.b	nFs2, $02
	smpsAlterNote       $FF
	dc.b	nFs2, $04
	smpsAlterNote       $00
	dc.b	nFs2, $01
	smpsAlterNote       $01
	dc.b	nFs2
	smpsAlterNote       $02
	dc.b	nFs2
	smpsAlterNote       $03
	dc.b	nFs2
	smpsAlterNote       $02
	dc.b	nFs2
	smpsAlterNote       $01
	dc.b	nFs2
	smpsAlterNote       $00
	dc.b	nFs2
	smpsAlterNote       $FF
	dc.b	nFs2, $04
	smpsAlterNote       $00
	dc.b	nFs2, $02
	smpsAlterNote       $01
	dc.b	nFs2, $03
	smpsAlterNote       $00
	dc.b	nFs2, $01
	smpsAlterNote       $FF
	dc.b	nFs2, $04
	smpsAlterNote       $00
	dc.b	nFs2, $01
	smpsAlterNote       $01
	dc.b	nFs2
	smpsAlterNote       $02
	dc.b	nFs2, $03
	smpsAlterNote       $01
	dc.b	nFs2, $01
	smpsAlterNote       $00
	dc.b	nFs2
	smpsAlterNote       $FF
	dc.b	nFs2, $02
	smpsAlterNote       $FE
	dc.b	nFs2, $01
	smpsAlterNote       $FF
	dc.b	nFs2, $02
	smpsAlterNote       $00
	dc.b	nFs2, $01
	smpsAlterNote       $01
	dc.b	nFs2, $04
	smpsAlterNote       $00
	dc.b	nFs2, $01
	smpsAlterNote       $FF
	dc.b	nFs2, $03
	smpsAlterNote       $00
	dc.b	nFs2, $01
	smpsAlterNote       $01
	dc.b	nFs2
	smpsAlterNote       $02
	dc.b	nFs2, $03
	smpsAlterNote       $01
	dc.b	nFs2, $01
	smpsAlterNote       $00
	dc.b	nFs2
	smpsAlterNote       $FF
	dc.b	nFs2
	smpsAlterNote       $FE
	dc.b	nFs2, $03
	smpsAlterNote       $FF
	dc.b	nFs2, $01
	smpsAlterNote       $00
	dc.b	nFs2
	smpsAlterNote       $01
	dc.b	nFs2, $02
	smpsAlterNote       $02
	dc.b	nFs2, $01
	smpsAlterNote       $01
	dc.b	nFs2
	smpsAlterNote       $00
	dc.b	nFs2, $02
	smpsAlterNote       $FF
	dc.b	nFs2
	smpsAlterNote       $00
	dc.b	nFs2, $01
	smpsPSGAlterVol     $FE
	smpsAlterNote       $FF
	dc.b	nA2, $02
	smpsPSGAlterVol     $01
	smpsAlterNote       $FF
	dc.b	nA2
	smpsPSGAlterVol     $01
	smpsAlterNote       $00
	dc.b	nA2, $01
	smpsAlterNote       $01
	dc.b	nA2, $04
	smpsAlterNote       $00
	dc.b	nA2, $01
	smpsAlterNote       $FF
	dc.b	nA2, $02
	smpsAlterNote       $FE
	dc.b	nA2, $01
	smpsAlterNote       $FF
	dc.b	nA2, $02
	smpsAlterNote       $00
	dc.b	nA2, $01
	smpsAlterNote       $01
	dc.b	nA2
	smpsAlterNote       $02
	dc.b	nA2, $03
	smpsAlterNote       $01
	dc.b	nA2, $01
	smpsAlterNote       $00
	dc.b	nA2
	smpsAlterNote       $FF
	dc.b	nA2, $04
	smpsAlterNote       $00
	dc.b	nA2, $01
	smpsAlterNote       $01
	dc.b	nA2, $03
	smpsAlterNote       $00
	dc.b	nA2, $02
	smpsAlterNote       $FF
	dc.b	nA2, $04
	smpsAlterNote       $00
	dc.b	nA2, $01
	smpsAlterNote       $01
	dc.b	nA2
	smpsAlterNote       $02
	dc.b	nA2, $03
	smpsAlterNote       $01
	dc.b	nA2, $01
	smpsAlterNote       $00
	dc.b	nA2
	smpsAlterNote       $FF
	dc.b	nA2, $04
	smpsAlterNote       $00
	dc.b	nA2, $02
	smpsAlterNote       $01
	dc.b	nA2, $03
	smpsAlterNote       $00
	dc.b	nA2, $01
	smpsAlterNote       $FF
	dc.b	nA2, $04
	smpsAlterNote       $00
	dc.b	nA2, $01
	smpsAlterNote       $01
	dc.b	nA2
	smpsAlterNote       $02
	dc.b	nA2
	smpsPSGAlterVol     $FE
	smpsAlterNote       $FF
	dc.b	nEb3, $02
	smpsPSGAlterVol     $01
	smpsAlterNote       $FF
	dc.b	nEb3
	smpsPSGAlterVol     $01
	smpsAlterNote       $00
	dc.b	nEb3, $01
	smpsAlterNote       $FF
	dc.b	nEb3
	smpsAlterNote       $FE
	dc.b	nEb3, $02
	smpsAlterNote       $01
	dc.b	nE3, $01
	smpsAlterNote       $00
	dc.b	nE3
	smpsAlterNote       $FF
	dc.b	nE3, $05
	smpsAlterNote       $00
	dc.b	nE3, $01
	smpsAlterNote       $01
	dc.b	nE3, $04
	smpsAlterNote       $00
	dc.b	nE3, $02
	smpsAlterNote       $FF
	dc.b	nE3, $04
	smpsAlterNote       $00
	dc.b	nE3, $06
	smpsAlterNote       $FF
	dc.b	nE3, $04
	smpsAlterNote       $00
	dc.b	nE3, $02
	smpsAlterNote       $01
	dc.b	nE3, $03
	smpsAlterNote       $00
	dc.b	nE3, $02
	smpsAlterNote       $FF
	dc.b	nE3, $04
	smpsAlterNote       $00
	dc.b	nE3, $06
	smpsAlterNote       $FF
	dc.b	nE3, $04
	smpsAlterNote       $00
	dc.b	nE3, $02
	smpsAlterNote       $01
	dc.b	nE3, $01
	smpsPSGAlterVol     $FE
	smpsAlterNote       $FF
	dc.b	nCs3, $02
	smpsPSGAlterVol     $01
	smpsAlterNote       $FF
	dc.b	nCs3
	smpsPSGAlterVol     $01
	smpsAlterNote       $00
	dc.b	nCs3, $03
	smpsAlterNote       $01
	dc.b	nCs3, $01
	smpsAlterNote       $00
	dc.b	nCs3, $02
	smpsPSGAlterVol     $FE
	smpsAlterNote       $FF
	dc.b	nCs3
	smpsPSGAlterVol     $01
	smpsAlterNote       $FF
	dc.b	nCs3
	smpsPSGAlterVol     $01
	smpsAlterNote       $00
	dc.b	nCs3, $03
	smpsAlterNote       $01
	dc.b	nCs3, $01
	smpsAlterNote       $00
	dc.b	nCs3, $02
	smpsPSGAlterVol     $FE
	smpsAlterNote       $FF
	dc.b	nA2
	smpsPSGAlterVol     $01
	smpsAlterNote       $FF
	dc.b	nA2
	smpsPSGAlterVol     $01
	smpsAlterNote       $00
	dc.b	nA2, $01
	smpsAlterNote       $01
	dc.b	nA2, $04
	smpsAlterNote       $00
	dc.b	nA2, $01
	smpsPSGAlterVol     $FE
	smpsAlterNote       $FF
	dc.b	nA2, $02
	smpsPSGAlterVol     $01
	smpsAlterNote       $FF
	dc.b	nA2
	smpsPSGAlterVol     $01
	smpsAlterNote       $00
	dc.b	nA2, $01
	smpsAlterNote       $01
	dc.b	nA2, $04
	smpsAlterNote       $00
	dc.b	nA2, $01, nRst, $0A
	smpsPSGAlterVol     $03
	dc.b	nFs1, $02
	smpsPSGAlterVol     $01
	dc.b	nFs1
	smpsPSGAlterVol     $01
	dc.b	nFs1, $03
	smpsAlterNote       $FF
	dc.b	nFs1
	smpsAlterNote       $FD
	dc.b	nFs1, $01
	smpsAlterNote       $FC
	dc.b	nFs1, $02
	smpsAlterNote       $FE
	dc.b	nFs1, $01
	smpsAlterNote       $00
	dc.b	nFs1
	smpsAlterNote       $02
	dc.b	nFs1
	smpsAlterNote       $04
	dc.b	nFs1
	smpsAlterNote       $05
	dc.b	nFs1
	smpsAlterNote       $04
	dc.b	nFs1
	smpsAlterNote       $03
	dc.b	nFs1
	smpsAlterNote       $01
	dc.b	nFs1
	smpsAlterNote       $FF
	dc.b	nFs1
	smpsAlterNote       $FE
	dc.b	nFs1, $02
	smpsAlterNote       $FF
	dc.b	nFs1, $01
	smpsAlterNote       $00
	dc.b	nFs1
	smpsAlterNote       $01
	dc.b	nFs1
	smpsAlterNote       $02
	dc.b	nFs1, $02
	smpsAlterNote       $01
	dc.b	nFs1, $01
	smpsPSGAlterVol     $FE
	dc.b	nE2, $02
	smpsPSGAlterVol     $01
	dc.b	nE2
	smpsPSGAlterVol     $01
	dc.b	nE2
	smpsAlterNote       $00
	dc.b	nE2, $04
	smpsPSGAlterVol     $FE
	dc.b	nFs2, $02
	smpsPSGAlterVol     $01
	dc.b	nFs2
	smpsPSGAlterVol     $01
	dc.b	nFs2, $04
	smpsAlterNote       $FF
	dc.b	nFs2, $02
	smpsPSGAlterVol     $FE
	smpsAlterNote       $01
	dc.b	nE2
	smpsPSGAlterVol     $01
	smpsAlterNote       $01
	dc.b	nE2
	smpsPSGAlterVol     $01
	smpsAlterNote       $01
	dc.b	nE2
	smpsAlterNote       $00
	dc.b	nE2, $04
	smpsPSGAlterVol     $FE
	dc.b	nFs2, $02
	smpsPSGAlterVol     $01
	dc.b	nFs2
	smpsPSGAlterVol     $01
	dc.b	nFs2, $04
	smpsAlterNote       $FF
	dc.b	nFs2, $02
	smpsPSGAlterVol     $FE
	smpsAlterNote       $01
	dc.b	nE2
	smpsPSGAlterVol     $01
	smpsAlterNote       $01
	dc.b	nE2
	smpsPSGAlterVol     $01
	smpsAlterNote       $01
	dc.b	nE2
	smpsAlterNote       $00
	dc.b	nE2, $07
	smpsAlterNote       $01
	dc.b	nE2, $06
	smpsAlterNote       $02
	dc.b	nE2, $01
	smpsPSGAlterVol     $FE
	smpsAlterNote       $01
	dc.b	nCs2, $02
	smpsPSGAlterVol     $01
	smpsAlterNote       $01
	dc.b	nCs2
	smpsPSGAlterVol     $01
	smpsAlterNote       $01
	dc.b	nCs2
	smpsAlterNote       $00
	dc.b	nCs2, $07
	smpsAlterNote       $01
	dc.b	nCs2, $04
	smpsAlterNote       $02
	dc.b	nCs2, $03
	smpsAlterNote       $FD
	dc.b	nC2, $01
	smpsAlterNote       $05
	dc.b	nC2
	smpsAlterNote       $02
	dc.b	nB1
	smpsAlterNote       $FE
	dc.b	nBb1
	smpsAlterNote       $07
	dc.b	nBb1
	smpsAlterNote       $00
	dc.b	nA1, $02
	smpsAlterNote       $FF
	dc.b	nA1, $05
	smpsAlterNote       $00
	dc.b	nA1, $04
	smpsAlterNote       $01
	dc.b	nA1, $03
	smpsAlterNote       $02
	dc.b	nA1, $01
	smpsPSGAlterVol     $FE
	smpsAlterNote       $00
	dc.b	nB1, $02
	smpsPSGAlterVol     $01
	smpsAlterNote       $00
	dc.b	nB1
	smpsPSGAlterVol     $01
	smpsAlterNote       $00
	dc.b	nB1, $04
	smpsAlterNote       $FF
	dc.b	nB1, $02
	smpsAlterNote       $04
	dc.b	nB1, $01
	smpsAlterNote       $FD
	dc.b	nBb1
	smpsAlterNote       $02
	dc.b	nBb1
	smpsAlterNote       $F9
	dc.b	nA1
	smpsAlterNote       $FE
	dc.b	nA1
	smpsAlterNote       $00
	dc.b	nA1
	smpsAlterNote       $01
	dc.b	nA1, $03
	smpsAlterNote       $02
	dc.b	nA1, $01
	smpsAlterNote       $FC
	dc.b	nA1
	smpsAlterNote       $05
	dc.b	nBb1
	smpsAlterNote       $00
	dc.b	nBb1
	smpsAlterNote       $FA
	dc.b	nBb1
	smpsAlterNote       $02
	dc.b	nB1
	smpsAlterNote       $00
	dc.b	nB1, $03
	smpsAlterNote       $FF
	dc.b	nB1
	smpsAlterNote       $00
	dc.b	nB1, $04
	smpsAlterNote       $01
	dc.b	nB1, $03
	smpsAlterNote       $02
	dc.b	nB1, $02
	smpsPSGAlterVol     $FE
	smpsAlterNote       $00
	dc.b	nA1
	smpsPSGAlterVol     $01
	smpsAlterNote       $00
	dc.b	nA1
	smpsPSGAlterVol     $01
	smpsAlterNote       $00
	dc.b	nA1, $03
	smpsAlterNote       $FF
	dc.b	nA1, $05
	smpsAlterNote       $00
	dc.b	nA1, $04
	smpsAlterNote       $01
	dc.b	nA1, $03
	smpsAlterNote       $02
	dc.b	nA1, $01
	smpsPSGAlterVol     $FE
	smpsAlterNote       $00
	dc.b	nA1, $02
	smpsPSGAlterVol     $01
	smpsAlterNote       $00
	dc.b	nA1
	smpsPSGAlterVol     $01
	smpsAlterNote       $00
	dc.b	nA1, $03
	smpsAlterNote       $FF
	dc.b	nA1
	smpsAlterNote       $FA
	dc.b	nA1, $01
	smpsAlterNote       $04
	dc.b	nBb1
	smpsAlterNote       $FF
	dc.b	nBb1
	smpsAlterNote       $FA
	dc.b	nBb1
	smpsAlterNote       $02
	dc.b	nB1
	smpsAlterNote       $01
	dc.b	nB1, $03
	smpsAlterNote       $02
	dc.b	nB1
	smpsAlterNote       $01
	dc.b	nB1
	smpsAlterNote       $00
	dc.b	nB1, $04
	smpsAlterNote       $FF
	dc.b	nB1, $02
	smpsAlterNote       $FE
	dc.b	nB1, $03
	smpsAlterNote       $FF
	dc.b	nB1, $01
	smpsAlterNote       $00
	dc.b	nB1
	smpsAlterNote       $02
	dc.b	nB1
	smpsAlterNote       $03
	dc.b	nB1
	smpsAlterNote       $04
	dc.b	nB1
	smpsAlterNote       $03
	dc.b	nB1, $02
	smpsAlterNote       $01
	dc.b	nB1, $01
	smpsAlterNote       $00
	dc.b	nB1
	smpsAlterNote       $FF
	dc.b	nB1, $03
	smpsAlterNote       $00
	dc.b	nB1, $01
	smpsAlterNote       $01
	dc.b	nB1
	smpsAlterNote       $02
	dc.b	nB1, $02
	smpsAlterNote       $01
	dc.b	nB1, $01
	smpsAlterNote       $00
	dc.b	nB1
	smpsAlterNote       $FF
	dc.b	nB1
	smpsAlterNote       $FE
	dc.b	nB1, $02
	smpsAlterNote       $FF
	dc.b	nB1, $01
	smpsAlterNote       $00
	dc.b	nB1
	smpsAlterNote       $02
	dc.b	nB1
	smpsAlterNote       $03
	dc.b	nB1
	smpsAlterNote       $04
	dc.b	nB1, $02
	smpsAlterNote       $03
	dc.b	nBb1, $01
	smpsAlterNote       $01
	dc.b	nA1
	smpsAlterNote       $FF
	dc.b	nAb1
	smpsAlterNote       $FE
	dc.b	nG1
	smpsAlterNote       $FD
	dc.b	nFs1
	smpsAlterNote       $FE
	dc.b	nF1
	smpsAlterNote       $FF
	dc.b	nE1
	smpsAlterNote       $01
	dc.b	nEb1, nD1
	smpsAlterNote       $03
	dc.b	nCs1, nRst, $3C
	smpsPSGAlterVol     $FE
	smpsAlterNote       $FF
	dc.b	nD2, $02
	smpsPSGAlterVol     $01
	smpsAlterNote       $FE
	dc.b	nD2, $01
	smpsAlterNote       $FF
	dc.b	nD2
	smpsPSGAlterVol     $01
	smpsAlterNote       $00
	dc.b	nD2
	smpsAlterNote       $01
	dc.b	nD2
	smpsAlterNote       $02
	dc.b	nD2, $02
	smpsAlterNote       $01
	dc.b	nD2, $01
	smpsAlterNote       $00
	dc.b	nD2
	smpsPSGAlterVol     $FE
	dc.b	nE2
	smpsAlterNote       $FF
	dc.b	nE2
	smpsPSGAlterVol     $01
	smpsAlterNote       $FF
	dc.b	nE2, $02
	smpsPSGAlterVol     $01
	smpsAlterNote       $00
	dc.b	nE2, $01
	smpsAlterNote       $01
	dc.b	nE2
	smpsAlterNote       $02
	dc.b	nE2, $02
	smpsAlterNote       $01
	dc.b	nE2, $01
	smpsAlterNote       $00
	dc.b	nE2
	smpsPSGAlterVol     $FE
	smpsAlterNote       $00
	dc.b	nE2
	smpsAlterNote       $FF
	dc.b	nE2
	smpsPSGAlterVol     $01
	smpsAlterNote       $FF
	dc.b	nE2, $02
	smpsPSGAlterVol     $01
	smpsAlterNote       $00
	dc.b	nE2, $01
	smpsAlterNote       $01
	dc.b	nE2
	smpsAlterNote       $02
	dc.b	nE2, $02
	smpsAlterNote       $01
	dc.b	nE2, $01
	smpsAlterNote       $00
	dc.b	nE2
	smpsPSGAlterVol     $FE
	dc.b	nCs2
	smpsAlterNote       $FF
	dc.b	nCs2
	smpsPSGAlterVol     $01
	smpsAlterNote       $FF
	dc.b	nCs2, $02
	smpsPSGAlterVol     $01
	smpsAlterNote       $00
	dc.b	nCs2, $01
	smpsAlterNote       $01
	dc.b	nCs2
	smpsAlterNote       $02
	dc.b	nCs2, $03
	smpsAlterNote       $01
	dc.b	nCs2, $01
	smpsPSGAlterVol     $FE
	smpsAlterNote       $FF
	dc.b	nD2, $02
	smpsPSGAlterVol     $01
	smpsAlterNote       $FE
	dc.b	nD2, $01
	smpsAlterNote       $FF
	dc.b	nD2
	smpsPSGAlterVol     $01
	smpsAlterNote       $00
	dc.b	nD2
	smpsAlterNote       $01
	dc.b	nD2
	smpsAlterNote       $02
	dc.b	nD2, $02
	smpsAlterNote       $01
	dc.b	nD2, $01
	smpsAlterNote       $00
	dc.b	nD2
	smpsPSGAlterVol     $FE
	dc.b	nE2
	smpsAlterNote       $FF
	dc.b	nE2
	smpsPSGAlterVol     $01
	smpsAlterNote       $FF
	dc.b	nE2, $02
	smpsPSGAlterVol     $01
	smpsAlterNote       $00
	dc.b	nE2, $01
	smpsAlterNote       $01
	dc.b	nE2
	smpsAlterNote       $02
	dc.b	nE2, $02
	smpsAlterNote       $01
	dc.b	nE2, $01
	smpsAlterNote       $00
	dc.b	nE2
	smpsPSGAlterVol     $FE
	dc.b	nCs2
	smpsAlterNote       $FF
	dc.b	nCs2
	smpsPSGAlterVol     $01
	smpsAlterNote       $FF
	dc.b	nCs2, $02
	smpsPSGAlterVol     $01
	smpsAlterNote       $00
	dc.b	nCs2, $01
	smpsAlterNote       $01
	dc.b	nCs2
	smpsAlterNote       $02
	dc.b	nCs2, $03
	smpsAlterNote       $01
	dc.b	nCs2, $01
	smpsAlterNote       $FB
	dc.b	nCs2
	smpsAlterNote       $01
	dc.b	nD2
	smpsAlterNote       $FD
	dc.b	nD2
	smpsAlterNote       $03
	dc.b	nEb2
	smpsAlterNote       $00
	dc.b	nEb2
	smpsAlterNote       $FD
	dc.b	nEb2
	smpsAlterNote       $FB
	dc.b	nEb2
	smpsAlterNote       $03
	dc.b	nE2, $03
	smpsAlterNote       $02
	dc.b	nE2, $01
	smpsAlterNote       $01
	dc.b	nE2
	smpsAlterNote       $00
	dc.b	nE2
	smpsAlterNote       $FF
	dc.b	nE2, $02
	smpsAlterNote       $00
	dc.b	nE2, $01
	smpsAlterNote       $01
	dc.b	nE2, $02
	smpsAlterNote       $02
	dc.b	nE2, $01
	smpsAlterNote       $01
	dc.b	nE2, $02
	smpsAlterNote       $00
	dc.b	nE2, $01
	smpsAlterNote       $FF
	dc.b	nE2, $03
	smpsAlterNote       $00
	dc.b	nE2, $01
	smpsAlterNote       $01
	dc.b	nE2
	smpsAlterNote       $02
	dc.b	nE2
	smpsAlterNote       $03
	dc.b	nE2, $03
	smpsAlterNote       $02
	dc.b	nE2, $01
	smpsAlterNote       $01
	dc.b	nE2
	smpsAlterNote       $00
	dc.b	nE2
	smpsAlterNote       $FF
	dc.b	nE2, $03
	smpsAlterNote       $00
	dc.b	nE2, $01
	smpsAlterNote       $01
	dc.b	nE2, $02
	smpsAlterNote       $02
	dc.b	nE2, $01
	smpsAlterNote       $01
	dc.b	nE2, $02
	smpsAlterNote       $00
	dc.b	nE2, $01
	smpsAlterNote       $FF
	dc.b	nE2, $02
	smpsAlterNote       $00
	dc.b	nE2, $01
	smpsAlterNote       $01
	dc.b	nE2
	smpsAlterNote       $02
	dc.b	nE2
	smpsAlterNote       $03
	dc.b	nE2
	smpsAlterNote       $02
	dc.b	nEb2
	smpsAlterNote       $03
	dc.b	nD2, nCs2
	smpsAlterNote       $00
	dc.b	nC2
	smpsAlterNote       $FF
	dc.b	nB1
	smpsAlterNote       $FE
	dc.b	nBb1
	smpsAlterNote       $FD
	dc.b	nA1, nAb1
	smpsAlterNote       $FF
	dc.b	nG1
	smpsAlterNote       $00
	dc.b	nFs1
	smpsAlterNote       $02
	dc.b	nF1
	smpsAlterNote       $03
	dc.b	nE1, nEb1
	smpsAlterNote       $01
	dc.b	nD1
	smpsAlterNote       $00
	dc.b	nCs1
	smpsAlterNote       $FE
	dc.b	nC1, nB0, nBb0
	smpsAlterNote       $01
	dc.b	nA0
	smpsAlterNote       $04
	dc.b	nAb0, nRst, $64
	smpsPSGAlterVol     $FE
	smpsAlterNote       $01
	dc.b	nCs1, $02
	smpsPSGAlterVol     $01
	smpsAlterNote       $01
	dc.b	nCs1
	smpsPSGAlterVol     $01
	smpsAlterNote       $01
	dc.b	nCs1, $01
	smpsAlterNote       $FC
	dc.b	nCs1
	smpsAlterNote       $F7
	dc.b	nCs1
	smpsAlterNote       $08
	dc.b	nD1
	smpsAlterNote       $04
	dc.b	nD1
	smpsAlterNote       $FF
	dc.b	nD1
	smpsAlterNote       $FB
	dc.b	nD1
	smpsAlterNote       $F8
	dc.b	nD1
	smpsAlterNote       $0A
	dc.b	nEb1
	smpsAlterNote       $07
	dc.b	nEb1
	smpsAlterNote       $03
	dc.b	nEb1
	smpsAlterNote       $00
	dc.b	nEb1
	smpsAlterNote       $FC
	dc.b	nEb1
	smpsAlterNote       $F9
	dc.b	nEb1
	smpsAlterNote       $09
	dc.b	nE1
	smpsAlterNote       $06
	dc.b	nE1
	smpsAlterNote       $02
	dc.b	nE1
	smpsAlterNote       $FE
	dc.b	nE1
	smpsAlterNote       $FA
	dc.b	nE1
	smpsAlterNote       $09
	dc.b	nF1
	smpsAlterNote       $05
	dc.b	nF1
	smpsAlterNote       $01
	dc.b	nF1
	smpsAlterNote       $FD
	dc.b	nF1
	smpsAlterNote       $F9
	dc.b	nF1
	smpsAlterNote       $08
	dc.b	nFs1
	smpsAlterNote       $04
	dc.b	nFs1
	smpsAlterNote       $01
	dc.b	nFs1
	smpsAlterNote       $FE
	dc.b	nFs1
	smpsAlterNote       $FB
	dc.b	nFs1
	smpsAlterNote       $F9
	dc.b	nFs1
	smpsAlterNote       $07
	dc.b	nG1
	smpsAlterNote       $04
	dc.b	nG1
	smpsAlterNote       $01
	dc.b	nG1
	smpsAlterNote       $FE
	dc.b	nG1
	smpsAlterNote       $FC
	dc.b	nG1
	smpsAlterNote       $F9
	dc.b	nG1
	smpsAlterNote       $05
	dc.b	nAb1
	smpsAlterNote       $02
	dc.b	nAb1
	smpsAlterNote       $FF
	dc.b	nAb1
	smpsAlterNote       $FC
	dc.b	nAb1
	smpsAlterNote       $F9
	dc.b	nAb1
	smpsAlterNote       $05
	dc.b	nA1
	smpsAlterNote       $01
	dc.b	nA1
	smpsAlterNote       $FE
	dc.b	nA1
	smpsAlterNote       $FB
	dc.b	nA1
	smpsAlterNote       $F9
	dc.b	nA1
	smpsAlterNote       $05
	dc.b	nBb1
	smpsAlterNote       $03
	dc.b	nBb1
	smpsAlterNote       $00
	dc.b	nBb1
	smpsAlterNote       $FE
	dc.b	nBb1
	smpsAlterNote       $FC
	dc.b	nBb1
	smpsAlterNote       $06
	dc.b	nB1
	smpsAlterNote       $04
	dc.b	nB1
	smpsAlterNote       $02
	dc.b	nB1
	smpsAlterNote       $00
	dc.b	nB1
	smpsAlterNote       $FE
	dc.b	nB1
	smpsAlterNote       $FB
	dc.b	nB1
	smpsAlterNote       $04
	dc.b	nC2
	smpsAlterNote       $02
	dc.b	nC2
	smpsAlterNote       $FF
	dc.b	nC2
	smpsAlterNote       $FD
	dc.b	nC2
	smpsAlterNote       $FA
	dc.b	nC2
	smpsAlterNote       $05
	dc.b	nCs2
	smpsAlterNote       $02
	dc.b	nCs2
	smpsAlterNote       $00
	dc.b	nCs2
	smpsAlterNote       $FE
	dc.b	nCs2
	smpsPSGAlterVol     $FE
	smpsAlterNote       $01
	dc.b	nE2, $02
	smpsPSGAlterVol     $01
	smpsAlterNote       $01
	dc.b	nE2
	smpsPSGAlterVol     $01
	smpsAlterNote       $01
	dc.b	nE2
	smpsAlterNote       $00
	dc.b	nE2, $04, nRst, $1E
	smpsPSGAlterVol     $F9
	dc.b	nCs3, $01
	smpsPSGAlterVol     $07
	smpsJump            Genocide_Night_Reimagined_Jump07

; PSG3 Data
Genocide_Night_Reimagined_PSG3:
	smpsPSGform         $E7
	dc.b	nRst, $7F, $35
	smpsPSGAlterVol     $03
	smpsAlterNote       $FF
	dc.b	nAb5, $01
	smpsPSGAlterVol     $02
	smpsAlterNote       $FF
	dc.b	nAb5
	smpsPSGAlterVol     $04
	smpsAlterNote       $FF
	dc.b	nAb5
	smpsPSGAlterVol     $03
	smpsAlterNote       $FF
	dc.b	nAb5
	smpsPSGAlterVol     $01
	smpsAlterNote       $FF
	dc.b	nAb5, nRst, $05
	smpsPSGAlterVol     $F6
	smpsAlterNote       $04
	dc.b	nMaxPSG, $01
	smpsPSGAlterVol     $02
	smpsAlterNote       $04
	dc.b	nMaxPSG
	smpsPSGAlterVol     $04
	smpsAlterNote       $04
	dc.b	nMaxPSG
	smpsPSGAlterVol     $03
	smpsAlterNote       $04
	dc.b	nMaxPSG
	smpsPSGAlterVol     $01
	smpsAlterNote       $04
	dc.b	nMaxPSG, nRst, $05
	smpsPSGAlterVol     $F6
	smpsAlterNote       $FF
	dc.b	nAb5, $01
	smpsPSGAlterVol     $02
	smpsAlterNote       $FF
	dc.b	nAb5
	smpsPSGAlterVol     $04
	smpsAlterNote       $FF
	dc.b	nAb5
	smpsPSGAlterVol     $03
	smpsAlterNote       $FF
	dc.b	nAb5
	smpsPSGAlterVol     $01
	smpsAlterNote       $FF
	dc.b	nAb5, nRst, $05
	smpsPSGAlterVol     $F6
	smpsAlterNote       $04
	dc.b	nMaxPSG, $01
	smpsPSGAlterVol     $02
	smpsAlterNote       $04
	dc.b	nMaxPSG
	smpsPSGAlterVol     $04
	smpsAlterNote       $04
	dc.b	nMaxPSG
	smpsPSGAlterVol     $03
	smpsAlterNote       $04
	dc.b	nMaxPSG
	smpsPSGAlterVol     $01
	smpsAlterNote       $04
	dc.b	nMaxPSG, nRst, $05
	smpsPSGAlterVol     $F6
	smpsAlterNote       $FF
	dc.b	nAb5, $01
	smpsPSGAlterVol     $02
	smpsAlterNote       $FF
	dc.b	nAb5
	smpsPSGAlterVol     $04
	smpsAlterNote       $FF
	dc.b	nAb5
	smpsPSGAlterVol     $03
	smpsAlterNote       $FF
	dc.b	nAb5
	smpsPSGAlterVol     $01
	smpsAlterNote       $FF
	dc.b	nAb5, nRst, $05
	smpsPSGAlterVol     $F6
	smpsAlterNote       $04
	dc.b	nMaxPSG, $01
	smpsPSGAlterVol     $02
	smpsAlterNote       $04
	dc.b	nMaxPSG
	smpsPSGAlterVol     $04
	smpsAlterNote       $04
	dc.b	nMaxPSG
	smpsPSGAlterVol     $03
	smpsAlterNote       $04
	dc.b	nMaxPSG
	smpsPSGAlterVol     $01
	smpsAlterNote       $04
	dc.b	nMaxPSG, nRst, $05
	smpsPSGAlterVol     $F6
	smpsAlterNote       $FF
	dc.b	nAb5, $01
	smpsPSGAlterVol     $02
	smpsAlterNote       $FF
	dc.b	nAb5
	smpsPSGAlterVol     $04
	smpsAlterNote       $FF
	dc.b	nAb5
	smpsPSGAlterVol     $03
	smpsAlterNote       $FF
	dc.b	nAb5
	smpsPSGAlterVol     $01
	smpsAlterNote       $FF
	dc.b	nAb5, nRst, $05
	smpsPSGAlterVol     $F6
	smpsAlterNote       $04
	dc.b	nMaxPSG, $01
	smpsPSGAlterVol     $02
	smpsAlterNote       $04
	dc.b	nMaxPSG
	smpsPSGAlterVol     $04
	smpsAlterNote       $04
	dc.b	nMaxPSG
	smpsPSGAlterVol     $03
	smpsAlterNote       $04
	dc.b	nMaxPSG
	smpsPSGAlterVol     $01
	smpsAlterNote       $04
	dc.b	nMaxPSG, nRst, $05
	smpsPSGAlterVol     $F6
	smpsAlterNote       $FF
	dc.b	nAb5, $01
	smpsPSGAlterVol     $02
	smpsAlterNote       $FF
	dc.b	nAb5
	smpsPSGAlterVol     $04
	smpsAlterNote       $FF
	dc.b	nAb5
	smpsPSGAlterVol     $03
	smpsAlterNote       $FF
	dc.b	nAb5
	smpsPSGAlterVol     $01
	smpsAlterNote       $FF
	dc.b	nAb5, nRst, $05
	smpsPSGAlterVol     $F6
	smpsAlterNote       $04
	dc.b	nMaxPSG, $01
	smpsPSGAlterVol     $02
	smpsAlterNote       $04
	dc.b	nMaxPSG
	smpsPSGAlterVol     $04
	smpsAlterNote       $04
	dc.b	nMaxPSG
	smpsPSGAlterVol     $03
	smpsAlterNote       $04
	dc.b	nMaxPSG
	smpsPSGAlterVol     $01
	smpsAlterNote       $04
	dc.b	nMaxPSG, nRst, $05
	smpsPSGAlterVol     $F6
	smpsAlterNote       $FF
	dc.b	nAb5, $01
	smpsPSGAlterVol     $02
	smpsAlterNote       $FF
	dc.b	nAb5
	smpsPSGAlterVol     $04
	smpsAlterNote       $FF
	dc.b	nAb5
	smpsPSGAlterVol     $03
	smpsAlterNote       $FF
	dc.b	nAb5
	smpsPSGAlterVol     $01
	smpsAlterNote       $FF
	dc.b	nAb5, nRst, $05
	smpsPSGAlterVol     $F6
	smpsAlterNote       $04
	dc.b	nMaxPSG, $01
	smpsPSGAlterVol     $02
	smpsAlterNote       $04
	dc.b	nMaxPSG
	smpsPSGAlterVol     $04
	smpsAlterNote       $04
	dc.b	nMaxPSG
	smpsPSGAlterVol     $03
	smpsAlterNote       $04
	dc.b	nMaxPSG
	smpsPSGAlterVol     $01
	smpsAlterNote       $04
	dc.b	nMaxPSG, nRst, $05
	smpsPSGAlterVol     $F6
	smpsAlterNote       $FF
	dc.b	nAb5, $01
	smpsPSGAlterVol     $02
	smpsAlterNote       $FF
	dc.b	nAb5
	smpsPSGAlterVol     $04
	smpsAlterNote       $FF
	dc.b	nAb5
	smpsPSGAlterVol     $03
	smpsAlterNote       $FF
	dc.b	nAb5
	smpsPSGAlterVol     $01
	smpsAlterNote       $FF
	dc.b	nAb5, nRst, $05
	smpsPSGAlterVol     $F6
	smpsAlterNote       $04
	dc.b	nMaxPSG, $01
	smpsPSGAlterVol     $02
	smpsAlterNote       $04
	dc.b	nMaxPSG
	smpsPSGAlterVol     $04
	smpsAlterNote       $04
	dc.b	nMaxPSG
	smpsPSGAlterVol     $03
	smpsAlterNote       $04
	dc.b	nMaxPSG
	smpsPSGAlterVol     $01
	smpsAlterNote       $04
	dc.b	nMaxPSG, nRst, $05
	smpsPSGAlterVol     $F6
	smpsAlterNote       $FF
	dc.b	nAb5, $01
	smpsPSGAlterVol     $02
	smpsAlterNote       $FF
	dc.b	nAb5
	smpsPSGAlterVol     $04
	smpsAlterNote       $FF
	dc.b	nAb5
	smpsPSGAlterVol     $03
	smpsAlterNote       $FF
	dc.b	nAb5
	smpsPSGAlterVol     $01
	smpsAlterNote       $FF
	dc.b	nAb5, nRst, $05
	smpsPSGAlterVol     $F6
	smpsAlterNote       $04
	dc.b	nMaxPSG, $01
	smpsPSGAlterVol     $02
	smpsAlterNote       $04
	dc.b	nMaxPSG
	smpsPSGAlterVol     $04
	smpsAlterNote       $04
	dc.b	nMaxPSG
	smpsPSGAlterVol     $03
	smpsAlterNote       $04
	dc.b	nMaxPSG
	smpsPSGAlterVol     $01
	smpsAlterNote       $04
	dc.b	nMaxPSG, nRst, $05
	smpsPSGAlterVol     $F6
	smpsAlterNote       $FF
	dc.b	nAb5, $01
	smpsPSGAlterVol     $02
	smpsAlterNote       $FF
	dc.b	nAb5
	smpsPSGAlterVol     $04
	smpsAlterNote       $FF
	dc.b	nAb5
	smpsPSGAlterVol     $03
	smpsAlterNote       $FF
	dc.b	nAb5
	smpsPSGAlterVol     $01
	smpsAlterNote       $FF
	dc.b	nAb5, nRst, $05
	smpsPSGAlterVol     $F6
	smpsAlterNote       $04
	dc.b	nMaxPSG, $01
	smpsPSGAlterVol     $02
	smpsAlterNote       $04
	dc.b	nMaxPSG
	smpsPSGAlterVol     $04
	smpsAlterNote       $04
	dc.b	nMaxPSG
	smpsPSGAlterVol     $03
	smpsAlterNote       $04
	dc.b	nMaxPSG
	smpsPSGAlterVol     $01
	smpsAlterNote       $04
	dc.b	nMaxPSG, nRst, $05
	smpsPSGAlterVol     $F6
	smpsAlterNote       $FF
	dc.b	nAb5, $01
	smpsPSGAlterVol     $02
	smpsAlterNote       $FF
	dc.b	nAb5
	smpsPSGAlterVol     $04
	smpsAlterNote       $FF
	dc.b	nAb5
	smpsPSGAlterVol     $03
	smpsAlterNote       $FF
	dc.b	nAb5
	smpsPSGAlterVol     $01
	smpsAlterNote       $FF
	dc.b	nAb5, nRst, $05
	smpsPSGAlterVol     $F6
	smpsAlterNote       $04
	dc.b	nMaxPSG, $01
	smpsPSGAlterVol     $02
	smpsAlterNote       $04
	dc.b	nMaxPSG
	smpsPSGAlterVol     $04
	smpsAlterNote       $04
	dc.b	nMaxPSG
	smpsPSGAlterVol     $03
	smpsAlterNote       $04
	dc.b	nMaxPSG
	smpsPSGAlterVol     $01
	smpsAlterNote       $04
	dc.b	nMaxPSG, nRst, $05
	smpsPSGAlterVol     $F6
	smpsAlterNote       $FF
	dc.b	nAb5, $01
	smpsPSGAlterVol     $02
	smpsAlterNote       $FF
	dc.b	nAb5
	smpsPSGAlterVol     $04
	smpsAlterNote       $FF
	dc.b	nAb5
	smpsPSGAlterVol     $03
	smpsAlterNote       $FF
	dc.b	nAb5
	smpsPSGAlterVol     $01
	smpsAlterNote       $FF
	dc.b	nAb5, nRst, $05
	smpsPSGAlterVol     $F6
	smpsAlterNote       $04
	dc.b	nMaxPSG, $01
	smpsPSGAlterVol     $02
	smpsAlterNote       $04
	dc.b	nMaxPSG
	smpsPSGAlterVol     $04
	smpsAlterNote       $04
	dc.b	nMaxPSG
	smpsPSGAlterVol     $03
	smpsAlterNote       $04
	dc.b	nMaxPSG
	smpsPSGAlterVol     $01
	smpsAlterNote       $04
	dc.b	nMaxPSG, nRst, $05
	smpsPSGAlterVol     $F6
	smpsAlterNote       $FF
	dc.b	nAb5, $01
	smpsPSGAlterVol     $02
	smpsAlterNote       $FF
	dc.b	nAb5
	smpsPSGAlterVol     $04
	smpsAlterNote       $FF
	dc.b	nAb5
	smpsPSGAlterVol     $03
	smpsAlterNote       $FF
	dc.b	nAb5
	smpsPSGAlterVol     $01
	smpsAlterNote       $FF
	dc.b	nAb5, nRst, $05
	smpsPSGAlterVol     $F6
	smpsAlterNote       $04
	dc.b	nMaxPSG, $01
	smpsPSGAlterVol     $02
	smpsAlterNote       $04
	dc.b	nMaxPSG
	smpsPSGAlterVol     $04
	smpsAlterNote       $04
	dc.b	nMaxPSG
	smpsPSGAlterVol     $03
	smpsAlterNote       $04
	dc.b	nMaxPSG
	smpsPSGAlterVol     $01
	smpsAlterNote       $04
	dc.b	nMaxPSG, nRst, $05
	smpsPSGAlterVol     $F6
	smpsAlterNote       $FF
	dc.b	nAb5, $01
	smpsPSGAlterVol     $02
	smpsAlterNote       $FF
	dc.b	nAb5
	smpsPSGAlterVol     $04
	smpsAlterNote       $FF
	dc.b	nAb5
	smpsPSGAlterVol     $03
	smpsAlterNote       $FF
	dc.b	nAb5
	smpsPSGAlterVol     $01
	smpsAlterNote       $FF
	dc.b	nAb5, nRst, $05
	smpsPSGAlterVol     $F6
	smpsAlterNote       $04
	dc.b	nMaxPSG, $01
	smpsPSGAlterVol     $02
	smpsAlterNote       $04
	dc.b	nMaxPSG
	smpsPSGAlterVol     $04
	smpsAlterNote       $04
	dc.b	nMaxPSG
	smpsPSGAlterVol     $03
	smpsAlterNote       $04
	dc.b	nMaxPSG
	smpsPSGAlterVol     $01
	smpsAlterNote       $04
	dc.b	nMaxPSG, nRst, $05
	smpsPSGAlterVol     $F6
	smpsAlterNote       $FF
	dc.b	nAb5, $01
	smpsPSGAlterVol     $02
	smpsAlterNote       $FF
	dc.b	nAb5
	smpsPSGAlterVol     $04
	smpsAlterNote       $FF
	dc.b	nAb5
	smpsPSGAlterVol     $03
	smpsAlterNote       $FF
	dc.b	nAb5
	smpsPSGAlterVol     $01
	smpsAlterNote       $FF
	dc.b	nAb5, nRst, $05
	smpsPSGAlterVol     $F6
	smpsAlterNote       $04
	dc.b	nMaxPSG, $01
	smpsPSGAlterVol     $02
	smpsAlterNote       $04
	dc.b	nMaxPSG
	smpsPSGAlterVol     $04
	smpsAlterNote       $04
	dc.b	nMaxPSG
	smpsPSGAlterVol     $03
	smpsAlterNote       $04
	dc.b	nMaxPSG
	smpsPSGAlterVol     $01
	smpsAlterNote       $04
	dc.b	nMaxPSG, nRst, $05
	smpsPSGAlterVol     $F6
	smpsAlterNote       $FF
	dc.b	nAb5, $01
	smpsPSGAlterVol     $02
	smpsAlterNote       $FF
	dc.b	nAb5
	smpsPSGAlterVol     $04
	smpsAlterNote       $FF
	dc.b	nAb5
	smpsPSGAlterVol     $03
	smpsAlterNote       $FF
	dc.b	nAb5
	smpsPSGAlterVol     $01
	smpsAlterNote       $FF
	dc.b	nAb5, nRst, $05
	smpsPSGAlterVol     $F6
	smpsAlterNote       $04
	dc.b	nMaxPSG, $01
	smpsPSGAlterVol     $02
	smpsAlterNote       $04
	dc.b	nMaxPSG
	smpsPSGAlterVol     $04
	smpsAlterNote       $04
	dc.b	nMaxPSG
	smpsPSGAlterVol     $03
	smpsAlterNote       $04
	dc.b	nMaxPSG
	smpsPSGAlterVol     $01
	smpsAlterNote       $04
	dc.b	nMaxPSG, nRst, $05
	smpsPSGAlterVol     $F6
	smpsAlterNote       $FF
	dc.b	nAb5, $01
	smpsPSGAlterVol     $02
	smpsAlterNote       $FF
	dc.b	nAb5
	smpsPSGAlterVol     $04
	smpsAlterNote       $FF
	dc.b	nAb5
	smpsPSGAlterVol     $03
	smpsAlterNote       $FF
	dc.b	nAb5
	smpsPSGAlterVol     $01
	smpsAlterNote       $FF
	dc.b	nAb5, nRst, $05
	smpsPSGAlterVol     $F6
	smpsAlterNote       $04
	dc.b	nMaxPSG, $01
	smpsPSGAlterVol     $02
	smpsAlterNote       $04
	dc.b	nMaxPSG
	smpsPSGAlterVol     $04
	smpsAlterNote       $04
	dc.b	nMaxPSG
	smpsPSGAlterVol     $03
	smpsAlterNote       $04
	dc.b	nMaxPSG
	smpsPSGAlterVol     $01
	smpsAlterNote       $04
	dc.b	nMaxPSG, nRst, $05
	smpsPSGAlterVol     $F6
	smpsAlterNote       $FF
	dc.b	nAb5, $01
	smpsPSGAlterVol     $02
	smpsAlterNote       $FF
	dc.b	nAb5
	smpsPSGAlterVol     $04
	smpsAlterNote       $FF
	dc.b	nAb5
	smpsPSGAlterVol     $03
	smpsAlterNote       $FF
	dc.b	nAb5
	smpsPSGAlterVol     $01
	smpsAlterNote       $FF
	dc.b	nAb5, nRst, $05
	smpsPSGAlterVol     $F6
	smpsAlterNote       $04
	dc.b	nMaxPSG, $01
	smpsPSGAlterVol     $02
	smpsAlterNote       $04
	dc.b	nMaxPSG
	smpsPSGAlterVol     $04
	smpsAlterNote       $04
	dc.b	nMaxPSG
	smpsPSGAlterVol     $03
	smpsAlterNote       $04
	dc.b	nMaxPSG
	smpsPSGAlterVol     $01
	smpsAlterNote       $04
	dc.b	nMaxPSG, nRst, $05
	smpsPSGAlterVol     $F6
	smpsAlterNote       $FF
	dc.b	nAb5, $01
	smpsPSGAlterVol     $02
	smpsAlterNote       $FF
	dc.b	nAb5
	smpsPSGAlterVol     $04
	smpsAlterNote       $FF
	dc.b	nAb5
	smpsPSGAlterVol     $03
	smpsAlterNote       $FF
	dc.b	nAb5
	smpsPSGAlterVol     $01
	smpsAlterNote       $FF
	dc.b	nAb5, nRst, $05
	smpsPSGAlterVol     $F6
	smpsAlterNote       $04
	dc.b	nMaxPSG, $01
	smpsPSGAlterVol     $02
	smpsAlterNote       $04
	dc.b	nMaxPSG
	smpsPSGAlterVol     $04
	smpsAlterNote       $04
	dc.b	nMaxPSG
	smpsPSGAlterVol     $03
	smpsAlterNote       $04
	dc.b	nMaxPSG
	smpsPSGAlterVol     $01
	smpsAlterNote       $04
	dc.b	nMaxPSG, nRst, $05
	smpsPSGAlterVol     $F6
	smpsAlterNote       $FF
	dc.b	nAb5, $01
	smpsPSGAlterVol     $02
	smpsAlterNote       $FF
	dc.b	nAb5
	smpsPSGAlterVol     $04
	smpsAlterNote       $FF
	dc.b	nAb5
	smpsPSGAlterVol     $03
	smpsAlterNote       $FF
	dc.b	nAb5
	smpsPSGAlterVol     $01
	smpsAlterNote       $FF
	dc.b	nAb5, nRst, $05
	smpsPSGAlterVol     $F6
	smpsAlterNote       $04
	dc.b	nMaxPSG, $01
	smpsPSGAlterVol     $02
	smpsAlterNote       $04
	dc.b	nMaxPSG
	smpsPSGAlterVol     $04
	smpsAlterNote       $04
	dc.b	nMaxPSG
	smpsPSGAlterVol     $03
	smpsAlterNote       $04
	dc.b	nMaxPSG
	smpsPSGAlterVol     $01
	smpsAlterNote       $04
	dc.b	nMaxPSG, nRst, $05
	smpsPSGAlterVol     $F6
	smpsAlterNote       $FF
	dc.b	nAb5, $01
	smpsPSGAlterVol     $02
	smpsAlterNote       $FF
	dc.b	nAb5
	smpsPSGAlterVol     $04
	smpsAlterNote       $FF
	dc.b	nAb5
	smpsPSGAlterVol     $03
	smpsAlterNote       $FF
	dc.b	nAb5
	smpsPSGAlterVol     $01
	smpsAlterNote       $FF
	dc.b	nAb5, nRst, $05
	smpsPSGAlterVol     $F6
	smpsAlterNote       $04
	dc.b	nMaxPSG, $01
	smpsPSGAlterVol     $02
	smpsAlterNote       $04
	dc.b	nMaxPSG
	smpsPSGAlterVol     $04
	smpsAlterNote       $04
	dc.b	nMaxPSG
	smpsPSGAlterVol     $03
	smpsAlterNote       $04
	dc.b	nMaxPSG
	smpsPSGAlterVol     $01
	smpsAlterNote       $04
	dc.b	nMaxPSG, nRst, $05
	smpsPSGAlterVol     $F6
	smpsAlterNote       $FF
	dc.b	nAb5, $01
	smpsPSGAlterVol     $02
	smpsAlterNote       $FF
	dc.b	nAb5
	smpsPSGAlterVol     $04
	smpsAlterNote       $FF
	dc.b	nAb5
	smpsPSGAlterVol     $03
	smpsAlterNote       $FF
	dc.b	nAb5
	smpsPSGAlterVol     $01
	smpsAlterNote       $FF
	dc.b	nAb5, nRst, $05
	smpsPSGAlterVol     $F6
	smpsAlterNote       $04
	dc.b	nMaxPSG, $01
	smpsPSGAlterVol     $02
	smpsAlterNote       $04
	dc.b	nMaxPSG
	smpsPSGAlterVol     $04
	smpsAlterNote       $04
	dc.b	nMaxPSG
	smpsPSGAlterVol     $03
	smpsAlterNote       $04
	dc.b	nMaxPSG
	smpsPSGAlterVol     $01
	smpsAlterNote       $04
	dc.b	nMaxPSG, nRst, $05
	smpsPSGAlterVol     $F6
	smpsAlterNote       $FF
	dc.b	nAb5, $01
	smpsPSGAlterVol     $02
	smpsAlterNote       $FF
	dc.b	nAb5
	smpsPSGAlterVol     $04
	smpsAlterNote       $FF
	dc.b	nAb5
	smpsPSGAlterVol     $03
	smpsAlterNote       $FF
	dc.b	nAb5
	smpsPSGAlterVol     $01
	smpsAlterNote       $FF
	dc.b	nAb5, nRst, $05
	smpsPSGAlterVol     $F6
	smpsAlterNote       $04
	dc.b	nMaxPSG, $01
	smpsPSGAlterVol     $02
	smpsAlterNote       $04
	dc.b	nMaxPSG
	smpsPSGAlterVol     $04
	smpsAlterNote       $04
	dc.b	nMaxPSG
	smpsPSGAlterVol     $03
	smpsAlterNote       $04
	dc.b	nMaxPSG
	smpsPSGAlterVol     $01
	smpsAlterNote       $04
	dc.b	nMaxPSG, nRst, $05
	smpsPSGAlterVol     $F5
	smpsAlterNote       $FF
	dc.b	nAb5, $01
	smpsPSGAlterVol     $01
	smpsAlterNote       $FF
	dc.b	nAb5
	smpsPSGAlterVol     $01
	smpsAlterNote       $FF
	dc.b	nAb5
	smpsPSGAlterVol     $01
	smpsAlterNote       $FF
	dc.b	nAb5, $02
	smpsPSGAlterVol     $FD
	smpsAlterNote       $04
	dc.b	nMaxPSG, $01
	smpsPSGAlterVol     $01
	smpsAlterNote       $04
	dc.b	nMaxPSG
	smpsPSGAlterVol     $01
	smpsAlterNote       $04
	dc.b	nMaxPSG
	smpsPSGAlterVol     $01
	smpsAlterNote       $04
	dc.b	nMaxPSG, $02
	smpsPSGAlterVol     $FD
	smpsAlterNote       $FF
	dc.b	nAb5, $01
	smpsPSGAlterVol     $01
	smpsAlterNote       $FF
	dc.b	nAb5
	smpsPSGAlterVol     $01
	smpsAlterNote       $FF
	dc.b	nAb5
	smpsPSGAlterVol     $01
	smpsAlterNote       $FF
	dc.b	nAb5, $02
	smpsPSGAlterVol     $01
	smpsAlterNote       $FF
	dc.b	nAb5, $03
	smpsPSGAlterVol     $01
	smpsAlterNote       $FF
	dc.b	nAb5, $01
	smpsPSGAlterVol     $01
	smpsAlterNote       $FF
	dc.b	nAb5
	smpsPSGAlterVol     $FA
	smpsAlterNote       $04
	dc.b	nMaxPSG
	smpsPSGAlterVol     $01
	smpsAlterNote       $04
	dc.b	nMaxPSG
	smpsPSGAlterVol     $01
	smpsAlterNote       $04
	dc.b	nMaxPSG
	smpsPSGAlterVol     $01
	smpsAlterNote       $04
	dc.b	nMaxPSG, $02
	smpsPSGAlterVol     $01
	smpsAlterNote       $04
	dc.b	nMaxPSG, $03
	smpsPSGAlterVol     $01
	smpsAlterNote       $04
	dc.b	nMaxPSG, $01
	smpsPSGAlterVol     $01
	smpsAlterNote       $04
	dc.b	nMaxPSG
	smpsPSGAlterVol     $FA
	smpsAlterNote       $F8
	dc.b	nAb5
	smpsPSGAlterVol     $01
	smpsAlterNote       $F8
	dc.b	nAb5
	smpsPSGAlterVol     $01
	smpsAlterNote       $F8
	dc.b	nAb5
	smpsPSGAlterVol     $01
	smpsAlterNote       $F8
	dc.b	nAb5, $02
	smpsPSGAlterVol     $01
	smpsAlterNote       $F8
	dc.b	nAb5, $03
	smpsPSGAlterVol     $01
	smpsAlterNote       $F8
	dc.b	nAb5, $01
	smpsPSGAlterVol     $01
	smpsAlterNote       $F8
	dc.b	nAb5
	smpsPSGAlterVol     $FA
	smpsAlterNote       $04
	dc.b	nMaxPSG
	smpsPSGAlterVol     $01
	smpsAlterNote       $04
	dc.b	nMaxPSG
	smpsPSGAlterVol     $01
	smpsAlterNote       $04
	dc.b	nMaxPSG
	smpsPSGAlterVol     $01
	smpsAlterNote       $04
	dc.b	nMaxPSG, $02
	smpsPSGAlterVol     $01
	smpsAlterNote       $04
	dc.b	nMaxPSG, $03
	smpsPSGAlterVol     $01
	smpsAlterNote       $04
	dc.b	nMaxPSG, $01
	smpsPSGAlterVol     $01
	smpsAlterNote       $04
	dc.b	nMaxPSG
	smpsPSGAlterVol     $FA
	smpsAlterNote       $FF
	dc.b	nAb5
	smpsPSGAlterVol     $01
	smpsAlterNote       $FF
	dc.b	nAb5
	smpsPSGAlterVol     $01
	smpsAlterNote       $FF
	dc.b	nAb5
	smpsPSGAlterVol     $01
	smpsAlterNote       $FF
	dc.b	nAb5, $02
	smpsPSGAlterVol     $01
	smpsAlterNote       $FF
	dc.b	nAb5, $03
	smpsPSGAlterVol     $01
	smpsAlterNote       $FF
	dc.b	nAb5, $01
	smpsPSGAlterVol     $01
	smpsAlterNote       $FF
	dc.b	nAb5
	smpsPSGAlterVol     $FB
	smpsAlterNote       $FF
	dc.b	nAb5

Genocide_Night_Reimagined_Jump06:
	smpsPSGAlterVol     $02
	smpsAlterNote       $FF
	dc.b	nAb5
	smpsPSGAlterVol     $04
	smpsAlterNote       $FF
	dc.b	nAb5
	smpsPSGAlterVol     $03
	smpsAlterNote       $FF
	dc.b	nAb5
	smpsPSGAlterVol     $01
	smpsAlterNote       $FF
	dc.b	nAb5, nRst, $05
	smpsPSGAlterVol     $F6
	smpsAlterNote       $04
	dc.b	nMaxPSG, $01
	smpsPSGAlterVol     $02
	smpsAlterNote       $04
	dc.b	nMaxPSG
	smpsPSGAlterVol     $04
	smpsAlterNote       $04
	dc.b	nMaxPSG
	smpsPSGAlterVol     $03
	smpsAlterNote       $04
	dc.b	nMaxPSG
	smpsPSGAlterVol     $01
	smpsAlterNote       $04
	dc.b	nMaxPSG, nRst, $05
	smpsPSGAlterVol     $F5
	smpsAlterNote       $FF
	dc.b	nAb5, $01
	smpsPSGAlterVol     $01
	smpsAlterNote       $FF
	dc.b	nAb5
	smpsPSGAlterVol     $01
	smpsAlterNote       $FF
	dc.b	nAb5
	smpsPSGAlterVol     $01
	smpsAlterNote       $FF
	dc.b	nAb5, $02
	smpsPSGAlterVol     $01
	smpsAlterNote       $FF
	dc.b	nAb5, $03
	smpsPSGAlterVol     $01
	smpsAlterNote       $FF
	dc.b	nAb5, $01
	smpsPSGAlterVol     $01
	smpsAlterNote       $FF
	dc.b	nAb5
	smpsPSGAlterVol     $FA
	smpsAlterNote       $04
	dc.b	nMaxPSG
	smpsPSGAlterVol     $01
	smpsAlterNote       $04
	dc.b	nMaxPSG
	smpsPSGAlterVol     $01
	smpsAlterNote       $04
	dc.b	nMaxPSG
	smpsPSGAlterVol     $01
	smpsAlterNote       $04
	dc.b	nMaxPSG, $02
	smpsPSGAlterVol     $01
	smpsAlterNote       $04
	dc.b	nMaxPSG, $03
	smpsPSGAlterVol     $01
	smpsAlterNote       $04
	dc.b	nMaxPSG, $01
	smpsPSGAlterVol     $01
	smpsAlterNote       $04
	dc.b	nMaxPSG
	smpsPSGAlterVol     $FB
	smpsAlterNote       $FF
	dc.b	nAb5
	smpsPSGAlterVol     $02
	smpsAlterNote       $FF
	dc.b	nAb5
	smpsPSGAlterVol     $04
	smpsAlterNote       $FF
	dc.b	nAb5
	smpsPSGAlterVol     $03
	smpsAlterNote       $FF
	dc.b	nAb5
	smpsPSGAlterVol     $01
	smpsAlterNote       $FF
	dc.b	nAb5, nRst, $05
	smpsPSGAlterVol     $F6
	smpsAlterNote       $04
	dc.b	nMaxPSG, $01
	smpsPSGAlterVol     $02
	smpsAlterNote       $04
	dc.b	nMaxPSG
	smpsPSGAlterVol     $04
	smpsAlterNote       $04
	dc.b	nMaxPSG
	smpsPSGAlterVol     $03
	smpsAlterNote       $04
	dc.b	nMaxPSG
	smpsPSGAlterVol     $01
	smpsAlterNote       $04
	dc.b	nMaxPSG, nRst, $05
	smpsPSGAlterVol     $F5
	smpsAlterNote       $FF
	dc.b	nAb5, $01
	smpsPSGAlterVol     $01
	smpsAlterNote       $FF
	dc.b	nAb5
	smpsPSGAlterVol     $01
	smpsAlterNote       $FF
	dc.b	nAb5
	smpsPSGAlterVol     $01
	smpsAlterNote       $FF
	dc.b	nAb5, $02
	smpsPSGAlterVol     $01
	smpsAlterNote       $FF
	dc.b	nAb5, $03
	smpsPSGAlterVol     $01
	smpsAlterNote       $FF
	dc.b	nAb5, $01
	smpsPSGAlterVol     $01
	smpsAlterNote       $FF
	dc.b	nAb5
	smpsPSGAlterVol     $FA
	smpsAlterNote       $04
	dc.b	nMaxPSG
	smpsPSGAlterVol     $01
	smpsAlterNote       $04
	dc.b	nMaxPSG
	smpsPSGAlterVol     $01
	smpsAlterNote       $04
	dc.b	nMaxPSG
	smpsPSGAlterVol     $01
	smpsAlterNote       $04
	dc.b	nMaxPSG, $02
	smpsPSGAlterVol     $01
	smpsAlterNote       $04
	dc.b	nMaxPSG, $03
	smpsPSGAlterVol     $01
	smpsAlterNote       $04
	dc.b	nMaxPSG, $01
	smpsPSGAlterVol     $01
	smpsAlterNote       $04
	dc.b	nMaxPSG
	smpsPSGAlterVol     $FB
	smpsAlterNote       $FF
	dc.b	nAb5
	smpsPSGAlterVol     $02
	smpsAlterNote       $FF
	dc.b	nAb5
	smpsPSGAlterVol     $04
	smpsAlterNote       $FF
	dc.b	nAb5
	smpsPSGAlterVol     $03
	smpsAlterNote       $FF
	dc.b	nAb5
	smpsPSGAlterVol     $01
	smpsAlterNote       $FF
	dc.b	nAb5, nRst, $05
	smpsPSGAlterVol     $F6
	smpsAlterNote       $04
	dc.b	nMaxPSG, $01
	smpsPSGAlterVol     $02
	smpsAlterNote       $04
	dc.b	nMaxPSG
	smpsPSGAlterVol     $04
	smpsAlterNote       $04
	dc.b	nMaxPSG
	smpsPSGAlterVol     $03
	smpsAlterNote       $04
	dc.b	nMaxPSG
	smpsPSGAlterVol     $01
	smpsAlterNote       $04
	dc.b	nMaxPSG, nRst, $05
	smpsPSGAlterVol     $F5
	smpsAlterNote       $FF
	dc.b	nAb5, $01
	smpsPSGAlterVol     $01
	smpsAlterNote       $FF
	dc.b	nAb5
	smpsPSGAlterVol     $01
	smpsAlterNote       $FF
	dc.b	nAb5
	smpsPSGAlterVol     $01
	smpsAlterNote       $FF
	dc.b	nAb5, $02
	smpsPSGAlterVol     $01
	smpsAlterNote       $FF
	dc.b	nAb5, $03
	smpsPSGAlterVol     $01
	smpsAlterNote       $FF
	dc.b	nAb5, $01
	smpsPSGAlterVol     $01
	smpsAlterNote       $FF
	dc.b	nAb5
	smpsPSGAlterVol     $FA
	smpsAlterNote       $04
	dc.b	nMaxPSG
	smpsPSGAlterVol     $01
	smpsAlterNote       $04
	dc.b	nMaxPSG
	smpsPSGAlterVol     $01
	smpsAlterNote       $04
	dc.b	nMaxPSG
	smpsPSGAlterVol     $01
	smpsAlterNote       $04
	dc.b	nMaxPSG, $02
	smpsPSGAlterVol     $01
	smpsAlterNote       $04
	dc.b	nMaxPSG, $03
	smpsPSGAlterVol     $01
	smpsAlterNote       $04
	dc.b	nMaxPSG, $01
	smpsPSGAlterVol     $01
	smpsAlterNote       $04
	dc.b	nMaxPSG
	smpsPSGAlterVol     $FB
	smpsAlterNote       $FF
	dc.b	nAb5
	smpsPSGAlterVol     $02
	smpsAlterNote       $FF
	dc.b	nAb5
	smpsPSGAlterVol     $04
	smpsAlterNote       $FF
	dc.b	nAb5
	smpsPSGAlterVol     $03
	smpsAlterNote       $FF
	dc.b	nAb5
	smpsPSGAlterVol     $01
	smpsAlterNote       $FF
	dc.b	nAb5, nRst, $05
	smpsPSGAlterVol     $F6
	smpsAlterNote       $04
	dc.b	nMaxPSG, $01
	smpsPSGAlterVol     $02
	smpsAlterNote       $04
	dc.b	nMaxPSG
	smpsPSGAlterVol     $04
	smpsAlterNote       $04
	dc.b	nMaxPSG
	smpsPSGAlterVol     $03
	smpsAlterNote       $04
	dc.b	nMaxPSG
	smpsPSGAlterVol     $01
	smpsAlterNote       $04
	dc.b	nMaxPSG, nRst, $05
	smpsPSGAlterVol     $F5
	smpsAlterNote       $FF
	dc.b	nAb5, $01
	smpsPSGAlterVol     $01
	smpsAlterNote       $FF
	dc.b	nAb5
	smpsPSGAlterVol     $01
	smpsAlterNote       $FF
	dc.b	nAb5
	smpsPSGAlterVol     $01
	smpsAlterNote       $FF
	dc.b	nAb5, $02
	smpsPSGAlterVol     $01
	smpsAlterNote       $FF
	dc.b	nAb5, $03
	smpsPSGAlterVol     $01
	smpsAlterNote       $FF
	dc.b	nAb5, $01
	smpsPSGAlterVol     $01
	smpsAlterNote       $FF
	dc.b	nAb5
	smpsPSGAlterVol     $FA
	smpsAlterNote       $04
	dc.b	nMaxPSG
	smpsPSGAlterVol     $01
	smpsAlterNote       $04
	dc.b	nMaxPSG
	smpsPSGAlterVol     $01
	smpsAlterNote       $04
	dc.b	nMaxPSG
	smpsPSGAlterVol     $01
	smpsAlterNote       $04
	dc.b	nMaxPSG, $02
	smpsPSGAlterVol     $01
	smpsAlterNote       $04
	dc.b	nMaxPSG, $03
	smpsPSGAlterVol     $01
	smpsAlterNote       $04
	dc.b	nMaxPSG, $01
	smpsPSGAlterVol     $01
	smpsAlterNote       $04
	dc.b	nMaxPSG
	smpsPSGAlterVol     $FB
	smpsAlterNote       $FF
	dc.b	nAb5
	smpsPSGAlterVol     $02
	smpsAlterNote       $FF
	dc.b	nAb5
	smpsPSGAlterVol     $04
	smpsAlterNote       $FF
	dc.b	nAb5
	smpsPSGAlterVol     $03
	smpsAlterNote       $FF
	dc.b	nAb5
	smpsPSGAlterVol     $01
	smpsAlterNote       $FF
	dc.b	nAb5, nRst, $05
	smpsPSGAlterVol     $F6
	smpsAlterNote       $04
	dc.b	nMaxPSG, $01
	smpsPSGAlterVol     $02
	smpsAlterNote       $04
	dc.b	nMaxPSG
	smpsPSGAlterVol     $04
	smpsAlterNote       $04
	dc.b	nMaxPSG
	smpsPSGAlterVol     $03
	smpsAlterNote       $04
	dc.b	nMaxPSG
	smpsPSGAlterVol     $01
	smpsAlterNote       $04
	dc.b	nMaxPSG, nRst, $05
	smpsPSGAlterVol     $F5
	smpsAlterNote       $FF
	dc.b	nAb5, $01
	smpsPSGAlterVol     $01
	smpsAlterNote       $FF
	dc.b	nAb5
	smpsPSGAlterVol     $01
	smpsAlterNote       $FF
	dc.b	nAb5
	smpsPSGAlterVol     $01
	smpsAlterNote       $FF
	dc.b	nAb5, $02
	smpsPSGAlterVol     $01
	smpsAlterNote       $FF
	dc.b	nAb5, $03
	smpsPSGAlterVol     $01
	smpsAlterNote       $FF
	dc.b	nAb5, $01
	smpsPSGAlterVol     $01
	smpsAlterNote       $FF
	dc.b	nAb5
	smpsPSGAlterVol     $FA
	smpsAlterNote       $04
	dc.b	nMaxPSG
	smpsPSGAlterVol     $01
	smpsAlterNote       $04
	dc.b	nMaxPSG
	smpsPSGAlterVol     $01
	smpsAlterNote       $04
	dc.b	nMaxPSG
	smpsPSGAlterVol     $01
	smpsAlterNote       $04
	dc.b	nMaxPSG, $02
	smpsPSGAlterVol     $01
	smpsAlterNote       $04
	dc.b	nMaxPSG, $03
	smpsPSGAlterVol     $01
	smpsAlterNote       $04
	dc.b	nMaxPSG, $01
	smpsPSGAlterVol     $01
	smpsAlterNote       $04
	dc.b	nMaxPSG
	smpsPSGAlterVol     $FB
	smpsAlterNote       $FF
	dc.b	nAb5
	smpsPSGAlterVol     $02
	smpsAlterNote       $FF
	dc.b	nAb5
	smpsPSGAlterVol     $04
	smpsAlterNote       $FF
	dc.b	nAb5
	smpsPSGAlterVol     $03
	smpsAlterNote       $FF
	dc.b	nAb5
	smpsPSGAlterVol     $01
	smpsAlterNote       $FF
	dc.b	nAb5, nRst, $05
	smpsPSGAlterVol     $F6
	smpsAlterNote       $04
	dc.b	nMaxPSG, $01
	smpsPSGAlterVol     $02
	smpsAlterNote       $04
	dc.b	nMaxPSG
	smpsPSGAlterVol     $04
	smpsAlterNote       $04
	dc.b	nMaxPSG
	smpsPSGAlterVol     $03
	smpsAlterNote       $04
	dc.b	nMaxPSG
	smpsPSGAlterVol     $01
	smpsAlterNote       $04
	dc.b	nMaxPSG, nRst, $05
	smpsPSGAlterVol     $F5
	smpsAlterNote       $FF
	dc.b	nAb5, $01
	smpsPSGAlterVol     $01
	smpsAlterNote       $FF
	dc.b	nAb5
	smpsPSGAlterVol     $01
	smpsAlterNote       $FF
	dc.b	nAb5
	smpsPSGAlterVol     $01
	smpsAlterNote       $FF
	dc.b	nAb5, $02
	smpsPSGAlterVol     $01
	smpsAlterNote       $FF
	dc.b	nAb5, $03
	smpsPSGAlterVol     $01
	smpsAlterNote       $FF
	dc.b	nAb5, $01
	smpsPSGAlterVol     $01
	smpsAlterNote       $FF
	dc.b	nAb5
	smpsPSGAlterVol     $FA
	smpsAlterNote       $04
	dc.b	nMaxPSG
	smpsPSGAlterVol     $01
	smpsAlterNote       $04
	dc.b	nMaxPSG
	smpsPSGAlterVol     $01
	smpsAlterNote       $04
	dc.b	nMaxPSG
	smpsPSGAlterVol     $01
	smpsAlterNote       $04
	dc.b	nMaxPSG, $02
	smpsPSGAlterVol     $01
	smpsAlterNote       $04
	dc.b	nMaxPSG, $03
	smpsPSGAlterVol     $01
	smpsAlterNote       $04
	dc.b	nMaxPSG, $01
	smpsPSGAlterVol     $01
	smpsAlterNote       $04
	dc.b	nMaxPSG
	smpsPSGAlterVol     $FB
	smpsAlterNote       $FF
	dc.b	nAb5
	smpsPSGAlterVol     $02
	smpsAlterNote       $FF
	dc.b	nAb5
	smpsPSGAlterVol     $04
	smpsAlterNote       $FF
	dc.b	nAb5
	smpsPSGAlterVol     $03
	smpsAlterNote       $FF
	dc.b	nAb5
	smpsPSGAlterVol     $01
	smpsAlterNote       $FF
	dc.b	nAb5, nRst, $05
	smpsPSGAlterVol     $F6
	smpsAlterNote       $04
	dc.b	nMaxPSG, $01
	smpsPSGAlterVol     $02
	smpsAlterNote       $04
	dc.b	nMaxPSG
	smpsPSGAlterVol     $04
	smpsAlterNote       $04
	dc.b	nMaxPSG
	smpsPSGAlterVol     $03
	smpsAlterNote       $04
	dc.b	nMaxPSG
	smpsPSGAlterVol     $01
	smpsAlterNote       $04
	dc.b	nMaxPSG, nRst, $05
	smpsPSGAlterVol     $F5
	smpsAlterNote       $FF
	dc.b	nAb5, $01
	smpsPSGAlterVol     $01
	smpsAlterNote       $FF
	dc.b	nAb5
	smpsPSGAlterVol     $01
	smpsAlterNote       $FF
	dc.b	nAb5
	smpsPSGAlterVol     $01
	smpsAlterNote       $FF
	dc.b	nAb5, $02
	smpsPSGAlterVol     $01
	smpsAlterNote       $FF
	dc.b	nAb5, $03
	smpsPSGAlterVol     $01
	smpsAlterNote       $FF
	dc.b	nAb5, $01
	smpsPSGAlterVol     $01
	smpsAlterNote       $FF
	dc.b	nAb5
	smpsPSGAlterVol     $FA
	smpsAlterNote       $04
	dc.b	nMaxPSG
	smpsPSGAlterVol     $01
	smpsAlterNote       $04
	dc.b	nMaxPSG
	smpsPSGAlterVol     $01
	smpsAlterNote       $04
	dc.b	nMaxPSG
	smpsPSGAlterVol     $01
	smpsAlterNote       $04
	dc.b	nMaxPSG, $02
	smpsPSGAlterVol     $01
	smpsAlterNote       $04
	dc.b	nMaxPSG, $03
	smpsPSGAlterVol     $01
	smpsAlterNote       $04
	dc.b	nMaxPSG, $01
	smpsPSGAlterVol     $01
	smpsAlterNote       $04
	dc.b	nMaxPSG
	smpsPSGAlterVol     $FB
	smpsAlterNote       $FF
	dc.b	nAb5
	smpsPSGAlterVol     $02
	smpsAlterNote       $FF
	dc.b	nAb5
	smpsPSGAlterVol     $04
	smpsAlterNote       $FF
	dc.b	nAb5
	smpsPSGAlterVol     $03
	smpsAlterNote       $FF
	dc.b	nAb5
	smpsPSGAlterVol     $01
	smpsAlterNote       $FF
	dc.b	nAb5, nRst, $05
	smpsPSGAlterVol     $F6
	smpsAlterNote       $04
	dc.b	nMaxPSG, $01
	smpsPSGAlterVol     $02
	smpsAlterNote       $04
	dc.b	nMaxPSG
	smpsPSGAlterVol     $04
	smpsAlterNote       $04
	dc.b	nMaxPSG
	smpsPSGAlterVol     $03
	smpsAlterNote       $04
	dc.b	nMaxPSG
	smpsPSGAlterVol     $01
	smpsAlterNote       $04
	dc.b	nMaxPSG, nRst, $05
	smpsPSGAlterVol     $F5
	smpsAlterNote       $FF
	dc.b	nAb5, $01
	smpsPSGAlterVol     $01
	smpsAlterNote       $FF
	dc.b	nAb5
	smpsPSGAlterVol     $01
	smpsAlterNote       $FF
	dc.b	nAb5
	smpsPSGAlterVol     $01
	smpsAlterNote       $FF
	dc.b	nAb5, $02
	smpsPSGAlterVol     $01
	smpsAlterNote       $FF
	dc.b	nAb5, $03
	smpsPSGAlterVol     $01
	smpsAlterNote       $FF
	dc.b	nAb5, $01
	smpsPSGAlterVol     $01
	smpsAlterNote       $FF
	dc.b	nAb5
	smpsPSGAlterVol     $FA
	smpsAlterNote       $04
	dc.b	nMaxPSG
	smpsPSGAlterVol     $01
	smpsAlterNote       $04
	dc.b	nMaxPSG
	smpsPSGAlterVol     $01
	smpsAlterNote       $04
	dc.b	nMaxPSG
	smpsPSGAlterVol     $01
	smpsAlterNote       $04
	dc.b	nMaxPSG, $02
	smpsPSGAlterVol     $01
	smpsAlterNote       $04
	dc.b	nMaxPSG, $03
	smpsPSGAlterVol     $01
	smpsAlterNote       $04
	dc.b	nMaxPSG, $01
	smpsPSGAlterVol     $01
	smpsAlterNote       $04
	dc.b	nMaxPSG
	smpsPSGAlterVol     $FB
	smpsAlterNote       $FF
	dc.b	nAb5
	smpsPSGAlterVol     $02
	smpsAlterNote       $FF
	dc.b	nAb5
	smpsPSGAlterVol     $04
	smpsAlterNote       $FF
	dc.b	nAb5
	smpsPSGAlterVol     $03
	smpsAlterNote       $FF
	dc.b	nAb5
	smpsPSGAlterVol     $01
	smpsAlterNote       $FF
	dc.b	nAb5, nRst, $05
	smpsPSGAlterVol     $F6
	smpsAlterNote       $04
	dc.b	nMaxPSG, $01
	smpsPSGAlterVol     $02
	smpsAlterNote       $04
	dc.b	nMaxPSG
	smpsPSGAlterVol     $04
	smpsAlterNote       $04
	dc.b	nMaxPSG
	smpsPSGAlterVol     $03
	smpsAlterNote       $04
	dc.b	nMaxPSG
	smpsPSGAlterVol     $01
	smpsAlterNote       $04
	dc.b	nMaxPSG, nRst, $05
	smpsPSGAlterVol     $F5
	smpsAlterNote       $FF
	dc.b	nAb5, $01
	smpsPSGAlterVol     $01
	smpsAlterNote       $FF
	dc.b	nAb5
	smpsPSGAlterVol     $01
	smpsAlterNote       $FF
	dc.b	nAb5
	smpsPSGAlterVol     $01
	smpsAlterNote       $FF
	dc.b	nAb5, $02
	smpsPSGAlterVol     $01
	smpsAlterNote       $FF
	dc.b	nAb5, $03
	smpsPSGAlterVol     $01
	smpsAlterNote       $FF
	dc.b	nAb5, $01
	smpsPSGAlterVol     $01
	smpsAlterNote       $FF
	dc.b	nAb5
	smpsPSGAlterVol     $FA
	smpsAlterNote       $04
	dc.b	nMaxPSG
	smpsPSGAlterVol     $01
	smpsAlterNote       $04
	dc.b	nMaxPSG
	smpsPSGAlterVol     $01
	smpsAlterNote       $04
	dc.b	nMaxPSG
	smpsPSGAlterVol     $01
	smpsAlterNote       $04
	dc.b	nMaxPSG, $02
	smpsPSGAlterVol     $01
	smpsAlterNote       $04
	dc.b	nMaxPSG, $03
	smpsPSGAlterVol     $01
	smpsAlterNote       $04
	dc.b	nMaxPSG, $01
	smpsPSGAlterVol     $01
	smpsAlterNote       $04
	dc.b	nMaxPSG
	smpsPSGAlterVol     $FB
	smpsAlterNote       $FF
	dc.b	nAb5
	smpsPSGAlterVol     $02
	smpsAlterNote       $FF
	dc.b	nAb5
	smpsPSGAlterVol     $04
	smpsAlterNote       $FF
	dc.b	nAb5
	smpsPSGAlterVol     $03
	smpsAlterNote       $FF
	dc.b	nAb5
	smpsPSGAlterVol     $01
	smpsAlterNote       $FF
	dc.b	nAb5, nRst, $05
	smpsPSGAlterVol     $F6
	smpsAlterNote       $04
	dc.b	nMaxPSG, $01
	smpsPSGAlterVol     $02
	smpsAlterNote       $04
	dc.b	nMaxPSG
	smpsPSGAlterVol     $04
	smpsAlterNote       $04
	dc.b	nMaxPSG
	smpsPSGAlterVol     $03
	smpsAlterNote       $04
	dc.b	nMaxPSG
	smpsPSGAlterVol     $01
	smpsAlterNote       $04
	dc.b	nMaxPSG, nRst, $05
	smpsPSGAlterVol     $F5
	smpsAlterNote       $FF
	dc.b	nAb5, $01
	smpsPSGAlterVol     $01
	smpsAlterNote       $FF
	dc.b	nAb5
	smpsPSGAlterVol     $01
	smpsAlterNote       $FF
	dc.b	nAb5
	smpsPSGAlterVol     $01
	smpsAlterNote       $FF
	dc.b	nAb5, $02
	smpsPSGAlterVol     $01
	smpsAlterNote       $FF
	dc.b	nAb5, $03
	smpsPSGAlterVol     $01
	smpsAlterNote       $FF
	dc.b	nAb5, $01
	smpsPSGAlterVol     $01
	smpsAlterNote       $FF
	dc.b	nAb5
	smpsPSGAlterVol     $FA
	smpsAlterNote       $04
	dc.b	nMaxPSG
	smpsPSGAlterVol     $01
	smpsAlterNote       $04
	dc.b	nMaxPSG
	smpsPSGAlterVol     $01
	smpsAlterNote       $04
	dc.b	nMaxPSG
	smpsPSGAlterVol     $01
	smpsAlterNote       $04
	dc.b	nMaxPSG, $02
	smpsPSGAlterVol     $01
	smpsAlterNote       $04
	dc.b	nMaxPSG, $03
	smpsPSGAlterVol     $01
	smpsAlterNote       $04
	dc.b	nMaxPSG, $01
	smpsPSGAlterVol     $01
	smpsAlterNote       $04
	dc.b	nMaxPSG
	smpsPSGAlterVol     $FB
	smpsAlterNote       $FF
	dc.b	nAb5
	smpsPSGAlterVol     $02
	smpsAlterNote       $FF
	dc.b	nAb5
	smpsPSGAlterVol     $04
	smpsAlterNote       $FF
	dc.b	nAb5
	smpsPSGAlterVol     $03
	smpsAlterNote       $FF
	dc.b	nAb5
	smpsPSGAlterVol     $01
	smpsAlterNote       $FF
	dc.b	nAb5, nRst, $05
	smpsPSGAlterVol     $F6
	smpsAlterNote       $04
	dc.b	nMaxPSG, $01
	smpsPSGAlterVol     $02
	smpsAlterNote       $04
	dc.b	nMaxPSG
	smpsPSGAlterVol     $04
	smpsAlterNote       $04
	dc.b	nMaxPSG
	smpsPSGAlterVol     $03
	smpsAlterNote       $04
	dc.b	nMaxPSG
	smpsPSGAlterVol     $01
	smpsAlterNote       $04
	dc.b	nMaxPSG, nRst, $05
	smpsPSGAlterVol     $F5
	smpsAlterNote       $FF
	dc.b	nAb5, $01
	smpsPSGAlterVol     $01
	smpsAlterNote       $FF
	dc.b	nAb5
	smpsPSGAlterVol     $01
	smpsAlterNote       $FF
	dc.b	nAb5
	smpsPSGAlterVol     $01
	smpsAlterNote       $FF
	dc.b	nAb5, $02
	smpsPSGAlterVol     $01
	smpsAlterNote       $FF
	dc.b	nAb5, $03
	smpsPSGAlterVol     $01
	smpsAlterNote       $FF
	dc.b	nAb5, $01
	smpsPSGAlterVol     $01
	smpsAlterNote       $FF
	dc.b	nAb5
	smpsPSGAlterVol     $FA
	smpsAlterNote       $04
	dc.b	nMaxPSG
	smpsPSGAlterVol     $01
	smpsAlterNote       $04
	dc.b	nMaxPSG
	smpsPSGAlterVol     $01
	smpsAlterNote       $04
	dc.b	nMaxPSG
	smpsPSGAlterVol     $01
	smpsAlterNote       $04
	dc.b	nMaxPSG, $02
	smpsPSGAlterVol     $01
	smpsAlterNote       $04
	dc.b	nMaxPSG, $03
	smpsPSGAlterVol     $01
	smpsAlterNote       $04
	dc.b	nMaxPSG, $01
	smpsPSGAlterVol     $01
	smpsAlterNote       $04
	dc.b	nMaxPSG
	smpsPSGAlterVol     $FB
	smpsAlterNote       $FF
	dc.b	nAb5
	smpsPSGAlterVol     $02
	smpsAlterNote       $FF
	dc.b	nAb5
	smpsPSGAlterVol     $04
	smpsAlterNote       $FF
	dc.b	nAb5
	smpsPSGAlterVol     $03
	smpsAlterNote       $FF
	dc.b	nAb5
	smpsPSGAlterVol     $01
	smpsAlterNote       $FF
	dc.b	nAb5, nRst, $05
	smpsPSGAlterVol     $F6
	smpsAlterNote       $04
	dc.b	nMaxPSG, $01
	smpsPSGAlterVol     $02
	smpsAlterNote       $04
	dc.b	nMaxPSG
	smpsPSGAlterVol     $04
	smpsAlterNote       $04
	dc.b	nMaxPSG
	smpsPSGAlterVol     $03
	smpsAlterNote       $04
	dc.b	nMaxPSG
	smpsPSGAlterVol     $01
	smpsAlterNote       $04
	dc.b	nMaxPSG, nRst, $05
	smpsPSGAlterVol     $F5
	smpsAlterNote       $FF
	dc.b	nAb5, $01
	smpsPSGAlterVol     $01
	smpsAlterNote       $FF
	dc.b	nAb5
	smpsPSGAlterVol     $01
	smpsAlterNote       $FF
	dc.b	nAb5
	smpsPSGAlterVol     $01
	smpsAlterNote       $FF
	dc.b	nAb5, $02
	smpsPSGAlterVol     $01
	smpsAlterNote       $FF
	dc.b	nAb5, $03
	smpsPSGAlterVol     $01
	smpsAlterNote       $FF
	dc.b	nAb5, $01
	smpsPSGAlterVol     $01
	smpsAlterNote       $FF
	dc.b	nAb5
	smpsPSGAlterVol     $FA
	smpsAlterNote       $04
	dc.b	nMaxPSG
	smpsPSGAlterVol     $01
	smpsAlterNote       $04
	dc.b	nMaxPSG
	smpsPSGAlterVol     $01
	smpsAlterNote       $04
	dc.b	nMaxPSG
	smpsPSGAlterVol     $01
	smpsAlterNote       $04
	dc.b	nMaxPSG, $02
	smpsPSGAlterVol     $01
	smpsAlterNote       $04
	dc.b	nMaxPSG, $03
	smpsPSGAlterVol     $01
	smpsAlterNote       $04
	dc.b	nMaxPSG, $01
	smpsPSGAlterVol     $01
	smpsAlterNote       $04
	dc.b	nMaxPSG
	smpsPSGAlterVol     $FB
	smpsAlterNote       $FF
	dc.b	nAb5
	smpsPSGAlterVol     $02
	smpsAlterNote       $FF
	dc.b	nAb5
	smpsPSGAlterVol     $04
	smpsAlterNote       $FF
	dc.b	nAb5
	smpsPSGAlterVol     $03
	smpsAlterNote       $FF
	dc.b	nAb5
	smpsPSGAlterVol     $01
	smpsAlterNote       $FF
	dc.b	nAb5, nRst, $05
	smpsPSGAlterVol     $F6
	smpsAlterNote       $04
	dc.b	nMaxPSG, $01
	smpsPSGAlterVol     $02
	smpsAlterNote       $04
	dc.b	nMaxPSG
	smpsPSGAlterVol     $04
	smpsAlterNote       $04
	dc.b	nMaxPSG
	smpsPSGAlterVol     $03
	smpsAlterNote       $04
	dc.b	nMaxPSG
	smpsPSGAlterVol     $01
	smpsAlterNote       $04
	dc.b	nMaxPSG, nRst, $05
	smpsPSGAlterVol     $F5
	smpsAlterNote       $FF
	dc.b	nAb5, $01
	smpsPSGAlterVol     $01
	smpsAlterNote       $FF
	dc.b	nAb5
	smpsPSGAlterVol     $01
	smpsAlterNote       $FF
	dc.b	nAb5
	smpsPSGAlterVol     $01
	smpsAlterNote       $FF
	dc.b	nAb5, $02
	smpsPSGAlterVol     $01
	smpsAlterNote       $FF
	dc.b	nAb5, $03
	smpsPSGAlterVol     $01
	smpsAlterNote       $FF
	dc.b	nAb5, $01
	smpsPSGAlterVol     $01
	smpsAlterNote       $FF
	dc.b	nAb5
	smpsPSGAlterVol     $FA
	smpsAlterNote       $04
	dc.b	nMaxPSG
	smpsPSGAlterVol     $01
	smpsAlterNote       $04
	dc.b	nMaxPSG
	smpsPSGAlterVol     $01
	smpsAlterNote       $04
	dc.b	nMaxPSG
	smpsPSGAlterVol     $01
	smpsAlterNote       $04
	dc.b	nMaxPSG, $02
	smpsPSGAlterVol     $01
	smpsAlterNote       $04
	dc.b	nMaxPSG, $03
	smpsPSGAlterVol     $01
	smpsAlterNote       $04
	dc.b	nMaxPSG, $01
	smpsPSGAlterVol     $01
	smpsAlterNote       $04
	dc.b	nMaxPSG
	smpsPSGAlterVol     $FB
	smpsAlterNote       $FF
	dc.b	nAb5
	smpsPSGAlterVol     $02
	smpsAlterNote       $FF
	dc.b	nAb5
	smpsPSGAlterVol     $04
	smpsAlterNote       $FF
	dc.b	nAb5
	smpsPSGAlterVol     $03
	smpsAlterNote       $FF
	dc.b	nAb5
	smpsPSGAlterVol     $01
	smpsAlterNote       $FF
	dc.b	nAb5, nRst, $05
	smpsPSGAlterVol     $F6
	smpsAlterNote       $04
	dc.b	nMaxPSG, $01
	smpsPSGAlterVol     $02
	smpsAlterNote       $04
	dc.b	nMaxPSG
	smpsPSGAlterVol     $04
	smpsAlterNote       $04
	dc.b	nMaxPSG
	smpsPSGAlterVol     $03
	smpsAlterNote       $04
	dc.b	nMaxPSG
	smpsPSGAlterVol     $01
	smpsAlterNote       $04
	dc.b	nMaxPSG, nRst, $05
	smpsPSGAlterVol     $F5
	smpsAlterNote       $FF
	dc.b	nAb5, $01
	smpsPSGAlterVol     $01
	smpsAlterNote       $FF
	dc.b	nAb5
	smpsPSGAlterVol     $01
	smpsAlterNote       $FF
	dc.b	nAb5
	smpsPSGAlterVol     $01
	smpsAlterNote       $FF
	dc.b	nAb5, $02
	smpsPSGAlterVol     $01
	smpsAlterNote       $FF
	dc.b	nAb5, $03
	smpsPSGAlterVol     $01
	smpsAlterNote       $FF
	dc.b	nAb5, $01
	smpsPSGAlterVol     $01
	smpsAlterNote       $FF
	dc.b	nAb5
	smpsPSGAlterVol     $FA
	smpsAlterNote       $04
	dc.b	nMaxPSG
	smpsPSGAlterVol     $01
	smpsAlterNote       $04
	dc.b	nMaxPSG
	smpsPSGAlterVol     $01
	smpsAlterNote       $04
	dc.b	nMaxPSG
	smpsPSGAlterVol     $01
	smpsAlterNote       $04
	dc.b	nMaxPSG, $02
	smpsPSGAlterVol     $01
	smpsAlterNote       $04
	dc.b	nMaxPSG, $03
	smpsPSGAlterVol     $01
	smpsAlterNote       $04
	dc.b	nMaxPSG, $01
	smpsPSGAlterVol     $01
	smpsAlterNote       $04
	dc.b	nMaxPSG
	smpsPSGAlterVol     $FB
	smpsAlterNote       $FF
	dc.b	nAb5
	smpsPSGAlterVol     $02
	smpsAlterNote       $FF
	dc.b	nAb5
	smpsPSGAlterVol     $04
	smpsAlterNote       $FF
	dc.b	nAb5
	smpsPSGAlterVol     $03
	smpsAlterNote       $FF
	dc.b	nAb5
	smpsPSGAlterVol     $01
	smpsAlterNote       $FF
	dc.b	nAb5, nRst, $05
	smpsPSGAlterVol     $F6
	smpsAlterNote       $04
	dc.b	nMaxPSG, $01
	smpsPSGAlterVol     $02
	smpsAlterNote       $04
	dc.b	nMaxPSG
	smpsPSGAlterVol     $04
	smpsAlterNote       $04
	dc.b	nMaxPSG
	smpsPSGAlterVol     $03
	smpsAlterNote       $04
	dc.b	nMaxPSG
	smpsPSGAlterVol     $01
	smpsAlterNote       $04
	dc.b	nMaxPSG, nRst, $05
	smpsPSGAlterVol     $F5
	smpsAlterNote       $FF
	dc.b	nAb5, $01
	smpsPSGAlterVol     $01
	smpsAlterNote       $FF
	dc.b	nAb5
	smpsPSGAlterVol     $01
	smpsAlterNote       $FF
	dc.b	nAb5
	smpsPSGAlterVol     $01
	smpsAlterNote       $FF
	dc.b	nAb5, $02
	smpsPSGAlterVol     $01
	smpsAlterNote       $FF
	dc.b	nAb5, $03
	smpsPSGAlterVol     $01
	smpsAlterNote       $FF
	dc.b	nAb5, $01
	smpsPSGAlterVol     $01
	smpsAlterNote       $FF
	dc.b	nAb5
	smpsPSGAlterVol     $FA
	smpsAlterNote       $04
	dc.b	nMaxPSG
	smpsPSGAlterVol     $01
	smpsAlterNote       $04
	dc.b	nMaxPSG
	smpsPSGAlterVol     $01
	smpsAlterNote       $04
	dc.b	nMaxPSG
	smpsPSGAlterVol     $01
	smpsAlterNote       $04
	dc.b	nMaxPSG, $02
	smpsPSGAlterVol     $01
	smpsAlterNote       $04
	dc.b	nMaxPSG, $03
	smpsPSGAlterVol     $01
	smpsAlterNote       $04
	dc.b	nMaxPSG, $01
	smpsPSGAlterVol     $01
	smpsAlterNote       $04
	dc.b	nMaxPSG
	smpsPSGAlterVol     $FB
	smpsAlterNote       $FF
	dc.b	nAb5
	smpsPSGAlterVol     $02
	smpsAlterNote       $FF
	dc.b	nAb5
	smpsPSGAlterVol     $04
	smpsAlterNote       $FF
	dc.b	nAb5
	smpsPSGAlterVol     $03
	smpsAlterNote       $FF
	dc.b	nAb5
	smpsPSGAlterVol     $01
	smpsAlterNote       $FF
	dc.b	nAb5, nRst, $05
	smpsPSGAlterVol     $F6
	smpsAlterNote       $FF
	dc.b	nAb5, $01
	smpsPSGAlterVol     $02
	smpsAlterNote       $FF
	dc.b	nAb5
	smpsPSGAlterVol     $04
	smpsAlterNote       $FF
	dc.b	nAb5
	smpsPSGAlterVol     $03
	smpsAlterNote       $FF
	dc.b	nAb5
	smpsPSGAlterVol     $01
	smpsAlterNote       $FF
	dc.b	nAb5, nRst, $05
	smpsPSGAlterVol     $F6
	smpsAlterNote       $04
	dc.b	nMaxPSG, $01
	smpsPSGAlterVol     $02
	smpsAlterNote       $04
	dc.b	nMaxPSG
	smpsPSGAlterVol     $04
	smpsAlterNote       $04
	dc.b	nMaxPSG
	smpsPSGAlterVol     $03
	smpsAlterNote       $04
	dc.b	nMaxPSG
	smpsPSGAlterVol     $01
	smpsAlterNote       $04
	dc.b	nMaxPSG, nRst, $05
	smpsPSGAlterVol     $F5
	smpsAlterNote       $FF
	dc.b	nAb5, $01
	smpsPSGAlterVol     $01
	smpsAlterNote       $FF
	dc.b	nAb5
	smpsPSGAlterVol     $01
	smpsAlterNote       $FF
	dc.b	nAb5
	smpsPSGAlterVol     $01
	smpsAlterNote       $FF
	dc.b	nAb5, $02
	smpsPSGAlterVol     $01
	smpsAlterNote       $FF
	dc.b	nAb5, $03
	smpsPSGAlterVol     $01
	smpsAlterNote       $FF
	dc.b	nAb5, $01
	smpsPSGAlterVol     $01
	smpsAlterNote       $FF
	dc.b	nAb5
	smpsPSGAlterVol     $FB
	smpsAlterNote       $04
	dc.b	nMaxPSG
	smpsPSGAlterVol     $02
	smpsAlterNote       $04
	dc.b	nMaxPSG
	smpsPSGAlterVol     $04
	smpsAlterNote       $04
	dc.b	nMaxPSG
	smpsPSGAlterVol     $03
	smpsAlterNote       $04
	dc.b	nMaxPSG
	smpsPSGAlterVol     $01
	smpsAlterNote       $04
	dc.b	nMaxPSG
	smpsPSGAlterVol     $F6
	smpsAlterNote       $04
	dc.b	nMaxPSG
	smpsPSGAlterVol     $02
	smpsAlterNote       $04
	dc.b	nMaxPSG
	smpsPSGAlterVol     $04
	smpsAlterNote       $04
	dc.b	nMaxPSG
	smpsPSGAlterVol     $03
	smpsAlterNote       $04
	dc.b	nMaxPSG
	smpsPSGAlterVol     $01
	smpsAlterNote       $04
	dc.b	nMaxPSG
	smpsPSGAlterVol     $F6
	smpsAlterNote       $04
	dc.b	nMaxPSG
	smpsPSGAlterVol     $02
	smpsAlterNote       $04
	dc.b	nMaxPSG
	smpsPSGAlterVol     $04
	smpsAlterNote       $04
	dc.b	nMaxPSG
	smpsPSGAlterVol     $03
	smpsAlterNote       $04
	dc.b	nMaxPSG
	smpsPSGAlterVol     $01
	smpsAlterNote       $04
	dc.b	nMaxPSG
	smpsPSGAlterVol     $F6
	smpsAlterNote       $04
	dc.b	nMaxPSG
	smpsPSGAlterVol     $02
	smpsAlterNote       $04
	dc.b	nMaxPSG
	smpsPSGAlterVol     $04
	smpsAlterNote       $04
	dc.b	nMaxPSG
	smpsPSGAlterVol     $03
	smpsAlterNote       $04
	dc.b	nMaxPSG
	smpsPSGAlterVol     $01
	smpsAlterNote       $04
	dc.b	nMaxPSG
	smpsPSGAlterVol     $F6
	smpsAlterNote       $04
	dc.b	nMaxPSG
	smpsPSGAlterVol     $02
	smpsAlterNote       $04
	dc.b	nMaxPSG
	smpsPSGAlterVol     $04
	smpsAlterNote       $04
	dc.b	nMaxPSG
	smpsPSGAlterVol     $03
	smpsAlterNote       $04
	dc.b	nMaxPSG
	smpsPSGAlterVol     $01
	smpsAlterNote       $04
	dc.b	nMaxPSG, nRst, $05
	smpsPSGAlterVol     $F6
	smpsAlterNote       $FF
	dc.b	nAb5, $01
	smpsPSGAlterVol     $02
	smpsAlterNote       $FF
	dc.b	nAb5
	smpsPSGAlterVol     $04
	smpsAlterNote       $FF
	dc.b	nAb5
	smpsPSGAlterVol     $03
	smpsAlterNote       $FF
	dc.b	nAb5
	smpsPSGAlterVol     $01
	smpsAlterNote       $FF
	dc.b	nAb5, nRst, $05
	smpsPSGAlterVol     $F5
	smpsAlterNote       $04
	dc.b	nMaxPSG, $01
	smpsPSGAlterVol     $01
	smpsAlterNote       $04
	dc.b	nMaxPSG
	smpsPSGAlterVol     $01
	smpsAlterNote       $04
	dc.b	nMaxPSG
	smpsPSGAlterVol     $01
	smpsAlterNote       $04
	dc.b	nMaxPSG, $02
	smpsPSGAlterVol     $01
	smpsAlterNote       $04
	dc.b	nMaxPSG, $03
	smpsPSGAlterVol     $01
	smpsAlterNote       $04
	dc.b	nMaxPSG, $01
	smpsPSGAlterVol     $01
	smpsAlterNote       $04
	dc.b	nMaxPSG
	smpsPSGAlterVol     $FB
	smpsAlterNote       $04
	dc.b	nMaxPSG
	smpsPSGAlterVol     $02
	smpsAlterNote       $04
	dc.b	nMaxPSG
	smpsPSGAlterVol     $04
	smpsAlterNote       $04
	dc.b	nMaxPSG
	smpsPSGAlterVol     $03
	smpsAlterNote       $04
	dc.b	nMaxPSG
	smpsPSGAlterVol     $01
	smpsAlterNote       $04
	dc.b	nMaxPSG, nRst, $05
	smpsPSGAlterVol     $F6
	smpsAlterNote       $04
	dc.b	nMaxPSG, $01
	smpsPSGAlterVol     $02
	smpsAlterNote       $04
	dc.b	nMaxPSG
	smpsPSGAlterVol     $04
	smpsAlterNote       $04
	dc.b	nMaxPSG
	smpsPSGAlterVol     $03
	smpsAlterNote       $04
	dc.b	nMaxPSG
	smpsPSGAlterVol     $01
	smpsAlterNote       $04
	dc.b	nMaxPSG
	smpsPSGAlterVol     $F6
	smpsAlterNote       $04
	dc.b	nMaxPSG
	smpsPSGAlterVol     $02
	smpsAlterNote       $04
	dc.b	nMaxPSG
	smpsPSGAlterVol     $04
	smpsAlterNote       $04
	dc.b	nMaxPSG
	smpsPSGAlterVol     $03
	smpsAlterNote       $04
	dc.b	nMaxPSG
	smpsPSGAlterVol     $01
	smpsAlterNote       $04
	dc.b	nMaxPSG
	smpsPSGAlterVol     $F6
	smpsAlterNote       $04
	dc.b	nMaxPSG
	smpsPSGAlterVol     $02
	smpsAlterNote       $04
	dc.b	nMaxPSG
	smpsPSGAlterVol     $04
	smpsAlterNote       $04
	dc.b	nMaxPSG
	smpsPSGAlterVol     $03
	smpsAlterNote       $04
	dc.b	nMaxPSG
	smpsPSGAlterVol     $01
	smpsAlterNote       $04
	dc.b	nMaxPSG, nRst, $05
	smpsPSGAlterVol     $F6
	smpsAlterNote       $04
	dc.b	nMaxPSG, $01
	smpsPSGAlterVol     $02
	smpsAlterNote       $04
	dc.b	nMaxPSG
	smpsPSGAlterVol     $04
	smpsAlterNote       $04
	dc.b	nMaxPSG
	smpsPSGAlterVol     $03
	smpsAlterNote       $04
	dc.b	nMaxPSG
	smpsPSGAlterVol     $01
	smpsAlterNote       $04
	dc.b	nMaxPSG, nRst, $05
	smpsPSGAlterVol     $F5
	smpsAlterNote       $04
	dc.b	nMaxPSG, $01
	smpsPSGAlterVol     $01
	smpsAlterNote       $04
	dc.b	nMaxPSG
	smpsPSGAlterVol     $01
	smpsAlterNote       $04
	dc.b	nMaxPSG
	smpsPSGAlterVol     $01
	smpsAlterNote       $04
	dc.b	nMaxPSG, $02
	smpsPSGAlterVol     $01
	smpsAlterNote       $04
	dc.b	nMaxPSG, $03
	smpsPSGAlterVol     $01
	smpsAlterNote       $04
	dc.b	nMaxPSG, $01
	smpsPSGAlterVol     $01
	smpsAlterNote       $04
	dc.b	nMaxPSG
	smpsPSGAlterVol     $FB
	smpsAlterNote       $FF
	dc.b	nAb5
	smpsPSGAlterVol     $02
	smpsAlterNote       $FF
	dc.b	nAb5
	smpsPSGAlterVol     $04
	smpsAlterNote       $FF
	dc.b	nAb5
	smpsPSGAlterVol     $03
	smpsAlterNote       $FF
	dc.b	nAb5
	smpsPSGAlterVol     $01
	smpsAlterNote       $FF
	dc.b	nAb5
	smpsPSGAlterVol     $F6
	smpsAlterNote       $04
	dc.b	nMaxPSG
	smpsPSGAlterVol     $02
	smpsAlterNote       $04
	dc.b	nMaxPSG
	smpsPSGAlterVol     $04
	smpsAlterNote       $04
	dc.b	nMaxPSG
	smpsPSGAlterVol     $03
	smpsAlterNote       $04
	dc.b	nMaxPSG
	smpsPSGAlterVol     $01
	smpsAlterNote       $04
	dc.b	nMaxPSG
	smpsPSGAlterVol     $F6
	smpsAlterNote       $04
	dc.b	nMaxPSG
	smpsPSGAlterVol     $02
	smpsAlterNote       $04
	dc.b	nMaxPSG
	smpsPSGAlterVol     $04
	smpsAlterNote       $04
	dc.b	nMaxPSG
	smpsPSGAlterVol     $03
	smpsAlterNote       $04
	dc.b	nMaxPSG
	smpsPSGAlterVol     $01
	smpsAlterNote       $04
	dc.b	nMaxPSG
	smpsPSGAlterVol     $F6
	smpsAlterNote       $04
	dc.b	nMaxPSG
	smpsPSGAlterVol     $02
	smpsAlterNote       $04
	dc.b	nMaxPSG
	smpsPSGAlterVol     $04
	smpsAlterNote       $04
	dc.b	nMaxPSG
	smpsPSGAlterVol     $03
	smpsAlterNote       $04
	dc.b	nMaxPSG
	smpsPSGAlterVol     $01
	smpsAlterNote       $04
	dc.b	nMaxPSG
	smpsPSGAlterVol     $F5
	smpsAlterNote       $FF
	dc.b	nAb5
	smpsPSGAlterVol     $01
	smpsAlterNote       $FF
	dc.b	nAb5
	smpsPSGAlterVol     $01
	smpsAlterNote       $FF
	dc.b	nAb5
	smpsPSGAlterVol     $01
	smpsAlterNote       $FF
	dc.b	nAb5, $02
	smpsPSGAlterVol     $01
	smpsAlterNote       $FF
	dc.b	nAb5, $03
	smpsPSGAlterVol     $01
	smpsAlterNote       $FF
	dc.b	nAb5, $01
	smpsPSGAlterVol     $01
	smpsAlterNote       $FF
	dc.b	nAb5
	smpsPSGAlterVol     $FB
	smpsAlterNote       $04
	dc.b	nMaxPSG
	smpsPSGAlterVol     $02
	smpsAlterNote       $04
	dc.b	nMaxPSG
	smpsPSGAlterVol     $04
	smpsAlterNote       $04
	dc.b	nMaxPSG
	smpsPSGAlterVol     $03
	smpsAlterNote       $04
	dc.b	nMaxPSG
	smpsPSGAlterVol     $01
	smpsAlterNote       $04
	dc.b	nMaxPSG, nRst, $05
	smpsPSGAlterVol     $F5
	smpsAlterNote       $FF
	dc.b	nAb5, $01
	smpsPSGAlterVol     $01
	smpsAlterNote       $FF
	dc.b	nAb5
	smpsPSGAlterVol     $01
	smpsAlterNote       $FF
	dc.b	nAb5
	smpsPSGAlterVol     $01
	smpsAlterNote       $FF
	dc.b	nAb5, $02
	smpsPSGAlterVol     $01
	smpsAlterNote       $FF
	dc.b	nAb5, $03
	smpsPSGAlterVol     $01
	smpsAlterNote       $FF
	dc.b	nAb5, $01
	smpsPSGAlterVol     $01
	smpsAlterNote       $FF
	dc.b	nAb5
	smpsPSGAlterVol     $FB
	smpsAlterNote       $FF
	dc.b	nAb5
	smpsPSGAlterVol     $02
	smpsAlterNote       $FF
	dc.b	nAb5
	smpsPSGAlterVol     $04
	smpsAlterNote       $FF
	dc.b	nAb5
	smpsPSGAlterVol     $03
	smpsAlterNote       $FF
	dc.b	nAb5
	smpsPSGAlterVol     $01
	smpsAlterNote       $FF
	dc.b	nAb5, nRst, $05
	smpsPSGAlterVol     $F6
	smpsAlterNote       $04
	dc.b	nMaxPSG, $01
	smpsPSGAlterVol     $02
	smpsAlterNote       $04
	dc.b	nMaxPSG
	smpsPSGAlterVol     $04
	smpsAlterNote       $04
	dc.b	nMaxPSG
	smpsPSGAlterVol     $03
	smpsAlterNote       $04
	dc.b	nMaxPSG
	smpsPSGAlterVol     $01
	smpsAlterNote       $04
	dc.b	nMaxPSG, nRst, $05
	smpsPSGAlterVol     $F6
	smpsAlterNote       $04
	dc.b	nMaxPSG, $01
	smpsPSGAlterVol     $02
	smpsAlterNote       $04
	dc.b	nMaxPSG
	smpsPSGAlterVol     $04
	smpsAlterNote       $04
	dc.b	nMaxPSG
	smpsPSGAlterVol     $03
	smpsAlterNote       $04
	dc.b	nMaxPSG
	smpsPSGAlterVol     $01
	smpsAlterNote       $04
	dc.b	nMaxPSG
	smpsPSGAlterVol     $F6
	smpsAlterNote       $04
	dc.b	nMaxPSG
	smpsPSGAlterVol     $02
	smpsAlterNote       $04
	dc.b	nMaxPSG
	smpsPSGAlterVol     $04
	smpsAlterNote       $04
	dc.b	nMaxPSG
	smpsPSGAlterVol     $03
	smpsAlterNote       $04
	dc.b	nMaxPSG
	smpsPSGAlterVol     $01
	smpsAlterNote       $04
	dc.b	nMaxPSG
	smpsPSGAlterVol     $F6
	smpsAlterNote       $04
	dc.b	nMaxPSG
	smpsPSGAlterVol     $02
	smpsAlterNote       $04
	dc.b	nMaxPSG
	smpsPSGAlterVol     $04
	smpsAlterNote       $04
	dc.b	nMaxPSG
	smpsPSGAlterVol     $03
	smpsAlterNote       $04
	dc.b	nMaxPSG
	smpsPSGAlterVol     $01
	smpsAlterNote       $04
	dc.b	nMaxPSG, nRst, $05
	smpsPSGAlterVol     $F6
	smpsAlterNote       $04
	dc.b	nMaxPSG, $01
	smpsPSGAlterVol     $02
	smpsAlterNote       $04
	dc.b	nMaxPSG
	smpsPSGAlterVol     $04
	smpsAlterNote       $04
	dc.b	nMaxPSG
	smpsPSGAlterVol     $03
	smpsAlterNote       $04
	dc.b	nMaxPSG
	smpsPSGAlterVol     $01
	smpsAlterNote       $04
	dc.b	nMaxPSG, nRst, $05
	smpsPSGAlterVol     $F5
	smpsAlterNote       $04
	dc.b	nMaxPSG, $01
	smpsPSGAlterVol     $01
	smpsAlterNote       $04
	dc.b	nMaxPSG
	smpsPSGAlterVol     $01
	smpsAlterNote       $04
	dc.b	nMaxPSG
	smpsPSGAlterVol     $01
	smpsAlterNote       $04
	dc.b	nMaxPSG, $02
	smpsPSGAlterVol     $01
	smpsAlterNote       $04
	dc.b	nMaxPSG, $03
	smpsPSGAlterVol     $01
	smpsAlterNote       $04
	dc.b	nMaxPSG, $01
	smpsPSGAlterVol     $01
	smpsAlterNote       $04
	dc.b	nMaxPSG
	smpsPSGAlterVol     $FB
	smpsAlterNote       $04
	dc.b	nMaxPSG
	smpsPSGAlterVol     $02
	smpsAlterNote       $04
	dc.b	nMaxPSG
	smpsPSGAlterVol     $04
	smpsAlterNote       $04
	dc.b	nMaxPSG
	smpsPSGAlterVol     $03
	smpsAlterNote       $04
	dc.b	nMaxPSG
	smpsPSGAlterVol     $01
	smpsAlterNote       $04
	dc.b	nMaxPSG
	smpsPSGAlterVol     $F6
	smpsAlterNote       $04
	dc.b	nMaxPSG
	smpsPSGAlterVol     $02
	smpsAlterNote       $04
	dc.b	nMaxPSG
	smpsPSGAlterVol     $04
	smpsAlterNote       $04
	dc.b	nMaxPSG
	smpsPSGAlterVol     $03
	smpsAlterNote       $04
	dc.b	nMaxPSG
	smpsPSGAlterVol     $01
	smpsAlterNote       $04
	dc.b	nMaxPSG
	smpsPSGAlterVol     $F6
	smpsAlterNote       $04
	dc.b	nMaxPSG
	smpsPSGAlterVol     $02
	smpsAlterNote       $04
	dc.b	nMaxPSG
	smpsPSGAlterVol     $04
	smpsAlterNote       $04
	dc.b	nMaxPSG
	smpsPSGAlterVol     $03
	smpsAlterNote       $04
	dc.b	nMaxPSG
	smpsPSGAlterVol     $01
	smpsAlterNote       $04
	dc.b	nMaxPSG, nRst, $05
	smpsPSGAlterVol     $F6
	smpsAlterNote       $04
	dc.b	nMaxPSG, $01
	smpsPSGAlterVol     $02
	smpsAlterNote       $04
	dc.b	nMaxPSG
	smpsPSGAlterVol     $04
	smpsAlterNote       $04
	dc.b	nMaxPSG
	smpsPSGAlterVol     $03
	smpsAlterNote       $04
	dc.b	nMaxPSG
	smpsPSGAlterVol     $01
	smpsAlterNote       $04
	dc.b	nMaxPSG, nRst, $05
	smpsPSGAlterVol     $F5
	smpsAlterNote       $FF
	dc.b	nAb5, $01
	smpsPSGAlterVol     $01
	smpsAlterNote       $FF
	dc.b	nAb5
	smpsPSGAlterVol     $01
	smpsAlterNote       $FF
	dc.b	nAb5
	smpsPSGAlterVol     $01
	smpsAlterNote       $FF
	dc.b	nAb5, $02
	smpsPSGAlterVol     $01
	smpsAlterNote       $FF
	dc.b	nAb5, $03
	smpsPSGAlterVol     $01
	smpsAlterNote       $FF
	dc.b	nAb5, $01
	smpsPSGAlterVol     $01
	smpsAlterNote       $FF
	dc.b	nAb5
	smpsPSGAlterVol     $FB
	smpsAlterNote       $04
	dc.b	nMaxPSG
	smpsPSGAlterVol     $02
	smpsAlterNote       $04
	dc.b	nMaxPSG
	smpsPSGAlterVol     $04
	smpsAlterNote       $04
	dc.b	nMaxPSG
	smpsPSGAlterVol     $03
	smpsAlterNote       $04
	dc.b	nMaxPSG
	smpsPSGAlterVol     $01
	smpsAlterNote       $04
	dc.b	nMaxPSG, nRst, $05
	smpsPSGAlterVol     $F6
	smpsAlterNote       $04
	dc.b	nMaxPSG, $01
	smpsPSGAlterVol     $02
	smpsAlterNote       $04
	dc.b	nMaxPSG
	smpsPSGAlterVol     $04
	smpsAlterNote       $04
	dc.b	nMaxPSG
	smpsPSGAlterVol     $03
	smpsAlterNote       $04
	dc.b	nMaxPSG
	smpsPSGAlterVol     $01
	smpsAlterNote       $04
	dc.b	nMaxPSG, nRst, $05
	smpsPSGAlterVol     $F6
	smpsAlterNote       $04
	dc.b	nMaxPSG, $01
	smpsPSGAlterVol     $02
	smpsAlterNote       $04
	dc.b	nMaxPSG
	smpsPSGAlterVol     $04
	smpsAlterNote       $04
	dc.b	nMaxPSG
	smpsPSGAlterVol     $03
	smpsAlterNote       $04
	dc.b	nMaxPSG
	smpsPSGAlterVol     $01
	smpsAlterNote       $04
	dc.b	nMaxPSG, nRst, $05
	smpsPSGAlterVol     $F5
	smpsAlterNote       $FF
	dc.b	nAb5, $01
	smpsPSGAlterVol     $01
	smpsAlterNote       $FF
	dc.b	nAb5
	smpsPSGAlterVol     $01
	smpsAlterNote       $FF
	dc.b	nAb5
	smpsPSGAlterVol     $01
	smpsAlterNote       $FF
	dc.b	nAb5, $02
	smpsPSGAlterVol     $01
	smpsAlterNote       $FF
	dc.b	nAb5, $03
	smpsPSGAlterVol     $01
	smpsAlterNote       $FF
	dc.b	nAb5, $01
	smpsPSGAlterVol     $01
	smpsAlterNote       $FF
	dc.b	nAb5
	smpsPSGAlterVol     $FB
	smpsAlterNote       $04
	dc.b	nMaxPSG
	smpsPSGAlterVol     $02
	smpsAlterNote       $04
	dc.b	nMaxPSG
	smpsPSGAlterVol     $04
	smpsAlterNote       $04
	dc.b	nMaxPSG
	smpsPSGAlterVol     $03
	smpsAlterNote       $04
	dc.b	nMaxPSG
	smpsPSGAlterVol     $01
	smpsAlterNote       $04
	dc.b	nMaxPSG, nRst, $0F
	smpsPSGAlterVol     $F6
	smpsAlterNote       $FF
	dc.b	nAb5, $01
	smpsPSGAlterVol     $02
	smpsAlterNote       $FF
	dc.b	nAb5
	smpsPSGAlterVol     $04
	smpsAlterNote       $FF
	dc.b	nAb5
	smpsPSGAlterVol     $03
	smpsAlterNote       $FF
	dc.b	nAb5
	smpsPSGAlterVol     $01
	smpsAlterNote       $FF
	dc.b	nAb5, nRst, $05
	smpsPSGAlterVol     $F6
	smpsAlterNote       $04
	dc.b	nMaxPSG, $01
	smpsPSGAlterVol     $02
	smpsAlterNote       $04
	dc.b	nMaxPSG
	smpsPSGAlterVol     $04
	smpsAlterNote       $04
	dc.b	nMaxPSG
	smpsPSGAlterVol     $03
	smpsAlterNote       $04
	dc.b	nMaxPSG
	smpsPSGAlterVol     $01
	smpsAlterNote       $04
	dc.b	nMaxPSG
	smpsPSGAlterVol     $F6
	smpsAlterNote       $04
	dc.b	nMaxPSG
	smpsPSGAlterVol     $02
	smpsAlterNote       $04
	dc.b	nMaxPSG
	smpsPSGAlterVol     $04
	smpsAlterNote       $04
	dc.b	nMaxPSG
	smpsPSGAlterVol     $03
	smpsAlterNote       $04
	dc.b	nMaxPSG
	smpsPSGAlterVol     $01
	smpsAlterNote       $04
	dc.b	nMaxPSG
	smpsPSGAlterVol     $F5
	smpsAlterNote       $04
	dc.b	nMaxPSG
	smpsPSGAlterVol     $01
	smpsAlterNote       $04
	dc.b	nMaxPSG
	smpsPSGAlterVol     $01
	smpsAlterNote       $04
	dc.b	nMaxPSG
	smpsPSGAlterVol     $01
	smpsAlterNote       $04
	dc.b	nMaxPSG, $02
	smpsPSGAlterVol     $FE
	smpsAlterNote       $04
	dc.b	nMaxPSG, $01
	smpsPSGAlterVol     $02
	smpsAlterNote       $04
	dc.b	nMaxPSG
	smpsPSGAlterVol     $04
	smpsAlterNote       $04
	dc.b	nMaxPSG
	smpsPSGAlterVol     $03
	smpsAlterNote       $04
	dc.b	nMaxPSG
	smpsPSGAlterVol     $01
	smpsAlterNote       $04
	dc.b	nMaxPSG
	smpsPSGAlterVol     $F6
	smpsAlterNote       $04
	dc.b	nMaxPSG
	smpsPSGAlterVol     $02
	smpsAlterNote       $04
	dc.b	nMaxPSG
	smpsPSGAlterVol     $04
	smpsAlterNote       $04
	dc.b	nMaxPSG
	smpsPSGAlterVol     $03
	smpsAlterNote       $04
	dc.b	nMaxPSG
	smpsPSGAlterVol     $01
	smpsAlterNote       $04
	dc.b	nMaxPSG
	smpsPSGAlterVol     $F6
	smpsAlterNote       $04
	dc.b	nMaxPSG
	smpsPSGAlterVol     $02
	smpsAlterNote       $04
	dc.b	nMaxPSG
	smpsPSGAlterVol     $04
	smpsAlterNote       $04
	dc.b	nMaxPSG
	smpsPSGAlterVol     $03
	smpsAlterNote       $04
	dc.b	nMaxPSG
	smpsPSGAlterVol     $01
	smpsAlterNote       $04
	dc.b	nMaxPSG
	smpsPSGAlterVol     $F6
	smpsAlterNote       $FF
	dc.b	nAb5
	smpsPSGAlterVol     $02
	smpsAlterNote       $FF
	dc.b	nAb5
	smpsPSGAlterVol     $04
	smpsAlterNote       $FF
	dc.b	nAb5
	smpsPSGAlterVol     $03
	smpsAlterNote       $FF
	dc.b	nAb5
	smpsPSGAlterVol     $01
	smpsAlterNote       $FF
	dc.b	nAb5, nRst, $21
	smpsPSGAlterVol     $01
	smpsAlterNote       $04
	dc.b	nMaxPSG, $08
	smpsPSGAlterVol     $FF
	smpsAlterNote       $04
	dc.b	nMaxPSG
	smpsPSGAlterVol     $FF
	smpsAlterNote       $04
	dc.b	nMaxPSG
	smpsPSGAlterVol     $FF
	smpsAlterNote       $04
	dc.b	nMaxPSG
	smpsPSGAlterVol     $FF
	smpsAlterNote       $04
	dc.b	nMaxPSG
	smpsPSGAlterVol     $FF
	smpsAlterNote       $04
	dc.b	nMaxPSG
	smpsPSGAlterVol     $FF
	smpsAlterNote       $04
	dc.b	nMaxPSG
	smpsPSGAlterVol     $FF
	smpsAlterNote       $04
	dc.b	nMaxPSG
	smpsPSGAlterVol     $FF
	smpsAlterNote       $04
	dc.b	nMaxPSG
	smpsPSGAlterVol     $FF
	smpsAlterNote       $04
	dc.b	nMaxPSG
	smpsPSGAlterVol     $FF
	smpsAlterNote       $04
	dc.b	nMaxPSG
	smpsPSGAlterVol     $FF
	smpsAlterNote       $04
	dc.b	nMaxPSG
	smpsPSGAlterVol     $FF
	smpsAlterNote       $04
	dc.b	nMaxPSG, $07
	smpsPSGAlterVol     $01
	smpsAlterNote       $04
	dc.b	nMaxPSG, $01
	smpsPSGAlterVol     $01
	smpsAlterNote       $04
	dc.b	nMaxPSG
	smpsPSGAlterVol     $01
	smpsAlterNote       $04
	dc.b	nMaxPSG, $02
	smpsPSGAlterVol     $01
	smpsAlterNote       $04
	dc.b	nMaxPSG, $03
	smpsPSGAlterVol     $01
	smpsAlterNote       $04
	dc.b	nMaxPSG, $01
	smpsPSGAlterVol     $01
	smpsAlterNote       $04
	dc.b	nMaxPSG, $02
	smpsPSGAlterVol     $01
	smpsAlterNote       $04
	dc.b	nMaxPSG, $01
	smpsPSGAlterVol     $01
	smpsAlterNote       $04
	dc.b	nMaxPSG
	smpsPSGAlterVol     $01
	smpsAlterNote       $04
	dc.b	nMaxPSG
	smpsPSGAlterVol     $01
	smpsAlterNote       $04
	dc.b	nMaxPSG, $02
	smpsPSGAlterVol     $01
	smpsAlterNote       $04
	dc.b	nMaxPSG, $01
	smpsPSGAlterVol     $01
	smpsAlterNote       $04
	dc.b	nMaxPSG, $02, nRst, $36
	smpsAlterNote       $04
	dc.b	nMaxPSG, $03
	smpsPSGAlterVol     $FF
	smpsAlterNote       $04
	dc.b	nMaxPSG
	smpsPSGAlterVol     $FF
	smpsAlterNote       $04
	dc.b	nMaxPSG
	smpsPSGAlterVol     $FF
	smpsAlterNote       $04
	dc.b	nMaxPSG
	smpsPSGAlterVol     $FF
	smpsAlterNote       $04
	dc.b	nMaxPSG
	smpsPSGAlterVol     $FF
	smpsAlterNote       $04
	dc.b	nMaxPSG
	smpsPSGAlterVol     $FF
	smpsAlterNote       $04
	dc.b	nMaxPSG
	smpsPSGAlterVol     $FF
	smpsAlterNote       $04
	dc.b	nMaxPSG
	smpsPSGAlterVol     $FF
	smpsAlterNote       $04
	dc.b	nMaxPSG
	smpsPSGAlterVol     $FF
	smpsAlterNote       $04
	dc.b	nMaxPSG
	smpsPSGAlterVol     $FF
	smpsAlterNote       $04
	dc.b	nMaxPSG
	smpsPSGAlterVol     $FF
	smpsAlterNote       $04
	dc.b	nMaxPSG
	smpsPSGAlterVol     $FF
	smpsAlterNote       $04
	dc.b	nMaxPSG, $02
	smpsPSGAlterVol     $01
	smpsAlterNote       $04
	dc.b	nMaxPSG, $01
	smpsPSGAlterVol     $01
	smpsAlterNote       $04
	dc.b	nMaxPSG
	smpsPSGAlterVol     $01
	smpsAlterNote       $04
	dc.b	nMaxPSG, $02
	smpsPSGAlterVol     $01
	smpsAlterNote       $04
	dc.b	nMaxPSG, $03
	smpsPSGAlterVol     $01
	smpsAlterNote       $04
	dc.b	nMaxPSG, $01
	smpsPSGAlterVol     $01
	smpsAlterNote       $04
	dc.b	nMaxPSG
	smpsPSGAlterVol     $FA
	smpsAlterNote       $F8
	dc.b	nAb5
	smpsPSGAlterVol     $01
	smpsAlterNote       $F8
	dc.b	nAb5
	smpsPSGAlterVol     $01
	smpsAlterNote       $F8
	dc.b	nAb5
	smpsPSGAlterVol     $01
	smpsAlterNote       $F8
	dc.b	nAb5, $02
	smpsPSGAlterVol     $01
	smpsAlterNote       $F8
	dc.b	nAb5, $03
	smpsPSGAlterVol     $01
	smpsAlterNote       $F8
	dc.b	nAb5, $01
	smpsPSGAlterVol     $01
	smpsAlterNote       $F8
	dc.b	nAb5
	smpsPSGAlterVol     $FA
	smpsAlterNote       $04
	dc.b	nMaxPSG
	smpsPSGAlterVol     $01
	smpsAlterNote       $04
	dc.b	nMaxPSG
	smpsPSGAlterVol     $01
	smpsAlterNote       $04
	dc.b	nMaxPSG
	smpsPSGAlterVol     $01
	smpsAlterNote       $04
	dc.b	nMaxPSG, $02
	smpsPSGAlterVol     $01
	smpsAlterNote       $04
	dc.b	nMaxPSG, $03
	smpsPSGAlterVol     $01
	smpsAlterNote       $04
	dc.b	nMaxPSG, $01
	smpsPSGAlterVol     $01
	smpsAlterNote       $04
	dc.b	nMaxPSG
	smpsPSGAlterVol     $FA
	smpsAlterNote       $FF
	dc.b	nAb5
	smpsPSGAlterVol     $01
	smpsAlterNote       $FF
	dc.b	nAb5
	smpsPSGAlterVol     $01
	smpsAlterNote       $FF
	dc.b	nAb5
	smpsPSGAlterVol     $01
	smpsAlterNote       $FF
	dc.b	nAb5, $02
	smpsPSGAlterVol     $01
	smpsAlterNote       $FF
	dc.b	nAb5, $03
	smpsPSGAlterVol     $01
	smpsAlterNote       $FF
	dc.b	nAb5, $01
	smpsPSGAlterVol     $01
	smpsAlterNote       $FF
	dc.b	nAb5
	smpsPSGAlterVol     $FB
	smpsAlterNote       $FF
	dc.b	nAb5
	smpsPSGAlterVol     $05
	smpsJump            Genocide_Night_Reimagined_Jump06

; DAC Data
Genocide_Night_Reimagined_DAC:
	dc.b	nRst, $7F, nRst, $21, dKickS3, $14, $85, dKickS3, dKickS3, dKickS3, dKickS3, dKickS3
	dc.b	dKickS3, dKickS3, dKickS3, $0A, dHiTimpaniS3, dKickS3, $14, dKickS3, dKickS3, dKickS3, $0A, dHiTimpaniS3
	dc.b	dKickS3, $14, dKickS3, dKickS3, dKickS3, $0A, dHiTimpaniS3, dKickS3, $14, dKickS3, dKickS3, dKickS3
	dc.b	$0A, dHiTimpaniS3, dKickS3, dKickS3, dSnareS3, $05, dSnareS3, dSnareS3, $0A, dKickS3, $14, dKickS3
	dc.b	$0A, dHiTimpaniS3, dKickS3, $01

Genocide_Night_Reimagined_Jump00:
	dc.b	nRst, $13, dSnareS3, $14, dKickS3, dSnareS3, $0A, dHiTimpaniS3, dKickS3, $14, dSnareS3, dKickS3
	dc.b	$0A, dHiTimpaniS3, dSnareS3, $14, dKickS3, dSnareS3, $0A, dHiTimpaniS3, dKickS3, $14, dSnareS3, dKickS3
	dc.b	$0A, dHiTimpaniS3, dSnareS3, $14, dKickS3, dSnareS3, $0A, dHiTimpaniS3, dKickS3, $14, dSnareS3, dKickS3
	dc.b	dSnareS3, dKickS3, dSnareS3, $0A, dHiTimpaniS3, dKickS3, $14, dSnareS3, dKickS3, dSnareS3, $0A, dHiTimpaniS3
	dc.b	dKickS3, $14, dSnareS3, dKickS3, dSnareS3, $0A, dHiTimpaniS3, dKickS3, $14, dKickS3, $0A, dSnareS3
	dc.b	dKickS3, $14, dKickS3, $0A, dKickS3, dSnareS3, dKickS3, $14, dKickS3, $0A, dKickS3, dSnareS3
	dc.b	dKickS3, $14, dKickS3, $0A, dKickS3, dSnareS3, dSnareS3, dKickS3, $14, dKickS3, $0A, dKickS3
	dc.b	dSnareS3, $14, dKickS3, $0A, dKickS3, dSnareS3, dKickS3, dKickS3, dKickS3, dSnareS3, dKickS3, $14
	dc.b	dKickS3, $0A, dKickS3, dSnareS3, dHiTimpaniS3, dKickS3, dSnareS3, $05, dSnareS3, $85, $5A, dHiTimpaniS3
	dc.b	$0A, dHiTimpaniS3, $14, dHiTimpaniS3, $0A, dHiTimpaniS3, $1E, dHiTimpaniS3, $0A, dKickS3, $14, dKickS3
	dc.b	$0A, dKickS3, dSnareS3, $05, dSnareS3, dSnareS3, $0A, dKickS3, $14, dKickS3, $0A, dHiTimpaniS3
	dc.b	dKickS3, $01
	smpsJump            Genocide_Night_Reimagined_Jump00

Genocide_Night_Reimagined_Voices:
;	Voice $00
;	$3D
;	$01, $02, $02, $02, 	$10, $50, $50, $50, 	$07, $08, $08, $08
;	$01, $00, $00, $00, 	$24, $18, $18, $18, 	$1C, $11, $11, $00
	smpsVcAlgorithm     $05
	smpsVcFeedback      $07
	smpsVcUnusedBits    $00
	smpsVcDetune        $00, $00, $00, $00
	smpsVcCoarseFreq    $02, $02, $02, $01
	smpsVcRateScale     $01, $01, $01, $00
	smpsVcAttackRate    $10, $10, $10, $10
	smpsVcAmpMod        $00, $00, $00, $00
	smpsVcDecayRate1    $08, $08, $08, $07
	smpsVcDecayRate2    $00, $00, $00, $01
	smpsVcDecayLevel    $01, $01, $01, $02
	smpsVcReleaseRate   $08, $08, $08, $04
	smpsVcTotalLevel    $00, $11, $11, $1C

;	Voice $01
;	$00
;	$00, $00, $00, $00, 	$00, $00, $00, $00, 	$00, $00, $00, $00
;	$00, $00, $00, $00, 	$FF, $FF, $FF, $FF, 	$00, $00, $00, $00
	smpsVcAlgorithm     $00
	smpsVcFeedback      $00
	smpsVcUnusedBits    $00
	smpsVcDetune        $00, $00, $00, $00
	smpsVcCoarseFreq    $00, $00, $00, $00
	smpsVcRateScale     $00, $00, $00, $00
	smpsVcAttackRate    $00, $00, $00, $00
	smpsVcAmpMod        $00, $00, $00, $00
	smpsVcDecayRate1    $00, $00, $00, $00
	smpsVcDecayRate2    $00, $00, $00, $00
	smpsVcDecayLevel    $0F, $0F, $0F, $0F
	smpsVcReleaseRate   $0F, $0F, $0F, $0F
	smpsVcTotalLevel    $00, $00, $00, $00

;	Voice $02
;	$20
;	$7A, $31, $00, $00, 	$9F, $D8, $DC, $DF, 	$10, $0A, $04, $04
;	$0F, $08, $08, $08, 	$5F, $5F, $BF, $BF, 	$14, $2B, $17, $00
	smpsVcAlgorithm     $00
	smpsVcFeedback      $04
	smpsVcUnusedBits    $00
	smpsVcDetune        $00, $00, $03, $07
	smpsVcCoarseFreq    $00, $00, $01, $0A
	smpsVcRateScale     $03, $03, $03, $02
	smpsVcAttackRate    $1F, $1C, $18, $1F
	smpsVcAmpMod        $00, $00, $00, $00
	smpsVcDecayRate1    $04, $04, $0A, $10
	smpsVcDecayRate2    $08, $08, $08, $0F
	smpsVcDecayLevel    $0B, $0B, $05, $05
	smpsVcReleaseRate   $0F, $0F, $0F, $0F
	smpsVcTotalLevel    $00, $17, $2B, $14

;	Voice $03
;	$08
;	$09, $70, $30, $00, 	$1F, $1F, $5F, $5F, 	$12, $0E, $0A, $0A
;	$00, $04, $04, $03, 	$2F, $2F, $2F, $2F, 	$25, $30, $13, $00
	smpsVcAlgorithm     $00
	smpsVcFeedback      $01
	smpsVcUnusedBits    $00
	smpsVcDetune        $00, $03, $07, $00
	smpsVcCoarseFreq    $00, $00, $00, $09
	smpsVcRateScale     $01, $01, $00, $00
	smpsVcAttackRate    $1F, $1F, $1F, $1F
	smpsVcAmpMod        $00, $00, $00, $00
	smpsVcDecayRate1    $0A, $0A, $0E, $12
	smpsVcDecayRate2    $03, $04, $04, $00
	smpsVcDecayLevel    $02, $02, $02, $02
	smpsVcReleaseRate   $0F, $0F, $0F, $0F
	smpsVcTotalLevel    $00, $13, $30, $25

;	Voice $04
;	$3A
;	$03, $08, $03, $01, 	$8E, $8E, $8D, $53, 	$0E, $0E, $0E, $03
;	$00, $00, $00, $00, 	$1F, $FF, $1F, $0F, 	$17, $28, $20, $00
	smpsVcAlgorithm     $02
	smpsVcFeedback      $07
	smpsVcUnusedBits    $00
	smpsVcDetune        $00, $00, $00, $00
	smpsVcCoarseFreq    $01, $03, $08, $03
	smpsVcRateScale     $01, $02, $02, $02
	smpsVcAttackRate    $13, $0D, $0E, $0E
	smpsVcAmpMod        $00, $00, $00, $00
	smpsVcDecayRate1    $03, $0E, $0E, $0E
	smpsVcDecayRate2    $00, $00, $00, $00
	smpsVcDecayLevel    $00, $01, $0F, $01
	smpsVcReleaseRate   $0F, $0F, $0F, $0F
	smpsVcTotalLevel    $00, $20, $28, $17

;	Voice $05
;	$32
;	$71, $0D, $33, $01, 	$5F, $99, $5F, $94, 	$05, $05, $05, $06
;	$02, $02, $02, $02, 	$11, $11, $11, $7A, 	$23, $2D, $26, $00
	smpsVcAlgorithm     $02
	smpsVcFeedback      $06
	smpsVcUnusedBits    $00
	smpsVcDetune        $00, $03, $00, $07
	smpsVcCoarseFreq    $01, $03, $0D, $01
	smpsVcRateScale     $02, $01, $02, $01
	smpsVcAttackRate    $14, $1F, $19, $1F
	smpsVcAmpMod        $00, $00, $00, $00
	smpsVcDecayRate1    $06, $05, $05, $05
	smpsVcDecayRate2    $02, $02, $02, $02
	smpsVcDecayLevel    $07, $01, $01, $01
	smpsVcReleaseRate   $0A, $01, $01, $01
	smpsVcTotalLevel    $00, $26, $2D, $23

